<svg id="Layer_1" data-name="Layer 1" xmlns="http://www.w3.org/2000/svg" viewBox="0 0 75 19"><defs><style>.cls-1{fill:#404040;}</style></defs><title>logo-vlad</title><path class="cls-1" d="M6.5,5.19l2.42,7.45,2.42-7.45H13.9l-3.44,9.9H7.37L3.94,5.19Z"/><path class="cls-1" d="M17.22,4.73V15.09H14.83V4.73Z"/><path class="cls-1" d="M23.38,7.58a2.39,2.39,0,0,1,.95,1.11V7.27h2.38v7.82H24.33V13.67a2.39,2.39,0,0,1-.95,1.11,2.83,2.83,0,0,1-1.54.4,3.19,3.19,0,0,1-1.73-.48,3.28,3.28,0,0,1-1.2-1.39,4.77,4.77,0,0,1-.44-2.13A4.78,4.78,0,0,1,18.91,9a3.25,3.25,0,0,1,1.2-1.38,3.19,3.19,0,0,1,1.73-.48A2.83,2.83,0,0,1,23.38,7.58Zm-2,2.2a2,2,0,0,0-.47,1.4,2,2,0,0,0,.47,1.4,1.77,1.77,0,0,0,2.48,0,2,2,0,0,0,.48-1.39,1.94,1.94,0,0,0-.48-1.39,1.77,1.77,0,0,0-2.48,0Z"/><path class="cls-1" d="M32.87,7.58a2.32,2.32,0,0,1,.94,1.11v-4h2.4V15.09h-2.4V13.67a2.32,2.32,0,0,1-.94,1.11,2.83,2.83,0,0,1-1.54.4,3.19,3.19,0,0,1-1.73-.48,3.35,3.35,0,0,1-1.2-1.39A4.91,4.91,0,0,1,28,11.18,4.92,4.92,0,0,1,28.4,9a3.32,3.32,0,0,1,1.2-1.38,3.19,3.19,0,0,1,1.73-.48A2.83,2.83,0,0,1,32.87,7.58Zm-2,2.2a2,2,0,0,0-.46,1.4,2,2,0,0,0,.46,1.4,1.77,1.77,0,0,0,2.48,0,2,2,0,0,0,.49-1.39,2,2,0,0,0-.49-1.39,1.77,1.77,0,0,0-2.48,0Z"/><path class="cls-1" d="M38,4.17a1.45,1.45,0,0,1,1-.35,1.47,1.47,0,0,1,1,.35,1.18,1.18,0,0,1,.39.91A1.13,1.13,0,0,1,40.1,6a1.48,1.48,0,0,1-1,.36A1.45,1.45,0,0,1,38,6a1.11,1.11,0,0,1-.4-.88A1.16,1.16,0,0,1,38,4.17Zm2.22,3.1v7.82H37.86V7.27Z"/><path class="cls-1" d="M47.12,7.92a3.23,3.23,0,0,1,1.11,2H46a1.2,1.2,0,0,0-.44-.75,1.36,1.36,0,0,0-.86-.27.94.94,0,0,0-.62.17.61.61,0,0,0-.21.5.58.58,0,0,0,.39.54,5.35,5.35,0,0,0,1.21.37,12.76,12.76,0,0,1,1.47.42,2.46,2.46,0,0,1,1,.71,2,2,0,0,1,.42,1.32A2,2,0,0,1,48,14.08a2.43,2.43,0,0,1-1,.81,4.06,4.06,0,0,1-1.63.29,4.17,4.17,0,0,1-2.53-.7,3,3,0,0,1-1.16-2h2.31a1,1,0,0,0,.43.77,1.55,1.55,0,0,0,.95.27.92.92,0,0,0,.62-.19.64.64,0,0,0,.21-.5.6.6,0,0,0-.38-.58,6.93,6.93,0,0,0-1.26-.37,9.57,9.57,0,0,1-1.42-.39,2.35,2.35,0,0,1-1-.68,1.89,1.89,0,0,1-.41-1.28,2.09,2.09,0,0,1,.8-1.7,3.44,3.44,0,0,1,2.26-.65A3.56,3.56,0,0,1,47.12,7.92Z"/><path class="cls-1" d="M52.07,4.73V15.09h-2.4V4.73Z"/><path class="cls-1" d="M58.23,7.58a2.45,2.45,0,0,1,1,1.11V7.27h2.38v7.82H59.18V13.67a2.45,2.45,0,0,1-1,1.11,2.85,2.85,0,0,1-1.54.4A3.17,3.17,0,0,1,55,14.7a3.37,3.37,0,0,1-1.21-1.39,4.91,4.91,0,0,1-.44-2.13A4.92,4.92,0,0,1,53.75,9,3.34,3.34,0,0,1,55,7.66a3.17,3.17,0,0,1,1.73-.48A2.85,2.85,0,0,1,58.23,7.58Zm-2,2.2a2,2,0,0,0-.47,1.4,2,2,0,0,0,.47,1.4,1.58,1.58,0,0,0,1.24.5,1.65,1.65,0,0,0,1.24-.51,2,2,0,0,0,.48-1.39,1.94,1.94,0,0,0-.48-1.39,1.65,1.65,0,0,0-1.24-.51A1.58,1.58,0,0,0,56.22,9.78Z"/><path class="cls-1" d="M66.82,12.75l1.7-5.48h2.54l-2.77,7.82h-3L62.55,7.27H65.1Z"/></svg>