<svg width="1600" height="1000" viewBox="0 0 1600 1000" fill="none" xmlns="http://www.w3.org/2000/svg">
<rect width="1600" height="1000" fill="#1DA8A0"/>
<path d="M774.939 717C762.455 717 751.042 714.342 741.101 708.993C723.162 699.371 710.61 681.54 704.753 657.451C700.804 641.168 699.498 620.376 700.603 600.123C658.565 575.294 622.886 529.472 622.016 464.271C621.38 416.026 639.621 370.54 673.325 336.224C707.029 301.908 752.012 283 800.008 283C898.141 283 978 363.24 978 461.882C978 573.847 912.399 673.23 814.768 709.195C800.644 714.409 787.256 717 774.939 717ZM730.391 613.883C730.425 627.845 731.73 640.899 734.006 650.285C737.821 665.997 744.95 676.762 755.259 682.28C767.241 688.706 784.21 688.201 804.359 680.766C890.175 649.175 947.81 561.231 947.81 461.882C947.844 379.96 881.507 313.279 800.008 313.279C760.146 313.279 722.76 328.991 694.779 357.487C666.765 386.016 651.637 423.798 652.139 463.867C652.574 497.51 670.982 540.843 704.787 567.354C705.724 562.913 706.795 558.674 708.033 554.704C720.082 515.644 744.683 491.993 777.249 488.09C798.167 485.567 818.617 491.993 833.277 505.652C847.2 518.605 854.731 536.84 853.961 555.646C852.321 595.749 820.96 621.655 774.069 621.655C760.313 621.655 745.385 619.064 730.391 613.883ZM732.5 583.436C745.017 588.482 758.907 591.376 774.069 591.376C785.382 591.376 822.466 588.718 823.872 554.401C824.274 544.477 820.257 534.787 812.827 527.857C804.526 520.119 793.147 516.687 780.796 518.134C760.179 520.59 745.385 535.898 736.817 563.653C734.943 569.743 733.537 576.471 732.5 583.436Z" fill="white"/>
</svg>
