<?xml version="1.0" encoding="utf-8"?>
<!-- Generator: Adobe Illustrator 27.2.0, SVG Export Plug-In . SVG Version: 6.00 Build 0)  -->
<svg version="1.1" id="Layer_1" xmlns="http://www.w3.org/2000/svg" xmlns:xlink="http://www.w3.org/1999/xlink" x="0px" y="0px"
	 viewBox="0 0 2560 1600" style="enable-background:new 0 0 2560 1600;" xml:space="preserve">
<style type="text/css">
	.st0{fill:#FFFFFF;}
	.st1{fill:#FC044D;}
	.st2{fill:#322E59;}
	.st3{fill-rule:evenodd;clip-rule:evenodd;fill:#FFFFFF;}
	.st4{fill:#1FA59E;}
	.st5{fill:#9C99AC;}
	.st6{fill-rule:evenodd;clip-rule:evenodd;fill:#1FA59E;}
	.st7{fill:none;stroke:#1FA59E;stroke-width:1.4345;}
	.st8{fill:none;stroke:#2B265E;stroke-width:1.4345;stroke-opacity:0.19;}
</style>
<path class="st0" d="M1193.6,900.8h2.6v-17.3h-2.6V900.8z"/>
<rect x="-3" y="-3" class="st1" width="2566" height="1606"/>
<g>
	<g>
		<rect x="708.9" y="216.6" class="st0" width="537.9" height="1164.8"/>
		<path class="st2" d="M708.9,216.6h537.9v387.3H708.9V216.6z"/>
		<rect x="708.9" y="568.1" class="st2" width="537.9" height="35.9"/>
		<path class="st3" d="M752.4,281.2c0.4,0.5,0.3,1.1-0.1,1.5l-4.8,4l4.8,4.4c0.4,0.4,0.5,1.1,0.1,1.5c-0.4,0.4-1.1,0.5-1.5,0.1
			l-5.7-5.2c-0.2-0.2-0.4-0.5-0.4-0.8c0-0.3,0.1-0.6,0.4-0.8l5.7-4.8C751.4,280.7,752.1,280.8,752.4,281.2z"/>
		<path class="st0" d="M770.5,286.9c1-0.6,1.7-1.9,1.7-3.2c0-2-1.7-3.6-4-3.6h-5.6v14.1h5.6c2.4,0,4.3-1.7,4.3-3.9
			C772.6,288.7,771.8,287.4,770.5,286.9z M770.4,283.9c0,1.2-0.9,2.1-2.2,2.1h-3.8v-4.2h3.8C769.5,281.8,770.4,282.7,770.4,283.9z
			 M768.3,292.4h-3.9v-4.7h3.9c1.4,0,2.5,1,2.5,2.3C770.8,291.4,769.7,292.4,768.3,292.4z"/>
		<path class="st0" d="M784.7,283.3l-0.2,1.7c-1-1.2-2.5-1.9-4.3-1.9c-3.2,0-5.6,2.4-5.6,5.7c0,3.2,2.4,5.6,5.6,5.6
			c1.8,0,3.3-0.7,4.3-1.9l0.2,1.6h1.4v-10.8H784.7z M780.4,292.7c-2.3,0-4-1.7-4-4c0-2.3,1.7-4,4-4c2.3,0,4,1.7,4,4
			C784.3,291,782.7,292.7,780.4,292.7z"/>
		<path class="st0" d="M794.3,294.4c2.6,0,4.6-1.5,5.3-3.9h-1.7c-0.7,1.4-2,2.3-3.6,2.3c-2.2,0-3.9-1.7-3.9-4c0-2.2,1.7-4,3.9-4
			c1.6,0,3,0.8,3.6,2.2h1.7c-0.7-2.4-2.7-3.9-5.3-3.9c-3.2,0-5.6,2.4-5.6,5.6C788.7,292,791.1,294.4,794.3,294.4z"/>
		<path class="st0" d="M809.1,294.2h2.1l-4.4-5.6l4-5.2h-2.1l-3.3,4.4h-1.6v-8.3h-1.7v14.7h1.7v-4.9h1.6L809.1,294.2z"/>
		<path class="st0" d="M1155.8,279.3v2.5h2.1v10.8h2.8v-13.4H1155.8z"/>
		<path class="st0" d="M1173.7,292.9c3.3,0,5.7-2.4,5.7-5.7c0-3.2-2.5-5.6-5.7-5.6c-3.3,0-5.8,2.4-5.8,5.6
			C1168,290.5,1170.4,292.9,1173.7,292.9z M1173.7,291.3c-2.3,0-4-1.7-4-4c0-2.3,1.7-4,4-4c2.3,0,4,1.7,4,4
			C1177.7,289.6,1176,291.3,1173.7,291.3z"/>
		<path class="st0" d="M1187.7,281.9h-3.4v-0.8c0-1.5,0.6-2.1,2.1-2.1h1.2v-1.4h-1.5c-2.4,0-3.5,1.1-3.5,3.5v0.9h-2.1v1.4h2.1v9.3
			h1.7v-9.3h3.3V281.9z"/>
		<path class="st0" d="M1193.1,279.3v1.5h2.6v11.8h1.6v-13.4H1193.1z"/>
		<path class="st0" d="M1204.4,284.2h-2l0.4-3.4h5.3v-1.5h-6.7l-0.7,6.1l0.2,0.3h3.4c1.7,0,3,1.2,3,2.8s-1.2,2.8-2.8,2.8
			c-1.6,0-2.7-1-2.8-2.6h-1.6c0.1,2.4,1.9,4.1,4.4,4.1s4.4-1.8,4.4-4.4C1209,286.1,1207,284.2,1204.4,284.2z"/>
		<path class="st0" d="M744.8,333.5c0-1.2,1-2.2,2.2-2.2h461.9c1.2,0,2.2,1,2.2,2.2l0,0c0,1.2-1,2.2-2.2,2.2H747
			C745.8,335.7,744.8,334.7,744.8,333.5L744.8,333.5z"/>
		<path class="st4" d="M744.8,333.5c0-1.2,1-2.2,2.2-2.2h8.6c1.2,0,2.2,1,2.2,2.2l0,0c0,1.2-1,2.2-2.2,2.2H747
			C745.8,335.7,744.8,334.7,744.8,333.5L744.8,333.5z"/>
		<path class="st0" d="M747.2,456.1h5.2V432h-5.2V456.1z"/>
		<path class="st0" d="M775.1,437.1c-2.2,0-4.2,0.8-5.6,2.2v-8.4h-5v25.3h5v-9.7c0-3,1.7-4.9,4.2-4.9c2.2,0,3.2,1.4,3.2,4.2v10.4h5
			v-11.3C781.9,440.1,779.3,437.1,775.1,437.1z"/>
		<path class="st0" d="M801,437.5l-0.5,1.8c-1.6-1.4-3.7-2.3-6.1-2.3c-5.6,0-9.7,4.2-9.7,9.8s4.2,9.8,9.7,9.8c2.4,0,4.4-0.8,6-2.2
			l0.4,1.7h3.9v-18.6H801z M794.8,451.9c-2.9,0-5.1-2.2-5.1-5.1c0-2.9,2.1-5.1,5.1-5.1s5.1,2.2,5.1,5.1
			C799.8,449.7,797.7,451.9,794.8,451.9z"/>
		<path class="st0" d="M821.1,437.5l-4.5,12.5l-4.5-12.5h-5.4l7.6,18.6h4.6l7.4-18.6H821.1z"/>
		<path class="st0" d="M845.7,446.8c0-5.4-3.9-9.8-9.6-9.8c-5.5,0-9.6,4.2-9.6,9.8c0,5.6,4.2,9.8,9.6,9.8c4.3,0,7.9-2.6,9.2-6.6H840
			c-0.8,1.3-2.2,2.2-4,2.2c-2.4,0-4.1-1.4-4.5-4h14.1C845.7,447.7,845.7,447.2,845.7,446.8z M836.1,441.3c2.3,0,3.9,1.2,4.6,3.5h-9
			C832.3,442.6,833.8,441.3,836.1,441.3z"/>
		<path class="st0" d="M874.2,446.8c0-5.4-3.9-9.8-9.6-9.8c-5.5,0-9.6,4.2-9.6,9.8c0,5.6,4.2,9.8,9.6,9.8c4.3,0,7.9-2.6,9.2-6.6
			h-5.3c-0.8,1.3-2.2,2.2-4,2.2c-2.4,0-4.1-1.4-4.5-4h14.1C874.2,447.7,874.2,447.2,874.2,446.8z M864.6,441.3
			c2.3,0,3.9,1.2,4.6,3.5h-9C860.7,442.6,862.3,441.3,864.6,441.3z"/>
		<path class="st0" d="M887.7,437.1c-2.5,0-4.8,1.1-6.2,2.7l-1-2.3h-3.4v18.6h5v-9.7c0-3,1.6-4.9,4.2-4.9c2.2,0,3.2,1.3,3.2,4.2
			v10.4h5v-11.3C894.5,440.1,891.9,437.1,887.7,437.1z"/>
		<path class="st0" d="M898.9,435h5v-4.6h-5V435z M894.5,462.8h2.4c4.1,0,7-2.9,7-7v-18.4h-5v18c0,1.8-1,2.7-2.8,2.7h-1.6V462.8z"/>
		<path class="st0" d="M916.8,456.6c5.7,0,10.1-4.2,10.1-9.8s-4.3-9.8-10.1-9.8s-10.1,4.2-10.1,9.8S911.1,456.6,916.8,456.6z
			 M916.8,451.9c-2.9,0-5-2.1-5-5.1c0-3,2.1-5.1,5-5.1c2.9,0,5,2.1,5,5.1C921.8,449.8,919.7,451.9,916.8,451.9z"/>
		<path class="st0" d="M941.9,437.5l-4.6,11.5l-5-11.5h-5.5l7.9,17.2l-0.1,0.1c-1.1,2.8-1.8,3.5-4.2,3.5h-1.7v4.5h2.1
			c4.2,0,6.1-1.9,8.4-7l8.1-18.4H941.9z"/>
		<path class="st0" d="M966.3,446.8c0-5.4-3.9-9.8-9.6-9.8c-5.5,0-9.6,4.2-9.6,9.8c0,5.6,4.2,9.8,9.6,9.8c4.3,0,7.9-2.6,9.2-6.6
			h-5.3c-0.8,1.3-2.2,2.2-4,2.2c-2.4,0-4.1-1.4-4.5-4h14.1C966.3,447.7,966.3,447.2,966.3,446.8z M956.7,441.3
			c2.3,0,3.9,1.2,4.6,3.5h-9C952.9,442.6,954.5,441.3,956.7,441.3z"/>
		<path class="st0" d="M982.9,430.8v7.7c-1.4-1-3.2-1.5-5.1-1.5c-5.6,0-9.8,4.2-9.8,9.8c0,5.6,4.1,9.8,9.8,9.8
			c2.3,0,4.3-0.8,5.8-2.1l0.6,1.5h3.7v-25.3H982.9z M978.2,451.9c-2.9,0-5.1-2.2-5.1-5.1c0-2.9,2.1-5.1,5.1-5.1
			c2.9,0,5.1,2.2,5.1,5.1C983.2,449.7,981.1,451.9,978.2,451.9z"/>
		<path class="st0" d="M1020.7,437.1c-2.4,0-4.5,1.2-5.7,3c-1.1-1.9-3-3-5.4-3c-2.2,0-4.2,1.1-5.5,2.7l-0.9-2.3h-3.5v18.6h5V446
			c0-2.9,1.3-4.5,3.6-4.5c1.8,0,2.8,1.3,2.8,3.8v10.8h4.9V446c0-2.9,1.3-4.5,3.6-4.5c1.8,0,2.8,1.3,2.8,3.8v10.8h5v-11.6
			C1027.3,440.1,1024.6,437.1,1020.7,437.1z"/>
		<path class="st0" d="M1043.4,437.5l-4.6,11.5l-5-11.5h-5.5l7.9,17.2l-0.1,0.1c-1.1,2.8-1.8,3.5-4.2,3.5h-1.7v4.5h2.1
			c4.2,0,6.1-1.9,8.4-7l8.1-18.4H1043.4z"/>
		<path class="st0" d="M1078.8,437.5l-3.6,11.1l-5-11h-1.4l-4.8,10.9l-3.7-11.1h-5.1l6.1,18.6h4.1l4.1-9.6l4.2,9.6h4.1l6.1-18.6
			H1078.8z"/>
		<path class="st0" d="M1094.2,456.6c5.7,0,10.1-4.2,10.1-9.8s-4.3-9.8-10.1-9.8c-5.7,0-10.1,4.2-10.1,9.8
			S1088.5,456.6,1094.2,456.6z M1094.2,451.9c-2.9,0-5-2.1-5-5.1c0-3,2.1-5.1,5-5.1c2.9,0,5,2.1,5,5.1
			C1099.2,449.8,1097.1,451.9,1094.2,451.9z"/>
		<path class="st0" d="M1116.7,437.4c-2.4,0-4.1,0.8-5.4,2.4l-0.9-2.3h-3.2v18.6h5v-9.6c0-3,1.1-4.3,3.9-4.3h2.2v-4.8H1116.7z"/>
		<path class="st0" d="M1138.1,456.1l-7-9.7l6.3-8.9h-5.8l-5.6,8.3v-14.9h-5v25.3h5v-8.9l6,8.9H1138.1z"/>
		<path class="st0" d="M1155.7,451.6c-1.9,0-2.9-1-2.9-2.8v-7.2h5.1v-4.1h-5.1v-4.8h-1l-7.3,7.8v1.1h3.3v7.9c0,4.1,2.5,6.6,6.6,6.6
			h3.6v-4.5H1155.7z"/>
		<path class="st0" d="M1171.3,437.1c-2.2,0-4.2,0.8-5.6,2.2v-8.4h-5v25.3h5v-9.7c0-3,1.7-4.9,4.2-4.9c2.2,0,3.2,1.4,3.2,4.2v10.4h5
			v-11.3C1178.1,440.1,1175.5,437.1,1171.3,437.1z"/>
		<path class="st0" d="M1182.1,435h5v-4.6h-5V435z M1182.1,456.1h5v-18.6h-5V456.1z"/>
		<path class="st0" d="M1197.8,456.6c4.7,0,7.8-2.5,7.8-6.3c0-4.5-3.9-5.2-6.9-5.7c-1.9-0.3-3.5-0.7-3.5-1.9c0-1.1,0.9-1.8,2.5-1.8
			c1.8,0,2.8,0.7,2.8,2.2h4.8c0-3.7-3-6.2-7.5-6.2c-4.5,0-7.5,2.4-7.5,6c0,4.4,3.8,5.2,6.7,5.7c2,0.3,3.6,0.7,3.6,2
			c0,1.2-1.3,1.9-2.7,1.9c-1.8,0-3.1-0.8-3.1-2.5h-4.9C1190,454,1193.2,456.6,1197.8,456.6z"/>
		<path class="st0" d="M768.5,474.8l-3.6,11.1l-5-11h-1.4l-4.8,10.9l-3.7-11.1h-5.1l6.1,18.6h4.1l4.1-9.6l4.2,9.6h4.1l6.1-18.6
			H768.5z"/>
		<path class="st0" d="M793.2,484.1c0-5.4-3.9-9.8-9.6-9.8c-5.5,0-9.6,4.2-9.6,9.8c0,5.6,4.2,9.8,9.6,9.8c4.3,0,7.9-2.6,9.2-6.6
			h-5.3c-0.8,1.3-2.2,2.2-4,2.2c-2.4,0-4.1-1.4-4.5-4h14.1C793.1,485,793.2,484.5,793.2,484.1z M783.5,478.6c2.3,0,3.9,1.2,4.6,3.5
			h-9C779.7,479.9,781.3,478.6,783.5,478.6z"/>
		<path class="st0" d="M814.1,484.1c0-5.4-3.9-9.8-9.6-9.8c-5.5,0-9.6,4.2-9.6,9.8c0,5.6,4.2,9.8,9.6,9.8c4.3,0,7.9-2.6,9.2-6.6
			h-5.3c-0.8,1.3-2.2,2.2-4,2.2c-2.4,0-4.1-1.4-4.5-4H814C814.1,485,814.1,484.5,814.1,484.1z M804.5,478.6c2.3,0,3.9,1.2,4.6,3.5
			h-9C800.6,479.9,802.2,478.6,804.5,478.6z"/>
		<path class="st0" d="M834.5,493.4l-7-9.7l6.3-8.9H828l-5.6,8.3v-14.9h-5v25.3h5v-8.9l6,8.9H834.5z"/>
		<path class="st0" d="M835.7,493.4h5.3V488h-5.3V493.4z"/>
		<path class="st5" d="M749.8,508.9h-5V523h1.8v-5h3.3c2.7,0,4.7-1.9,4.7-4.5C754.5,510.9,752.5,508.9,749.8,508.9z M749.8,516.2
			h-3.2v-5.6h3.2c1.7,0,3,1.2,3,2.8S751.5,516.2,749.8,516.2z"/>
		<path class="st5" d="M756.9,523h1.7v-14.7h-1.7V523z"/>
		<path class="st5" d="M772.1,517.6c0-3.2-2.2-5.7-5.5-5.7c-3.2,0-5.5,2.4-5.5,5.6c0,3.2,2.4,5.7,5.5,5.7c2.3,0,4.3-1.3,5.2-3.5
			h-1.8c-0.7,1.2-1.9,1.9-3.4,1.9c-2,0-3.6-1.3-3.8-3.3h9.2C772.1,518,772.1,517.8,772.1,517.6z M766.7,513.5c1.9,0,3.4,1.2,3.8,3.1
			h-7.5C763.2,514.8,764.7,513.5,766.7,513.5z"/>
		<path class="st5" d="M783.9,512.1l-0.2,1.7c-1-1.2-2.5-1.9-4.3-1.9c-3.2,0-5.6,2.4-5.6,5.7c0,3.2,2.4,5.6,5.6,5.6
			c1.8,0,3.3-0.7,4.3-1.9l0.2,1.6h1.4v-10.8H783.9z M779.6,521.6c-2.3,0-4-1.7-4-4c0-2.3,1.7-4,4-4c2.3,0,4,1.7,4,4
			C783.5,519.9,781.9,521.6,779.6,521.6z"/>
		<path class="st5" d="M792.2,523.2c2.6,0,4.3-1.3,4.3-3.3c0-2.7-2.2-3-4.1-3.3c-1.4-0.2-2.7-0.4-2.7-1.6c0-0.9,0.9-1.5,2.4-1.5
			c1.5,0,2.5,0.6,2.5,1.8h1.6c-0.1-2-1.6-3.4-4.1-3.4c-2.5,0-4.1,1.3-4.1,3.1c0,2.5,2.1,2.8,3.9,3.2c1.5,0.2,2.8,0.5,2.8,1.8
			c0,1-1.1,1.7-2.6,1.7c-1.5,0-2.6-0.7-2.7-2h-1.7C787.9,521.9,789.6,523.2,792.2,523.2z"/>
		<path class="st5" d="M809.2,517.6c0-3.2-2.2-5.7-5.5-5.7c-3.2,0-5.5,2.4-5.5,5.6c0,3.2,2.4,5.7,5.5,5.7c2.3,0,4.3-1.3,5.2-3.5
			h-1.8c-0.7,1.2-1.9,1.9-3.4,1.9c-2,0-3.6-1.3-3.8-3.3h9.2C809.1,518,809.2,517.8,809.2,517.6z M803.7,513.5c1.9,0,3.4,1.2,3.8,3.1
			h-7.5C800.3,514.8,801.7,513.5,803.7,513.5z"/>
		<path class="st5" d="M820.4,523.2c2.6,0,4.3-1.3,4.3-3.3c0-2.7-2.2-3-4.1-3.3c-1.4-0.2-2.7-0.4-2.7-1.6c0-0.9,0.9-1.5,2.4-1.5
			c1.5,0,2.5,0.6,2.5,1.8h1.6c-0.1-2-1.6-3.4-4.1-3.4s-4.1,1.3-4.1,3.1c0,2.5,2.1,2.8,3.9,3.2c1.5,0.2,2.8,0.5,2.8,1.8
			c0,1-1.1,1.7-2.6,1.7c-1.5,0-2.6-0.7-2.7-2h-1.7C816.2,521.9,817.8,523.2,820.4,523.2z"/>
		<path class="st5" d="M837.4,517.6c0-3.2-2.2-5.7-5.5-5.7c-3.2,0-5.5,2.4-5.5,5.6c0,3.2,2.4,5.7,5.5,5.7c2.3,0,4.3-1.3,5.2-3.5
			h-1.8c-0.7,1.2-1.9,1.9-3.4,1.9c-2,0-3.6-1.3-3.8-3.3h9.2C837.4,518,837.4,517.8,837.4,517.6z M831.9,513.5c1.9,0,3.4,1.2,3.8,3.1
			h-7.5C828.5,514.8,830,513.5,831.9,513.5z"/>
		<path class="st5" d="M840,523h1.7v-14.7H840V523z"/>
		<path class="st5" d="M855.2,517.6c0-3.2-2.2-5.7-5.5-5.7c-3.2,0-5.5,2.4-5.5,5.6c0,3.2,2.4,5.7,5.5,5.7c2.3,0,4.3-1.3,5.2-3.5
			h-1.8c-0.7,1.2-1.9,1.9-3.4,1.9c-2,0-3.6-1.3-3.8-3.3h9.2C855.2,518,855.2,517.8,855.2,517.6z M849.8,513.5c1.9,0,3.4,1.2,3.8,3.1
			H846C846.3,514.8,847.8,513.5,849.8,513.5z"/>
		<path class="st5" d="M862.6,523.2c2.6,0,4.6-1.5,5.3-3.9h-1.7c-0.7,1.4-2,2.3-3.6,2.3c-2.2,0-3.9-1.7-3.9-4c0-2.2,1.7-4,3.9-4
			c1.6,0,3,0.8,3.6,2.2h1.7c-0.7-2.4-2.7-3.9-5.3-3.9c-3.2,0-5.6,2.4-5.6,5.6S859.4,523.2,862.6,523.2z"/>
		<path class="st5" d="M874.7,521.4c-1.5,0-2.3-0.8-2.3-2.3v-5.5h3.4v-1.5h-3.4v-2.3h-0.3l-3.4,3.5v0.3h1.9v5.5
			c0,2.3,1.4,3.8,3.8,3.8h1.4v-1.6H874.7z"/>
		<path class="st5" d="M888.4,523.2c3.3,0,5.7-2.4,5.7-5.7c0-3.2-2.5-5.6-5.7-5.6c-3.3,0-5.8,2.4-5.8,5.6
			C882.6,520.8,885.1,523.2,888.4,523.2z M888.4,521.6c-2.3,0-4-1.7-4-4c0-2.3,1.7-4,4-4c2.3,0,4,1.7,4,4
			C892.4,519.9,890.7,521.6,888.4,521.6z"/>
		<path class="st5" d="M902.1,511.9c-1.7,0-3.1,0.7-3.9,1.9l-0.3-1.7h-1.2V523h1.7v-5.9c0-2,1.4-3.6,3.3-3.6c1.9,0,2.9,1.2,2.9,3.4
			v6.1h1.7v-6.5C906.3,513.8,904.7,511.9,902.1,511.9z"/>
		<path class="st5" d="M919.7,517.6c0-3.2-2.2-5.7-5.5-5.7c-3.2,0-5.5,2.4-5.5,5.6c0,3.2,2.4,5.7,5.5,5.7c2.3,0,4.3-1.3,5.2-3.5
			h-1.8c-0.7,1.2-1.9,1.9-3.4,1.9c-2,0-3.6-1.3-3.8-3.3h9.2C919.7,518,919.7,517.8,919.7,517.6z M914.3,513.5c1.9,0,3.4,1.2,3.8,3.1
			h-7.5C910.8,514.8,912.3,513.5,914.3,513.5z"/>
		<path class="st5" d="M932.4,523.2c3.3,0,5.7-2.4,5.7-5.7c0-3.2-2.5-5.6-5.7-5.6c-3.3,0-5.8,2.4-5.8,5.6
			C926.7,520.8,929.1,523.2,932.4,523.2z M932.4,521.6c-2.3,0-4-1.7-4-4c0-2.3,1.7-4,4-4c2.3,0,4,1.7,4,4
			C936.4,519.9,934.7,521.6,932.4,521.6z"/>
		<path class="st5" d="M946.5,511.9c-1.7,0-3.2,0.7-4.2,1.9l-0.3-1.7h-1.2v14.7h1.7v-5.3c1,1.1,2.4,1.7,4.1,1.7
			c3.2,0,5.6-2.4,5.6-5.7S949.8,511.9,946.5,511.9z M946.4,521.6c-2.3,0-4-1.7-4-4c0-2.3,1.7-4,4-4c2.3,0,4,1.7,4,4
			C950.4,519.9,948.7,521.6,946.4,521.6z"/>
		<path class="st5" d="M959,521.4c-1.5,0-2.3-0.8-2.3-2.3v-5.5h3.4v-1.5h-3.4v-2.3h-0.3l-3.4,3.5v0.3h1.9v5.5c0,2.3,1.4,3.8,3.8,3.8
			h1.4v-1.6H959z"/>
		<path class="st5" d="M962.5,510.3h1.8v-1.9h-1.8V510.3z M962.5,523h1.7v-10.8h-1.7V523z"/>
		<path class="st5" d="M972.6,523.2c3.3,0,5.7-2.4,5.7-5.7c0-3.2-2.5-5.6-5.7-5.6c-3.3,0-5.8,2.4-5.8,5.6
			C966.8,520.8,969.3,523.2,972.6,523.2z M972.6,521.6c-2.3,0-4-1.7-4-4c0-2.3,1.7-4,4-4c2.3,0,4,1.7,4,4
			C976.5,519.9,974.9,521.6,972.6,521.6z"/>
		<path class="st5" d="M986.3,511.9c-1.7,0-3.1,0.7-3.9,1.9l-0.3-1.7h-1.2V523h1.7v-5.9c0-2,1.4-3.6,3.3-3.6c1.9,0,2.9,1.2,2.9,3.4
			v6.1h1.7v-6.5C990.5,513.8,988.9,511.9,986.3,511.9z"/>
		<path class="st5" d="M993.4,523h1.9v-2.1h-1.9V523z"/>
		<path class="st2" d="M782.6,696.3c3.3,0,6.1-1.7,6.1-5.1c0-3.6-3.1-4.4-5.5-5c-1.7-0.4-3.1-0.8-3.1-1.9c0-1.1,1.1-1.5,2.2-1.5
			c1.3,0,2.5,0.6,2.5,2h3.4c0-3.2-2.1-5.2-5.8-5.2c-3.6,0-5.8,1.7-5.8,4.8c0,3.5,2.9,4.2,5.4,4.8c1.7,0.4,3.2,0.7,3.2,2
			c0,1.2-1.3,1.9-2.6,1.9c-1.4,0-2.7-0.8-2.7-2.3h-3.5C776.4,694.3,778.9,696.3,782.6,696.3z"/>
		<path class="st2" d="M796.9,693c-1.2,0-1.9-0.7-1.9-1.9v-4.8h3.4v-2.7H795v-3.2h-0.6l-4.9,5.2v0.7h2.2v5.3c0,2.7,1.7,4.4,4.4,4.4
			h2.4v-3H796.9z"/>
		<path class="st2" d="M806.8,683.6c-1.6,0-2.7,0.5-3.6,1.6l-0.6-1.5h-2.1V696h3.4v-6.4c0-2,0.7-2.9,2.6-2.9h1.5v-3.2H806.8z"/>
		<path class="st2" d="M815.2,696.4c3.8,0,6.7-2.8,6.7-6.6c0-3.7-2.9-6.5-6.7-6.5s-6.7,2.8-6.7,6.5
			C808.5,693.6,811.4,696.4,815.2,696.4z M815.2,693.2c-1.9,0-3.3-1.4-3.3-3.4c0-2,1.4-3.4,3.3-3.4s3.3,1.4,3.3,3.4
			C818.5,691.9,817.2,693.2,815.2,693.2z"/>
		<path class="st2" d="M831.2,683.4c-1.7,0-3.2,0.7-4.1,1.8l-0.6-1.5h-2.3V696h3.4v-6.5c0-2,1.1-3.2,2.8-3.2c1.4,0,2.2,0.9,2.2,2.8
			v7h3.4v-7.5C835.8,685.4,834,683.4,831.2,683.4z"/>
		<path class="st2" d="M848.6,683.6l-0.6,1.2c-1.1-1-2.5-1.6-4.1-1.6c-3.5,0-6.2,2.8-6.2,6.2c0,3.5,2.7,6.2,6.2,6.2
			c1.3,0,2.5-0.4,3.5-1.1v0.5c0,1.8-1.4,2.9-3.1,2.9c-1.2,0-2.5-0.6-2.9-1.7h-3.3c0.6,2.8,3,4.5,6.3,4.5c3.9,0,6.3-2.4,6.3-6.2
			v-10.9L848.6,683.6z M844.3,692.7c-1.8,0-3.2-1.4-3.2-3.2c0-1.9,1.3-3.2,3.2-3.2c1.8,0,3.2,1.4,3.2,3.2
			C847.5,691.4,846.2,692.7,844.3,692.7z"/>
		<path class="st2" d="M853.8,696h3.4v-16.8h-3.4V696z"/>
		<path class="st2" d="M868.7,683.6l-3.1,7.6l-3.3-7.6h-3.6l5.3,11.5l0,0.1c-0.8,1.9-1.2,2.3-2.8,2.3h-1.1v3h1.4
			c2.8,0,4.1-1.3,5.6-4.6l5.4-12.2H868.7z"/>
		<path class="st2" d="M888.5,683.6l-0.3,1.2c-1.1-0.9-2.5-1.5-4.1-1.5c-3.7,0-6.5,2.8-6.5,6.5c0,3.7,2.8,6.6,6.5,6.6
			c1.6,0,3-0.6,4-1.5l0.3,1.1h2.6v-12.4H888.5z M884.3,693.2c-2,0-3.4-1.5-3.4-3.4c0-2,1.4-3.4,3.4-3.4s3.4,1.4,3.4,3.4
			C887.7,691.8,886.3,693.2,884.3,693.2z"/>
		<path class="st2" d="M904,683.6l-0.6,1.2c-1.1-1-2.5-1.6-4.1-1.6c-3.5,0-6.2,2.8-6.2,6.2c0,3.5,2.7,6.2,6.2,6.2
			c1.3,0,2.5-0.4,3.5-1.1v0.5c0,1.8-1.4,2.9-3.1,2.9c-1.2,0-2.5-0.6-2.9-1.7h-3.3c0.6,2.8,3,4.5,6.3,4.5c3.9,0,6.3-2.4,6.3-6.2
			v-10.9L904,683.6z M899.7,692.7c-1.8,0-3.2-1.4-3.2-3.2c0-1.9,1.3-3.2,3.2-3.2c1.8,0,3.2,1.4,3.2,3.2
			C902.9,691.4,901.5,692.7,899.7,692.7z"/>
		<path class="st2" d="M915.5,683.6c-1.6,0-2.7,0.5-3.6,1.6l-0.6-1.5h-2.1V696h3.4v-6.4c0-2,0.7-2.9,2.6-2.9h1.5v-3.2H915.5z"/>
		<path class="st2" d="M930,689.8c0-3.6-2.6-6.5-6.4-6.5c-3.7,0-6.4,2.8-6.4,6.5c0,3.7,2.8,6.6,6.4,6.6c2.9,0,5.3-1.7,6.2-4.4h-3.5
			c-0.5,0.9-1.5,1.4-2.6,1.4c-1.6,0-2.7-0.9-3-2.6h9.4C930,690.5,930,690.1,930,689.8z M923.6,686.2c1.5,0,2.6,0.8,3.1,2.3h-6
			C921,687,922.1,686.2,923.6,686.2z"/>
		<path class="st2" d="M944.2,689.8c0-3.6-2.6-6.5-6.4-6.5c-3.7,0-6.4,2.8-6.4,6.5c0,3.7,2.8,6.6,6.4,6.6c2.9,0,5.3-1.7,6.2-4.4
			h-3.5c-0.5,0.9-1.5,1.4-2.6,1.4c-1.6,0-2.7-0.9-3-2.6h9.4C944.2,690.5,944.2,690.1,944.2,689.8z M937.8,686.2
			c1.5,0,2.6,0.8,3.1,2.3h-6C935.2,687,936.3,686.2,937.8,686.2z"/>
		<path class="st4" d="M1179.5,690c0,10.3-8.3,18.6-18.6,18.6s-18.6-8.3-18.6-18.6c0-10.3,8.3-18.6,18.6-18.6
			S1179.5,679.7,1179.5,690z"/>
		<path class="st6" d="M1160.8,707.2c9.5,0,17.2-7.7,17.2-17.2s-7.7-17.2-17.2-17.2c-9.5,0-17.2,7.7-17.2,17.2
			S1151.3,707.2,1160.8,707.2z M1160.8,708.7c10.3,0,18.6-8.3,18.6-18.6c0-10.3-8.3-18.6-18.6-18.6s-18.6,8.3-18.6,18.6
			C1142.2,700.3,1150.5,708.7,1160.8,708.7z"/>
		<path class="st3" d="M1168.7,684.9c0.4,0.4,0.4,1.1,0,1.5l-10,10c-0.2,0.2-0.5,0.3-0.8,0.3c-0.3,0-0.6-0.1-0.8-0.3l-4.3-4.4
			c-0.4-0.4-0.4-1.1,0-1.5c0.4-0.4,1.1-0.4,1.5,0l3.6,3.6l9.2-9.3C1167.6,684.5,1168.3,684.5,1168.7,684.9z"/>
		<path class="st7" d="M753.4,640.5h449c4.4,0,7.9,3.5,7.9,7.9v83.2c0,4.4-3.5,7.9-7.9,7.9h-449c-4.4,0-7.9-3.5-7.9-7.9v-83.2
			C745.5,644.1,749.1,640.5,753.4,640.5z"/>
		<path class="st2" d="M789.4,810.5h2.2l-6.7-16.1h-1.9l-6.6,16.1h2.1l1.6-3.8h7.7L789.4,810.5z M783.9,797.2l3.1,7.6h-6.2
			L783.9,797.2z"/>
		<path class="st2" d="M803.5,798.1l-0.3,1.9c-1.1-1.4-2.8-2.2-4.8-2.2c-3.4,0-6.1,2.7-6.1,6.1c0,3.5,2.6,6.1,6.1,6.1
			c1.8,0,3.4-0.7,4.5-1.8v0.8c0,2.8-1.7,4.4-4.2,4.4c-1.8,0-3.4-0.9-3.9-2.4h-2c0.7,2.6,2.8,4.2,5.9,4.2c3.8,0,6.1-2.4,6.1-6.4
			v-10.6L803.5,798.1z M798.6,808.2c-2.5,0-4.3-1.8-4.3-4.3c0-2.4,1.8-4.3,4.3-4.3c2.5,0,4.3,1.8,4.3,4.3
			C802.9,806.4,801.1,808.2,798.6,808.2z"/>
		<path class="st2" d="M814.2,798c-1.8,0-3.1,0.7-4,2l-0.3-1.9h-1.4v12.4h2v-6.7c0-2.4,1.3-3.9,3.6-3.9h1.3V798H814.2z"/>
		<path class="st2" d="M828.4,804.3c0-3.6-2.5-6.5-6.2-6.5c-3.6,0-6.3,2.8-6.3,6.4c0,3.7,2.7,6.5,6.3,6.5c2.7,0,4.9-1.5,5.9-4H826
			c-0.8,1.3-2.1,2.1-3.9,2.1c-2.3,0-4.1-1.5-4.4-3.8h10.6C828.3,804.8,828.4,804.6,828.4,804.3z M822.1,799.6c2.2,0,3.9,1.4,4.3,3.6
			h-8.6C818.2,801.1,819.9,799.6,822.1,799.6z"/>
		<path class="st2" d="M842.6,804.3c0-3.6-2.5-6.5-6.2-6.5c-3.6,0-6.3,2.8-6.3,6.4c0,3.7,2.7,6.5,6.3,6.5c2.7,0,4.9-1.5,5.9-4h-2.1
			c-0.8,1.3-2.1,2.1-3.9,2.1c-2.3,0-4.1-1.5-4.4-3.8h10.6C842.6,804.8,842.6,804.6,842.6,804.3z M836.4,799.6c2.2,0,3.9,1.4,4.3,3.6
			h-8.6C832.5,801.1,834.1,799.6,836.4,799.6z"/>
		<path class="st0" d="M1011,804.8c0,10.3-8.4,18.6-18.6,18.6c-10.3,0-18.6-8.3-18.6-18.6s8.3-18.6,18.6-18.6
			C1002.7,786.1,1011,794.5,1011,804.8z"/>
		<path class="st3" d="M1160.8,822c9.5,0,17.2-7.7,17.2-17.2s-7.7-17.2-17.2-17.2c-9.5,0-17.2,7.7-17.2,17.2S1151.3,822,1160.8,822z
			 M1160.8,823.4c10.3,0,18.6-8.3,18.6-18.6s-8.3-18.6-18.6-18.6s-18.6,8.3-18.6,18.6S1150.5,823.4,1160.8,823.4z"/>
		<path class="st8" d="M753.4,755.3h449c4.4,0,7.9,3.5,7.9,7.9v83.2c0,4.4-3.5,7.9-7.9,7.9h-449c-4.4,0-7.9-3.5-7.9-7.9v-83.2
			C745.5,758.8,749.1,755.3,753.4,755.3z"/>
		<path class="st2" d="M787.2,909.5v12.4l-9-12.4h-1.8v16.1h2V913l9.1,12.5h1.7v-16.1H787.2z"/>
		<path class="st2" d="M804.5,919.5c0-3.6-2.5-6.5-6.2-6.5c-3.6,0-6.3,2.8-6.3,6.4c0,3.7,2.7,6.5,6.3,6.5c2.7,0,4.9-1.5,5.9-4h-2.1
			c-0.8,1.3-2.1,2.1-3.9,2.1c-2.3,0-4.1-1.5-4.4-3.8h10.6C804.5,919.9,804.5,919.7,804.5,919.5z M798.3,914.8c2.2,0,3.9,1.4,4.3,3.6
			h-8.6C794.3,916.2,796,914.8,798.3,914.8z"/>
		<path class="st2" d="M807.1,911.1h2.1v-2.2h-2.1V911.1z M807.2,925.6h2v-12.4h-2V925.6z"/>
		<path class="st2" d="M818,923.8c-1.7,0-2.6-0.9-2.6-2.6V915h3.9v-1.8h-3.9v-2.6h-0.3l-3.8,4v0.3h2.2v6.3c0,2.7,1.7,4.3,4.3,4.3
			h1.6v-1.8H818z"/>
		<path class="st2" d="M827.9,912.9c-1.8,0-3.3,0.7-4.2,2v-6.1h-2v16.8h2v-6.7c0-2.3,1.6-4.1,3.8-4.1c2.1,0,3.3,1.4,3.3,3.9v7h2
			v-7.4C832.7,915,830.9,912.9,827.9,912.9z"/>
		<path class="st2" d="M847.8,919.5c0-3.6-2.5-6.5-6.2-6.5c-3.6,0-6.3,2.8-6.3,6.4c0,3.7,2.7,6.5,6.3,6.5c2.7,0,4.9-1.5,5.9-4h-2.1
			c-0.8,1.3-2.1,2.1-3.9,2.1c-2.3,0-4.1-1.5-4.4-3.8h10.6C847.8,919.9,847.8,919.7,847.8,919.5z M841.5,914.8c2.2,0,3.9,1.4,4.3,3.6
			h-8.6C837.6,916.2,839.3,914.8,841.5,914.8z"/>
		<path class="st2" d="M856.1,913.1c-1.8,0-3.1,0.7-4,2l-0.3-1.9h-1.4v12.4h2v-6.7c0-2.4,1.3-3.9,3.6-3.9h1.3v-1.8H856.1z"/>
		<path class="st2" d="M874.8,913.2l-0.3,1.9c-1.1-1.4-2.9-2.2-4.9-2.2c-3.7,0-6.4,2.8-6.4,6.5c0,3.7,2.8,6.4,6.4,6.4
			c2,0,3.7-0.8,4.9-2.1l0.2,1.9h1.6v-12.4H874.8z M869.8,924c-2.6,0-4.6-2-4.6-4.6c0-2.6,2-4.6,4.6-4.6c2.6,0,4.5,2,4.5,4.6
			C874.3,922,872.4,924,869.8,924z"/>
		<path class="st2" d="M890.3,913.2l-0.3,1.9c-1.1-1.4-2.8-2.2-4.8-2.2c-3.4,0-6.1,2.7-6.1,6.1c0,3.5,2.6,6.1,6.1,6.1
			c1.8,0,3.4-0.7,4.5-1.8v0.8c0,2.8-1.7,4.4-4.2,4.4c-1.8,0-3.4-0.9-3.9-2.4h-2c0.7,2.6,2.8,4.2,5.9,4.2c3.8,0,6.1-2.4,6.1-6.4
			v-10.6L890.3,913.2z M885.4,923.3c-2.5,0-4.3-1.8-4.3-4.3c0-2.4,1.8-4.3,4.3-4.3c2.5,0,4.3,1.8,4.3,4.3
			C889.7,921.5,887.9,923.3,885.4,923.3z"/>
		<path class="st2" d="M900.9,913.1c-1.8,0-3.1,0.7-4,2l-0.3-1.9h-1.4v12.4h2v-6.7c0-2.4,1.3-3.9,3.6-3.9h1.3v-1.8H900.9z"/>
		<path class="st2" d="M915.1,919.5c0-3.6-2.5-6.5-6.2-6.5c-3.6,0-6.3,2.8-6.3,6.4c0,3.7,2.7,6.5,6.3,6.5c2.7,0,4.9-1.5,5.9-4h-2.1
			c-0.8,1.3-2.1,2.1-3.9,2.1c-2.3,0-4.1-1.5-4.4-3.8h10.6C915.1,919.9,915.1,919.7,915.1,919.5z M908.9,914.8c2.2,0,3.9,1.4,4.3,3.6
			h-8.6C904.9,916.2,906.6,914.8,908.9,914.8z"/>
		<path class="st2" d="M929.4,919.5c0-3.6-2.5-6.5-6.2-6.5c-3.6,0-6.3,2.8-6.3,6.4c0,3.7,2.7,6.5,6.3,6.5c2.7,0,4.9-1.5,5.9-4H927
			c-0.8,1.3-2.1,2.1-3.9,2.1c-2.3,0-4.1-1.5-4.4-3.8h10.6C929.4,919.9,929.4,919.7,929.4,919.5z M923.1,914.8c2.2,0,3.9,1.4,4.3,3.6
			h-8.6C919.2,916.2,920.9,914.8,923.1,914.8z"/>
		<path class="st2" d="M943.4,925.9c3.7,0,6.6-2.8,6.6-6.5c0-3.7-2.8-6.4-6.6-6.4c-3.8,0-6.6,2.7-6.6,6.4S939.7,925.9,943.4,925.9z
			 M943.4,924c-2.7,0-4.6-1.9-4.6-4.6c0-2.6,1.9-4.6,4.6-4.6c2.6,0,4.6,1.9,4.6,4.6C948,922,946.1,924,943.4,924z"/>
		<path class="st2" d="M958.4,913.1c-1.8,0-3.1,0.7-4,2l-0.3-1.9h-1.4v12.4h2v-6.7c0-2.4,1.3-3.9,3.6-3.9h1.3v-1.8H958.4z"/>
		<path class="st2" d="M976.5,908.8v6c-1.1-1.1-2.8-1.8-4.6-1.8c-3.7,0-6.4,2.8-6.4,6.5c0,3.7,2.7,6.4,6.4,6.4c2,0,3.6-0.8,4.8-2
			l0.3,1.8h1.5v-16.8H976.5z M972,924c-2.6,0-4.5-2-4.5-4.6c0-2.6,1.9-4.6,4.5-4.6c2.6,0,4.6,2,4.6,4.6C976.6,922,974.7,924,972,924
			z"/>
		<path class="st2" d="M982.1,911.1h2.1v-2.2h-2.1V911.1z M982.2,925.6h2v-12.4h-2V925.6z"/>
		<path class="st2" d="M991.7,925.9c2.9,0,4.9-1.5,4.9-3.8c0-3-2.5-3.4-4.7-3.8c-1.7-0.3-3.1-0.5-3.1-1.8c0-1.1,1.1-1.8,2.7-1.8
			c1.7,0,2.8,0.7,2.9,2.1h1.8c-0.1-2.3-1.9-3.8-4.7-3.8c-2.8,0-4.7,1.4-4.7,3.6c0,2.8,2.4,3.2,4.5,3.6c1.7,0.3,3.2,0.6,3.2,2
			c0,1.2-1.2,1.9-2.9,1.9c-1.7,0-3-0.8-3.1-2.3h-1.9C986.9,924.3,988.8,925.9,991.7,925.9z"/>
		<path class="st2" d="M1009.9,913.2l-0.3,1.9c-1.1-1.4-2.9-2.2-4.9-2.2c-3.7,0-6.4,2.8-6.4,6.5c0,3.7,2.8,6.4,6.4,6.4
			c2,0,3.7-0.8,4.9-2.1l0.2,1.9h1.6v-12.4H1009.9z M1004.9,924c-2.6,0-4.6-2-4.6-4.6c0-2.6,2-4.6,4.6-4.6c2.6,0,4.5,2,4.5,4.6
			C1009.5,922,1007.6,924,1004.9,924z"/>
		<path class="st2" d="M1025.4,913.2l-0.3,1.9c-1.1-1.4-2.8-2.2-4.8-2.2c-3.4,0-6.1,2.7-6.1,6.1c0,3.5,2.6,6.1,6.1,6.1
			c1.8,0,3.4-0.7,4.5-1.8v0.8c0,2.8-1.7,4.4-4.2,4.4c-1.8,0-3.4-0.9-3.9-2.4h-2c0.7,2.6,2.8,4.2,5.9,4.2c3.8,0,6.1-2.4,6.1-6.4
			v-10.6L1025.4,913.2z M1020.5,923.3c-2.5,0-4.3-1.8-4.3-4.3c0-2.4,1.8-4.3,4.3-4.3s4.3,1.8,4.3,4.3
			C1024.8,921.5,1023,923.3,1020.5,923.3z"/>
		<path class="st2" d="M1036.1,913.1c-1.8,0-3.1,0.7-4,2l-0.3-1.9h-1.4v12.4h2v-6.7c0-2.4,1.3-3.9,3.6-3.9h1.3v-1.8H1036.1z"/>
		<path class="st2" d="M1050.2,919.5c0-3.6-2.5-6.5-6.2-6.5c-3.6,0-6.3,2.8-6.3,6.4c0,3.7,2.7,6.5,6.3,6.5c2.7,0,4.9-1.5,5.9-4h-2.1
			c-0.8,1.3-2.1,2.1-3.9,2.1c-2.3,0-4.1-1.5-4.4-3.8h10.6C1050.2,919.9,1050.2,919.7,1050.2,919.5z M1044,914.8
			c2.2,0,3.9,1.4,4.3,3.6h-8.6C1040.1,916.2,1041.7,914.8,1044,914.8z"/>
		<path class="st2" d="M1064.5,919.5c0-3.6-2.5-6.5-6.2-6.5c-3.6,0-6.3,2.8-6.3,6.4c0,3.7,2.7,6.5,6.3,6.5c2.7,0,4.9-1.5,5.9-4h-2.1
			c-0.8,1.3-2.1,2.1-3.9,2.1c-2.3,0-4.1-1.5-4.4-3.8h10.6C1064.5,919.9,1064.5,919.7,1064.5,919.5z M1058.3,914.8
			c2.2,0,3.9,1.4,4.3,3.6h-8.6C1054.3,916.2,1056,914.8,1058.3,914.8z"/>
		<path class="st0" d="M1122,919.5c0,10.3-8.4,18.6-18.6,18.6c-10.3,0-18.6-8.3-18.6-18.6c0-10.3,8.3-18.6,18.6-18.6
			C1113.6,900.9,1122,909.2,1122,919.5z"/>
		<path class="st3" d="M1160.8,936.7c9.5,0,17.2-7.7,17.2-17.2c0-9.5-7.7-17.2-17.2-17.2c-9.5,0-17.2,7.7-17.2,17.2
			C1143.6,929,1151.3,936.7,1160.8,936.7z M1160.8,938.2c10.3,0,18.6-8.3,18.6-18.6c0-10.3-8.3-18.6-18.6-18.6s-18.6,8.3-18.6,18.6
			C1142.2,929.8,1150.5,938.2,1160.8,938.2z"/>
		<path class="st8" d="M753.4,870h449c4.4,0,7.9,3.5,7.9,7.9v83.2c0,4.4-3.5,7.9-7.9,7.9h-449c-4.4,0-7.9-3.5-7.9-7.9v-83.2
			C745.5,873.6,749.1,870,753.4,870z"/>
		<path class="st2" d="M781.7,1024.3h-5.3v16.1h5.3c4.7,0,8.1-3.4,8.1-8C789.9,1027.6,786.4,1024.3,781.7,1024.3L781.7,1024.3z
			 M781.7,1038.4h-3.3v-12.3h3.3c3.6,0,6.2,2.6,6.2,6.1C787.8,1035.8,785.3,1038.4,781.7,1038.4z"/>
		<path class="st2" d="M792.6,1025.8h2.1v-2.2h-2.1V1025.8z M792.6,1040.3h2v-12.4h-2V1040.3z"/>
		<path class="st2" d="M802.2,1040.6c2.9,0,4.9-1.5,4.9-3.8c0-3-2.5-3.4-4.7-3.8c-1.7-0.3-3.1-0.5-3.1-1.8c0-1.1,1.1-1.8,2.7-1.8
			c1.7,0,2.8,0.7,2.9,2.1h1.8c-0.1-2.3-1.9-3.8-4.7-3.8c-2.8,0-4.7,1.4-4.7,3.6c0,2.8,2.4,3.2,4.5,3.6c1.7,0.3,3.2,0.6,3.2,2
			c0,1.2-1.2,1.9-2.9,1.9c-1.7,0-3-0.8-3.1-2.3h-1.9C797.3,1039,799.3,1040.6,802.2,1040.6z"/>
		<path class="st2" d="M820.4,1027.9l-0.3,1.9c-1.1-1.4-2.9-2.2-4.9-2.2c-3.7,0-6.4,2.8-6.4,6.5c0,3.7,2.8,6.4,6.4,6.4
			c2,0,3.7-0.8,4.9-2.1l0.2,1.9h1.6v-12.4H820.4z M815.4,1038.7c-2.6,0-4.6-2-4.6-4.6c0-2.6,2-4.6,4.6-4.6c2.6,0,4.5,2,4.5,4.6
			C819.9,1036.8,818,1038.7,815.4,1038.7z"/>
		<path class="st2" d="M835.9,1027.9l-0.3,1.9c-1.1-1.4-2.8-2.2-4.8-2.2c-3.4,0-6.1,2.7-6.1,6.1c0,3.5,2.6,6.1,6.1,6.1
			c1.8,0,3.4-0.7,4.5-1.8v0.8c0,2.8-1.7,4.4-4.2,4.4c-1.8,0-3.4-0.9-3.9-2.4h-2c0.7,2.6,2.8,4.2,5.9,4.2c3.8,0,6.1-2.4,6.1-6.4
			v-10.6L835.9,1027.9z M830.9,1038.1c-2.5,0-4.3-1.8-4.3-4.3c0-2.4,1.8-4.3,4.3-4.3c2.5,0,4.3,1.8,4.3,4.3
			C835.2,1036.3,833.4,1038.1,830.9,1038.1z"/>
		<path class="st2" d="M846.5,1027.9c-1.8,0-3.1,0.7-4,2l-0.3-1.9h-1.4v12.4h2v-6.7c0-2.4,1.3-3.9,3.6-3.9h1.3v-1.8H846.5z"/>
		<path class="st2" d="M860.7,1034.2c0-3.6-2.5-6.5-6.2-6.5c-3.6,0-6.3,2.8-6.3,6.4c0,3.7,2.7,6.5,6.3,6.5c2.7,0,4.9-1.5,5.9-4h-2.1
			c-0.8,1.3-2.1,2.1-3.9,2.1c-2.3,0-4.1-1.5-4.4-3.8h10.6C860.7,1034.6,860.7,1034.4,860.7,1034.2z M854.4,1029.5
			c2.2,0,3.9,1.4,4.3,3.6h-8.6C850.5,1030.9,852.2,1029.5,854.4,1029.5z"/>
		<path class="st2" d="M875,1034.2c0-3.6-2.5-6.5-6.2-6.5c-3.6,0-6.3,2.8-6.3,6.4c0,3.7,2.7,6.5,6.3,6.5c2.7,0,4.9-1.5,5.9-4h-2.1
			c-0.8,1.3-2.1,2.1-3.9,2.1c-2.3,0-4.1-1.5-4.4-3.8h10.6C874.9,1034.6,875,1034.4,875,1034.2z M868.7,1029.5c2.2,0,3.9,1.4,4.3,3.6
			h-8.6C864.8,1030.9,866.5,1029.5,868.7,1029.5z"/>
		<path class="st0" d="M1027.2,1034.3c0,10.3-8.3,18.6-18.6,18.6s-18.6-8.3-18.6-18.6s8.3-18.6,18.6-18.6S1027.2,1024,1027.2,1034.3
			z"/>
		<path class="st3" d="M1160.8,1051.5c9.5,0,17.2-7.7,17.2-17.2c0-9.5-7.7-17.2-17.2-17.2c-9.5,0-17.2,7.7-17.2,17.2
			C1143.6,1043.8,1151.3,1051.5,1160.8,1051.5z M1160.8,1052.9c10.3,0,18.6-8.3,18.6-18.6s-8.3-18.6-18.6-18.6s-18.6,8.3-18.6,18.6
			S1150.5,1052.9,1160.8,1052.9z"/>
		<path class="st8" d="M753.4,984.8h449c4.4,0,7.9,3.5,7.9,7.9v83.2c0,4.4-3.5,7.9-7.9,7.9h-449c-4.4,0-7.9-3.5-7.9-7.9v-83.2
			C745.5,988.3,749.1,984.8,753.4,984.8z"/>
		<path class="st2" d="M782.3,1155.3c3.2,0,5.7-1.7,5.7-4.8c0-3.4-2.8-4-5.4-4.6c-2.1-0.5-3.9-0.9-3.9-2.7c0-1.5,1.5-2.5,3.4-2.5
			s3.4,1,3.4,2.8h2c0-2.9-2-4.8-5.4-4.8c-3.3,0-5.5,1.7-5.5,4.5c0,3.2,2.7,3.9,5.2,4.5c2.1,0.5,4,0.9,4,2.8c0,1.7-1.6,2.8-3.6,2.8
			c-2.2,0-3.9-1.2-3.9-3.2h-2.1C776.4,1153.3,778.8,1155.3,782.3,1155.3z"/>
		<path class="st2" d="M795.9,1153.3c-1.7,0-2.6-0.9-2.6-2.6v-6.2h3.9v-1.8h-3.9v-2.6H793l-3.8,4v0.3h2.2v6.3c0,2.7,1.7,4.3,4.3,4.3
			h1.6v-1.8H795.9z"/>
		<path class="st2" d="M805.3,1142.7c-1.8,0-3.1,0.7-4,2l-0.3-1.9h-1.4v12.4h2v-6.7c0-2.4,1.3-3.9,3.6-3.9h1.3v-1.8H805.3z"/>
		<path class="st2" d="M813.5,1155.4c3.7,0,6.6-2.8,6.6-6.5c0-3.7-2.8-6.4-6.6-6.4c-3.8,0-6.6,2.7-6.6,6.4
			C806.9,1152.6,809.7,1155.4,813.5,1155.4z M813.5,1153.5c-2.7,0-4.6-1.9-4.6-4.6c0-2.6,1.9-4.6,4.6-4.6c2.6,0,4.6,1.9,4.6,4.6
			C818,1151.6,816.1,1153.5,813.5,1153.5z"/>
		<path class="st2" d="M829,1142.5c-1.9,0-3.5,0.8-4.4,2.2l-0.4-2h-1.4v12.4h2v-6.7c0-2.3,1.6-4.1,3.8-4.1s3.3,1.4,3.3,3.9v7h2v-7.4
			C833.8,1144.7,831.9,1142.5,829,1142.5z"/>
		<path class="st2" d="M847.5,1142.7l-0.3,1.9c-1.1-1.4-2.8-2.2-4.8-2.2c-3.4,0-6.1,2.7-6.1,6.1c0,3.5,2.6,6.1,6.1,6.1
			c1.8,0,3.4-0.7,4.5-1.8v0.8c0,2.8-1.7,4.4-4.2,4.4c-1.8,0-3.4-0.9-3.9-2.4h-2c0.7,2.6,2.8,4.2,5.9,4.2c3.8,0,6.1-2.4,6.1-6.4
			v-10.6L847.5,1142.7z M842.6,1152.9c-2.5,0-4.3-1.8-4.3-4.3s1.8-4.3,4.3-4.3s4.3,1.8,4.3,4.3S845.1,1152.9,842.6,1152.9z"/>
		<path class="st2" d="M852.5,1155.1h2v-16.8h-2V1155.1z"/>
		<path class="st2" d="M867.2,1142.7l-4.2,9.4l-4.4-9.4h-2.1l5.5,11.6l-0.4,0.9c-1,2.1-1.6,2.6-3.3,2.6h-1v1.8h1.2
			c2.3,0,3.5-1,4.8-3.9l5.9-12.9H867.2z"/>
		<path class="st2" d="M886.5,1138.3v6c-1.1-1.1-2.8-1.8-4.6-1.8c-3.7,0-6.4,2.8-6.4,6.5c0,3.7,2.7,6.4,6.4,6.4c2,0,3.6-0.8,4.8-2
			l0.3,1.8h1.5v-16.8H886.5z M882.1,1153.5c-2.6,0-4.5-2-4.5-4.6c0-2.6,1.9-4.6,4.5-4.6c2.6,0,4.6,2,4.6,4.6
			C886.6,1151.5,884.7,1153.5,882.1,1153.5z"/>
		<path class="st2" d="M892.1,1140.6h2.1v-2.2h-2.1V1140.6z M892.2,1155.1h2v-12.4h-2V1155.1z"/>
		<path class="st2" d="M901.8,1155.4c2.9,0,4.9-1.5,4.9-3.8c0-3-2.5-3.4-4.7-3.8c-1.7-0.3-3.1-0.5-3.1-1.8c0-1.1,1.1-1.8,2.7-1.8
			c1.7,0,2.8,0.7,2.9,2.1h1.8c-0.1-2.3-1.9-3.8-4.7-3.8c-2.8,0-4.7,1.4-4.7,3.6c0,2.8,2.4,3.2,4.5,3.6c1.7,0.3,3.2,0.6,3.2,2
			c0,1.2-1.2,1.9-2.9,1.9c-1.7,0-3-0.8-3.1-2.3h-1.9C896.9,1153.8,898.8,1155.4,901.8,1155.4z"/>
		<path class="st2" d="M919.9,1142.7l-0.3,1.9c-1.1-1.4-2.9-2.2-4.9-2.2c-3.7,0-6.4,2.8-6.4,6.5c0,3.7,2.8,6.4,6.4,6.4
			c2,0,3.7-0.8,4.9-2.1l0.2,1.9h1.6v-12.4H919.9z M914.9,1153.5c-2.6,0-4.6-2-4.6-4.6c0-2.6,2-4.6,4.6-4.6c2.6,0,4.5,2,4.5,4.6
			C919.5,1151.5,917.6,1153.5,914.9,1153.5z"/>
		<path class="st2" d="M935.4,1142.7l-0.3,1.9c-1.1-1.4-2.8-2.2-4.8-2.2c-3.4,0-6.1,2.7-6.1,6.1c0,3.5,2.6,6.1,6.1,6.1
			c1.8,0,3.4-0.7,4.5-1.8v0.8c0,2.8-1.7,4.4-4.2,4.4c-1.8,0-3.4-0.9-3.9-2.4h-2c0.7,2.6,2.8,4.2,5.9,4.2c3.8,0,6.1-2.4,6.1-6.4
			v-10.6L935.4,1142.7z M930.5,1152.9c-2.5,0-4.3-1.8-4.3-4.3s1.8-4.3,4.3-4.3s4.3,1.8,4.3,4.3S933,1152.9,930.5,1152.9z"/>
		<path class="st2" d="M946.1,1142.7c-1.8,0-3.1,0.7-4,2l-0.3-1.9h-1.4v12.4h2v-6.7c0-2.4,1.3-3.9,3.6-3.9h1.3v-1.8H946.1z"/>
		<path class="st2" d="M960.3,1149c0-3.6-2.5-6.5-6.2-6.5c-3.6,0-6.3,2.8-6.3,6.4c0,3.7,2.7,6.5,6.3,6.5c2.7,0,4.9-1.5,5.9-4h-2.1
			c-0.8,1.3-2.1,2.1-3.9,2.1c-2.3,0-4.1-1.5-4.4-3.8h10.6C960.2,1149.4,960.3,1149.2,960.3,1149z M954,1144.3c2.2,0,3.9,1.4,4.3,3.6
			h-8.6C950.1,1145.7,951.8,1144.3,954,1144.3z"/>
		<path class="st2" d="M974.5,1149c0-3.6-2.5-6.5-6.2-6.5c-3.6,0-6.3,2.8-6.3,6.4c0,3.7,2.7,6.5,6.3,6.5c2.7,0,4.9-1.5,5.9-4h-2.1
			c-0.8,1.3-2.1,2.1-3.9,2.1c-2.3,0-4.1-1.5-4.4-3.8h10.6C974.5,1149.4,974.5,1149.2,974.5,1149z M968.3,1144.3
			c2.2,0,3.9,1.4,4.3,3.6H964C964.4,1145.7,966,1144.3,968.3,1144.3z"/>
		<path class="st0" d="M1077,1149.1c0,10.3-8.3,18.6-18.6,18.6c-10.3,0-18.6-8.3-18.6-18.6c0-10.3,8.4-18.6,18.6-18.6
			C1068.6,1130.4,1077,1138.8,1077,1149.1z"/>
		<path class="st3" d="M1160.8,1166.3c9.5,0,17.2-7.7,17.2-17.2c0-9.5-7.7-17.2-17.2-17.2c-9.5,0-17.2,7.7-17.2,17.2
			C1143.6,1158.6,1151.3,1166.3,1160.8,1166.3z M1160.8,1167.7c10.3,0,18.6-8.3,18.6-18.6c0-10.3-8.3-18.6-18.6-18.6
			s-18.6,8.3-18.6,18.6C1142.2,1159.4,1150.5,1167.7,1160.8,1167.7z"/>
		<path class="st8" d="M753.4,1099.6h449c4.4,0,7.9,3.5,7.9,7.9v83.2c0,4.4-3.5,7.9-7.9,7.9h-449c-4.4,0-7.9-3.5-7.9-7.9v-83.2
			C745.5,1103.1,749.1,1099.6,753.4,1099.6z"/>
		<path class="st4" d="M753.4,1235.1h449c4.8,0,8.6,3.9,8.6,8.6v70.2c0,4.8-3.9,8.6-8.6,8.6h-449c-4.8,0-8.6-3.9-8.6-8.6v-70.2
			C744.8,1239,748.7,1235.1,753.4,1235.1z"/>
		<path class="st0" d="M903.5,1267.9v11l-7.9-11H892v18.1h3.8v-11.3l8.2,11.3h3.3v-18.1H903.5z"/>
		<path class="st0" d="M924,1279c0-4-2.9-7.3-7.2-7.3c-4.1,0-7.2,3.2-7.2,7.4c0,4.2,3.1,7.4,7.2,7.4c3.3,0,5.9-1.9,6.9-5h-4
			c-0.6,1-1.7,1.6-3,1.6c-1.8,0-3.1-1.1-3.4-3h10.6C924,1279.7,924,1279.3,924,1279z M916.8,1274.9c1.7,0,2.9,0.9,3.5,2.6h-6.8
			C913.9,1275.8,915.1,1274.9,916.8,1274.9z"/>
		<path class="st0" d="M937.8,1286l-4.8-7.3l4.5-6.6h-4.1l-2.6,4.1l-2.4-4.1h-4.3l4.4,6.8l-4.7,7.2h4.2l2.8-4.6l2.8,4.6H937.8z"/>
		<path class="st0" d="M945.9,1282.6c-1.4,0-2.2-0.8-2.2-2.1v-5.4h3.8v-3h-3.8v-3.6H943l-5.5,5.8v0.8h2.5v5.9c0,3.1,1.9,5,5,5h2.7
			v-3.4H945.9z"/>
		<path class="st0" d="M966.9,1272l-0.6,1.3c-1.2-1.1-2.7-1.7-4.5-1.7c-4.2,0-7.3,3.2-7.3,7.4s3.1,7.4,7.3,7.4
			c1.4,0,2.8-0.4,3.8-1.2v5.8h3.8v-19L966.9,1272z M962.1,1282.8c-2.2,0-3.8-1.7-3.8-3.8c0-2.2,1.6-3.8,3.8-3.8s3.8,1.6,3.8,3.8
			C965.9,1281.2,964.3,1282.8,962.1,1282.8z"/>
		<path class="st0" d="M978.8,1286.4c4,0,6.6-2.5,6.6-6.3v-8.1h-3.8v7.6c0,2-1,3.2-2.8,3.2c-1.7,0-2.8-1.2-2.8-3.2v-7.6h-3.8v8.1
			C972.2,1283.9,974.9,1286.4,978.8,1286.4z"/>
		<path class="st0" d="M1001.8,1279c0-4-2.9-7.3-7.2-7.3c-4.1,0-7.2,3.2-7.2,7.4c0,4.2,3.1,7.4,7.2,7.4c3.3,0,5.9-1.9,6.9-5h-4
			c-0.6,1-1.7,1.6-3,1.6c-1.8,0-3.1-1.1-3.4-3h10.6C1001.8,1279.7,1001.8,1279.3,1001.8,1279z M994.6,1274.9c1.7,0,2.9,0.9,3.5,2.6
			h-6.8C991.7,1275.8,992.9,1274.9,994.6,1274.9z"/>
		<path class="st0" d="M1008.9,1286.4c3.5,0,5.9-1.9,5.9-4.7c0-3.4-2.9-3.9-5.2-4.3c-1.4-0.3-2.6-0.5-2.6-1.4c0-0.8,0.7-1.3,1.9-1.3
			c1.3,0,2.1,0.5,2.1,1.7h3.6c0-2.8-2.2-4.7-5.6-4.7c-3.4,0-5.6,1.8-5.6,4.5c0,3.3,2.8,3.9,5.1,4.3c1.5,0.2,2.7,0.5,2.7,1.5
			c0,0.9-1,1.4-2,1.4c-1.3,0-2.3-0.6-2.3-1.9h-3.7C1003.1,1284.4,1005.4,1286.4,1008.9,1286.4z"/>
		<path class="st0" d="M1023.7,1282.6c-1.4,0-2.2-0.8-2.2-2.1v-5.4h3.8v-3h-3.8v-3.6h-0.7l-5.5,5.8v0.8h2.5v5.9c0,3.1,1.9,5,5,5h2.7
			v-3.4H1023.7z"/>
		<path class="st0" d="M1027.5,1270.2h3.7v-3.5h-3.7V1270.2z M1027.5,1286h3.8V1272h-3.8V1286z"/>
		<path class="st0" d="M1041,1286.4c4.3,0,7.5-3.2,7.5-7.4c0-4.2-3.2-7.4-7.5-7.4c-4.3,0-7.5,3.2-7.5,7.4
			C1033.4,1283.2,1036.6,1286.4,1041,1286.4z M1041,1282.8c-2.2,0-3.7-1.5-3.7-3.8c0-2.2,1.5-3.8,3.7-3.8s3.7,1.6,3.7,3.8
			C1044.7,1281.3,1043.1,1282.8,1041,1282.8z"/>
		<path class="st0" d="M1058.6,1271.7c-1.9,0-3.6,0.8-4.6,2l-0.7-1.7h-2.6v13.9h3.8v-7.3c0-2.2,1.2-3.6,3.1-3.6c1.6,0,2.4,1,2.4,3.1
			v7.8h3.8v-8.4C1063.8,1274,1061.8,1271.7,1058.6,1271.7z"/>
	</g>
	<g>
		<rect x="1313.1" y="218.6" class="st0" width="537.9" height="1164.8"/>
		<path class="st2" d="M1313.1,218.6h537.9v380.1h-537.9V218.6z"/>
		<rect x="1313.1" y="562.8" class="st2" width="537.9" height="35.9"/>
		<path class="st3" d="M1356.6,283.1c0.4,0.5,0.3,1.1-0.1,1.5l-4.8,4l4.8,4.4c0.4,0.4,0.5,1.1,0.1,1.5c-0.4,0.4-1.1,0.5-1.5,0.1
			l-5.7-5.2c-0.2-0.2-0.4-0.5-0.4-0.8c0-0.3,0.1-0.6,0.4-0.8l5.7-4.8C1355.6,282.6,1356.2,282.7,1356.6,283.1z"/>
		<path class="st0" d="M1374.7,288.8c1-0.6,1.7-1.9,1.7-3.2c0-2-1.7-3.6-4-3.6h-5.6v14.1h5.6c2.4,0,4.3-1.7,4.3-3.9
			C1376.8,290.7,1376,289.4,1374.7,288.8z M1374.6,285.9c0,1.2-0.9,2.1-2.2,2.1h-3.8v-4.2h3.8
			C1373.7,283.7,1374.6,284.7,1374.6,285.9z M1372.5,294.4h-3.9v-4.7h3.9c1.4,0,2.5,1,2.5,2.3C1375,293.4,1373.9,294.4,1372.5,294.4
			z"/>
		<path class="st0" d="M1388.9,285.2l-0.2,1.7c-1-1.2-2.5-1.9-4.3-1.9c-3.2,0-5.6,2.4-5.6,5.7c0,3.2,2.4,5.6,5.6,5.6
			c1.8,0,3.3-0.7,4.3-1.9l0.2,1.6h1.4v-10.8H1388.9z M1384.5,294.7c-2.3,0-4-1.7-4-4c0-2.3,1.7-4,4-4c2.3,0,4,1.7,4,4
			C1388.5,293,1386.9,294.7,1384.5,294.7z"/>
		<path class="st0" d="M1398.5,296.3c2.6,0,4.6-1.5,5.3-3.9h-1.7c-0.7,1.4-2,2.3-3.6,2.3c-2.2,0-3.9-1.7-3.9-4c0-2.2,1.7-4,3.9-4
			c1.6,0,3,0.8,3.6,2.2h1.7c-0.7-2.4-2.7-3.9-5.3-3.9c-3.2,0-5.6,2.4-5.6,5.6C1392.8,293.9,1395.3,296.3,1398.5,296.3z"/>
		<path class="st0" d="M1413.3,296.1h2.1l-4.4-5.6l4-5.2h-2.1l-3.3,4.4h-1.6v-8.3h-1.7v14.7h1.7v-4.9h1.6L1413.3,296.1z"/>
		<path class="st0" d="M1768.4,287.5c0.9-0.7,1.4-1.6,1.4-2.7c0-2.2-1.9-3.8-4.6-3.8c-2.7,0-4.6,1.6-4.6,3.8c0,1.1,0.5,2,1.4,2.7
			c-1.2,0.7-1.7,1.8-1.7,3.1c0,2.5,2,4.3,5,4.3s5-1.8,5-4.3C1770.1,289.3,1769.6,288.2,1768.4,287.5z M1765.2,283.3
			c1.1,0,1.8,0.7,1.8,1.6c0,0.9-0.7,1.6-1.8,1.6c-1.1,0-1.8-0.7-1.8-1.6C1763.3,284,1764.1,283.3,1765.2,283.3z M1765.2,292.4
			c-1.3,0-2.1-0.8-2.1-1.8c0-1.1,0.9-1.8,2.1-1.8c1.3,0,2.1,0.8,2.1,1.8C1767.3,291.6,1766.4,292.4,1765.2,292.4z"/>
		<path class="st0" d="M1782.5,294.8c3.3,0,5.7-2.4,5.7-5.7c0-3.2-2.5-5.6-5.7-5.6c-3.3,0-5.8,2.4-5.8,5.6
			C1776.7,292.4,1779.2,294.8,1782.5,294.8z M1782.5,293.2c-2.3,0-4-1.7-4-4c0-2.3,1.7-4,4-4c2.3,0,4,1.7,4,4
			C1786.5,291.5,1784.8,293.2,1782.5,293.2z"/>
		<path class="st0" d="M1796.4,283.8h-3.4V283c0-1.5,0.6-2.1,2.1-2.1h1.2v-1.4h-1.5c-2.4,0-3.5,1.1-3.5,3.5v0.9h-2.1v1.4h2.1v9.3
			h1.7v-9.3h3.3V283.8z"/>
		<path class="st0" d="M1801.9,281.2v1.5h2.6v11.8h1.6v-13.4H1801.9z"/>
		<path class="st0" d="M1813.1,286.2h-2l0.4-3.4h5.3v-1.5h-6.7l-0.7,6.1l0.2,0.3h3.4c1.7,0,3,1.2,3,2.8s-1.2,2.8-2.8,2.8
			c-1.6,0-2.7-1-2.8-2.6h-1.6c0.1,2.4,1.9,4.1,4.4,4.1s4.4-1.8,4.4-4.4C1817.7,288,1815.8,286.2,1813.1,286.2z"/>
		<path class="st0" d="M1349,335.5c0-1.2,1-2.2,2.2-2.2H1813c1.2,0,2.2,1,2.2,2.2l0,0c0,1.2-1,2.2-2.2,2.2h-461.9
			C1349.9,337.6,1349,336.7,1349,335.5L1349,335.5z"/>
		<path class="st4" d="M1349,335.5c0-1.2,1-2.2,2.2-2.2H1519c1.2,0,2.2,1,2.2,2.2l0,0c0,1.2-1,2.2-2.2,2.2h-167.8
			C1349.9,337.6,1349,336.7,1349,335.5L1349,335.5z"/>
		<path class="st0" d="M1349.3,458.2h5.2v-24.1h-5.2V458.2z"/>
		<path class="st0" d="M1377.9,439.8h-4.8v-1.6c0-1.3,0.7-2,2-2h2.7v-4h-3.7c-3.9,0-5.9,2.3-5.9,5.9v1.7h-3.2v4.1h3.2v14.2h5V444
			h4.7V439.8z"/>
		<path class="st0" d="M1397.8,448.8c0-5.4-3.9-9.8-9.6-9.8c-5.5,0-9.6,4.2-9.6,9.8s4.2,9.8,9.6,9.8c4.3,0,7.9-2.6,9.2-6.6h-5.3
			c-0.8,1.3-2.2,2.2-4,2.2c-2.4,0-4.1-1.4-4.5-4h14.1C1397.8,449.8,1397.8,449.3,1397.8,448.8z M1388.2,443.4c2.3,0,3.9,1.2,4.6,3.5
			h-9C1384.4,444.7,1386,443.4,1388.2,443.4z"/>
		<path class="st0" d="M1418.8,448.8c0-5.4-3.9-9.8-9.6-9.8c-5.5,0-9.6,4.2-9.6,9.8s4.2,9.8,9.6,9.8c4.3,0,7.9-2.6,9.2-6.6h-5.3
			c-0.8,1.3-2.2,2.2-4,2.2c-2.4,0-4.1-1.4-4.5-4h14.1C1418.7,449.8,1418.8,449.3,1418.8,448.8z M1409.1,443.4c2.3,0,3.9,1.2,4.6,3.5
			h-9C1405.3,444.7,1406.9,443.4,1409.1,443.4z"/>
		<path class="st0" d="M1421.7,458.2h5v-25.3h-5V458.2z"/>
		<path class="st0" d="M1446.9,453.7c-1.9,0-2.9-1-2.9-2.8v-7.2h5.1v-4.1h-5.1v-4.8h-1l-7.3,7.8v1.1h3.3v7.9c0,4.1,2.5,6.6,6.6,6.6
			h3.6v-4.5H1446.9z"/>
		<path class="st0" d="M1461.4,439.5c-2.4,0-4.1,0.8-5.4,2.4l-0.9-2.3h-3.2v18.6h5v-9.6c0-3,1.1-4.3,3.9-4.3h2.2v-4.8H1461.4z"/>
		<path class="st0" d="M1473.7,458.7c5.3,0,8.7-3.4,8.7-8.4v-10.7h-5v10.2c0,2.6-1.4,4.2-3.7,4.2c-2.3,0-3.7-1.5-3.7-4.2v-10.2h-5
			v10.7C1465,455.3,1468.5,458.7,1473.7,458.7z"/>
		<path class="st0" d="M1513.3,453.7c-1.8,0-2.9-1-2.9-2.8v-7.2h5.1v-4.1h-5.1v-4.8h-1l-7.4,7.8v1.1h3.4v7.9c0,4.1,2.5,6.6,6.6,6.6
			h3.6v-4.5H1513.3z M1493.8,446.7c-1.9-0.3-3.5-0.7-3.5-1.9c0-1.1,0.9-1.8,2.5-1.8c1.8,0,2.8,0.7,2.8,2.2h4.8c0-3.7-3-6.2-7.5-6.2
			c-4.5,0-7.5,2.4-7.5,6c0,4.4,3.8,5.2,6.7,5.7c2,0.3,3.6,0.7,3.6,2c0,1.2-1.3,1.9-2.7,1.9c-1.8,0-3.1-0.8-3.1-2.5h-4.9
			c0,4,3.1,6.6,7.8,6.6c4.7,0,7.8-2.5,7.8-6.3C1500.7,447.9,1496.8,447.3,1493.8,446.7z"/>
		<path class="st0" d="M1536.6,448.8c0-5.4-3.9-9.8-9.6-9.8c-5.5,0-9.6,4.2-9.6,9.8s4.2,9.8,9.6,9.8c4.3,0,7.9-2.6,9.2-6.6h-5.3
			c-0.8,1.3-2.2,2.2-4,2.2c-2.4,0-4.1-1.4-4.5-4h14.1C1536.6,449.8,1536.6,449.3,1536.6,448.8z M1527,443.4c2.3,0,3.9,1.2,4.6,3.5
			h-9C1523.2,444.7,1524.8,443.4,1527,443.4z"/>
		<path class="st0" d="M1553.2,432.9v7.7c-1.4-1-3.2-1.5-5.1-1.5c-5.6,0-9.8,4.2-9.8,9.8c0,5.6,4.1,9.8,9.8,9.8
			c2.3,0,4.3-0.8,5.8-2.1l0.6,1.5h3.7v-25.3H1553.2z M1548.5,454c-2.9,0-5.1-2.2-5.1-5.1c0-2.9,2.1-5.1,5.1-5.1s5.1,2.2,5.1,5.1
			C1553.5,451.8,1551.4,454,1548.5,454z"/>
		<path class="st0" d="M1578.4,453.7c-1.9,0-2.9-1-2.9-2.8v-7.2h5.1v-4.1h-5.1v-4.8h-1l-7.3,7.8v1.1h3.3v7.9c0,4.1,2.5,6.6,6.6,6.6
			h3.6v-4.5H1578.4z"/>
		<path class="st0" d="M1592.1,458.7c5.7,0,10.1-4.2,10.1-9.8c0-5.6-4.3-9.8-10.1-9.8c-5.7,0-10.1,4.2-10.1,9.8
			C1582,454.5,1586.3,458.7,1592.1,458.7z M1592.1,454c-2.9,0-5-2.1-5-5.1c0-3,2.1-5.1,5-5.1s5,2.1,5,5.1
			C1597,451.9,1595,454,1592.1,454z"/>
		<path class="st0" d="M1627.6,439.6l-0.8,1.9c-1.6-1.5-3.8-2.4-6.2-2.4c-5.2,0-9.3,4.1-9.3,9.3c0,5.2,4.1,9.3,9.3,9.3
			c2,0,3.8-0.6,5.3-1.7v0.7c0,2.7-2.1,4.4-4.6,4.4c-1.9,0-3.8-0.9-4.4-2.5h-5c0.9,4.2,4.4,6.8,9.5,6.8c5.9,0,9.5-3.5,9.5-9.4v-16.4
			L1627.6,439.6z M1621.2,453.2c-2.8,0-4.8-2-4.8-4.8c0-2.8,2-4.8,4.8-4.8c2.8,0,4.8,2,4.8,4.8C1626,451.2,1624,453.2,1621.2,453.2z
			"/>
		<path class="st0" d="M1653.1,448.8c0-5.4-3.9-9.8-9.6-9.8c-5.5,0-9.6,4.2-9.6,9.8s4.2,9.8,9.6,9.8c4.3,0,7.9-2.6,9.2-6.6h-5.3
			c-0.8,1.3-2.2,2.2-4,2.2c-2.4,0-4.1-1.4-4.5-4h14.1C1653,449.8,1653.1,449.3,1653.1,448.8z M1643.4,443.4c2.3,0,3.9,1.2,4.6,3.5
			h-9C1639.6,444.7,1641.2,443.4,1643.4,443.4z"/>
		<path class="st0" d="M1664.8,453.7c-1.9,0-2.9-1-2.9-2.8v-7.2h5.1v-4.1h-5.1v-4.8h-1l-7.3,7.8v1.1h3.3v7.9c0,4.1,2.5,6.6,6.6,6.6
			h3.6v-4.5H1664.8z"/>
		<path class="st0" d="M1686.1,458.7c5.7,0,10.1-4.2,10.1-9.8c0-5.6-4.3-9.8-10.1-9.8c-5.7,0-10.1,4.2-10.1,9.8
			C1676.1,454.5,1680.4,458.7,1686.1,458.7z M1686.1,454c-2.9,0-5-2.1-5-5.1c0-3,2.1-5.1,5-5.1s5,2.1,5,5.1
			C1691.1,451.9,1689,454,1686.1,454z"/>
		<path class="st0" d="M1709.7,439.1c-2.5,0-4.8,1.1-6.2,2.7l-1-2.3h-3.4v18.6h5v-9.7c0-3,1.6-4.9,4.2-4.9c2.2,0,3.2,1.3,3.2,4.2
			v10.4h5v-11.3C1716.6,442.2,1713.9,439.1,1709.7,439.1z"/>
		<path class="st0" d="M1749.5,439.6l-3.6,11.1l-5-11h-1.4l-4.8,10.9l-3.7-11.1h-5.1l6.1,18.6h4.1l4.1-9.6l4.2,9.6h4.1l6.1-18.6
			H1749.5z"/>
		<path class="st0" d="M1756.6,437.1h5v-4.6h-5V437.1z M1756.6,458.2h5v-18.6h-5V458.2z"/>
		<path class="st0" d="M1774.8,453.7c-1.9,0-2.9-1-2.9-2.8v-7.2h5.1v-4.1h-5.1v-4.8h-1l-7.3,7.8v1.1h3.3v7.9c0,4.1,2.5,6.6,6.6,6.6
			h3.6v-4.5H1774.8z"/>
		<path class="st0" d="M1790.5,439.1c-2.2,0-4.2,0.8-5.6,2.2v-8.4h-5v25.3h5v-9.7c0-3,1.7-4.9,4.2-4.9c2.2,0,3.2,1.4,3.2,4.2v10.4h5
			v-11.3C1797.3,442.1,1794.7,439.1,1790.5,439.1z"/>
		<path class="st0" d="M1370.1,476.4c-2.4,0-4.5,1.2-5.7,3c-1.1-1.9-3-3-5.4-3c-2.2,0-4.2,1.1-5.5,2.7l-0.9-2.3h-3.5v18.6h5v-10.1
			c0-2.9,1.3-4.5,3.6-4.5c1.8,0,2.8,1.3,2.8,3.8v10.8h4.9v-10.1c0-2.9,1.3-4.5,3.6-4.5c1.8,0,2.8,1.3,2.8,3.8v10.8h5v-11.6
			C1376.7,479.4,1374,476.4,1370.1,476.4z"/>
		<path class="st0" d="M1392.8,476.9l-4.6,11.5l-5-11.5h-5.5l7.9,17.2l-0.1,0.1c-1.1,2.8-1.8,3.5-4.2,3.5h-1.7v4.5h2.1
			c4.2,0,6.1-1.9,8.4-7l8.1-18.4H1392.8z"/>
		<path class="st0" d="M1407.1,474.4h5v-4.6h-5V474.4z M1402.7,502.2h2.4c4.1,0,7-2.9,7-7v-18.4h-5v18c0,1.8-1,2.7-2.8,2.7h-1.6
			V502.2z"/>
		<path class="st0" d="M1425,496c5.7,0,10.1-4.2,10.1-9.8c0-5.6-4.3-9.8-10.1-9.8c-5.7,0-10.1,4.2-10.1,9.8
			C1415,491.8,1419.3,496,1425,496z M1425,491.3c-2.9,0-5-2.1-5-5.1c0-3,2.1-5.1,5-5.1s5,2.1,5,5.1
			C1430,489.2,1427.9,491.3,1425,491.3z"/>
		<path class="st0" d="M1448.2,476.3c-1.9,0-3.7,0.6-5.1,1.5v-7.7h-5v25.3h3.7l0.6-1.6c1.5,1.3,3.5,2.1,5.8,2.1
			c5.6,0,9.8-4.2,9.8-9.8C1457.9,480.5,1453.8,476.3,1448.2,476.3z M1447.7,491.3c-2.9,0-5.1-2.2-5.1-5.1c0-2.9,2.1-5.1,5.1-5.1
			s5.1,2.2,5.1,5.1C1452.8,489,1450.7,491.3,1447.7,491.3z"/>
		<path class="st0" d="M1460.4,495.5h5.3v-5.4h-5.3V495.5z"/>
		<path class="st5" d="M1354,517.2h-5v14.1h1.8v-5h3.3c2.7,0,4.7-1.9,4.7-4.5C1358.7,519.1,1356.7,517.2,1354,517.2z M1353.9,524.5
			h-3.2v-5.6h3.2c1.7,0,3,1.2,3,2.8S1355.7,524.5,1353.9,524.5z"/>
		<path class="st5" d="M1361,531.2h1.7v-14.7h-1.7V531.2z"/>
		<path class="st5" d="M1376.3,525.8c0-3.2-2.2-5.7-5.5-5.7c-3.2,0-5.5,2.4-5.5,5.6c0,3.2,2.4,5.7,5.5,5.7c2.3,0,4.3-1.3,5.2-3.5
			h-1.8c-0.7,1.2-1.9,1.9-3.4,1.9c-2,0-3.6-1.3-3.8-3.3h9.2C1376.3,526.2,1376.3,526,1376.3,525.8z M1370.9,521.8
			c1.9,0,3.4,1.2,3.8,3.1h-7.5C1367.4,523,1368.9,521.8,1370.9,521.8z"/>
		<path class="st5" d="M1388.1,520.4l-0.2,1.7c-1-1.2-2.5-1.9-4.3-1.9c-3.2,0-5.6,2.4-5.6,5.7c0,3.2,2.4,5.6,5.6,5.6
			c1.8,0,3.3-0.7,4.3-1.9l0.2,1.6h1.4v-10.8H1388.1z M1383.8,529.8c-2.3,0-4-1.7-4-4c0-2.3,1.7-4,4-4c2.3,0,4,1.7,4,4
			C1387.7,528.1,1386.1,529.8,1383.8,529.8z"/>
		<path class="st5" d="M1396.3,531.5c2.6,0,4.3-1.3,4.3-3.3c0-2.7-2.2-3-4.1-3.3c-1.4-0.2-2.7-0.4-2.7-1.6c0-0.9,0.9-1.5,2.4-1.5
			c1.5,0,2.5,0.6,2.5,1.8h1.6c-0.1-2-1.6-3.4-4.1-3.4c-2.5,0-4.1,1.3-4.1,3.1c0,2.5,2.1,2.8,3.9,3.2c1.5,0.2,2.8,0.5,2.8,1.8
			c0,1-1.1,1.7-2.6,1.7c-1.5,0-2.6-0.7-2.7-2h-1.7C1392.1,530.1,1393.8,531.5,1396.3,531.5z"/>
		<path class="st5" d="M1413.4,525.8c0-3.2-2.2-5.7-5.5-5.7c-3.2,0-5.5,2.4-5.5,5.6c0,3.2,2.4,5.7,5.5,5.7c2.3,0,4.3-1.3,5.2-3.5
			h-1.8c-0.7,1.2-1.9,1.9-3.4,1.9c-2,0-3.6-1.3-3.8-3.3h9.2C1413.3,526.2,1413.4,526,1413.4,525.8z M1407.9,521.8
			c1.9,0,3.4,1.2,3.8,3.1h-7.5C1404.5,523,1405.9,521.8,1407.9,521.8z"/>
		<path class="st5" d="M1424.6,531.5c2.6,0,4.3-1.3,4.3-3.3c0-2.7-2.2-3-4.1-3.3c-1.4-0.2-2.7-0.4-2.7-1.6c0-0.9,0.9-1.5,2.4-1.5
			c1.5,0,2.5,0.6,2.5,1.8h1.6c-0.1-2-1.6-3.4-4.1-3.4c-2.5,0-4.1,1.3-4.1,3.1c0,2.5,2.1,2.8,3.9,3.2c1.5,0.2,2.8,0.5,2.8,1.8
			c0,1-1.1,1.7-2.6,1.7c-1.5,0-2.6-0.7-2.7-2h-1.7C1420.4,530.1,1422,531.5,1424.6,531.5z"/>
		<path class="st5" d="M1441.6,525.8c0-3.2-2.2-5.7-5.5-5.7c-3.2,0-5.5,2.4-5.5,5.6c0,3.2,2.4,5.7,5.5,5.7c2.3,0,4.3-1.3,5.2-3.5
			h-1.8c-0.7,1.2-1.9,1.9-3.4,1.9c-2,0-3.6-1.3-3.8-3.3h9.2C1441.6,526.2,1441.6,526,1441.6,525.8z M1436.1,521.8
			c1.9,0,3.4,1.2,3.8,3.1h-7.5C1432.7,523,1434.2,521.8,1436.1,521.8z"/>
		<path class="st5" d="M1444.1,531.2h1.7v-14.7h-1.7V531.2z"/>
		<path class="st5" d="M1459.4,525.8c0-3.2-2.2-5.7-5.5-5.7c-3.2,0-5.5,2.4-5.5,5.6c0,3.2,2.4,5.7,5.5,5.7c2.3,0,4.3-1.3,5.2-3.5
			h-1.8c-0.7,1.2-1.9,1.9-3.4,1.9c-2,0-3.6-1.3-3.8-3.3h9.2C1459.4,526.2,1459.4,526,1459.4,525.8z M1454,521.8
			c1.9,0,3.4,1.2,3.8,3.1h-7.5C1450.5,523,1452,521.8,1454,521.8z"/>
		<path class="st5" d="M1466.7,531.5c2.6,0,4.6-1.5,5.3-3.9h-1.7c-0.7,1.4-2,2.3-3.6,2.3c-2.2,0-3.9-1.7-3.9-4c0-2.2,1.7-4,3.9-4
			c1.6,0,3,0.8,3.6,2.2h1.7c-0.7-2.4-2.7-3.9-5.3-3.9c-3.2,0-5.6,2.4-5.6,5.6S1463.5,531.5,1466.7,531.5z"/>
		<path class="st5" d="M1478.9,529.6c-1.5,0-2.3-0.8-2.3-2.3v-5.5h3.4v-1.5h-3.4v-2.3h-0.3l-3.4,3.5v0.3h1.9v5.5
			c0,2.3,1.4,3.8,3.8,3.8h1.4v-1.6H1478.9z"/>
		<path class="st5" d="M1492.5,531.5c3.3,0,5.7-2.4,5.7-5.7c0-3.2-2.5-5.6-5.7-5.6c-3.3,0-5.8,2.4-5.8,5.6
			C1486.8,529,1489.2,531.5,1492.5,531.5z M1492.5,529.8c-2.3,0-4-1.7-4-4c0-2.3,1.7-4,4-4c2.3,0,4,1.7,4,4
			C1496.5,528.1,1494.8,529.8,1492.5,529.8z"/>
		<path class="st5" d="M1506.3,520.1c-1.7,0-3.1,0.7-3.9,1.9l-0.3-1.7h-1.2v10.8h1.7v-5.9c0-2,1.4-3.6,3.3-3.6s2.9,1.2,2.9,3.4v6.1
			h1.7v-6.5C1510.5,522.1,1508.9,520.1,1506.3,520.1z"/>
		<path class="st5" d="M1523.9,525.8c0-3.2-2.2-5.7-5.5-5.7c-3.2,0-5.5,2.4-5.5,5.6c0,3.2,2.4,5.7,5.5,5.7c2.3,0,4.3-1.3,5.2-3.5
			h-1.8c-0.7,1.2-1.9,1.9-3.4,1.9c-2,0-3.6-1.3-3.8-3.3h9.2C1523.9,526.2,1523.9,526,1523.9,525.8z M1518.4,521.8
			c1.9,0,3.4,1.2,3.8,3.1h-7.5C1515,523,1516.5,521.8,1518.4,521.8z"/>
		<path class="st5" d="M1536.6,531.5c3.3,0,5.7-2.4,5.7-5.7c0-3.2-2.5-5.6-5.7-5.6c-3.3,0-5.8,2.4-5.8,5.6
			C1530.8,529,1533.3,531.5,1536.6,531.5z M1536.6,529.8c-2.3,0-4-1.7-4-4c0-2.3,1.7-4,4-4c2.3,0,4,1.7,4,4
			C1540.6,528.1,1538.9,529.8,1536.6,529.8z"/>
		<path class="st5" d="M1550.7,520.1c-1.7,0-3.2,0.7-4.2,1.9l-0.3-1.7h-1.2v14.7h1.7v-5.3c1,1.1,2.4,1.7,4.1,1.7
			c3.2,0,5.6-2.4,5.6-5.7S1553.9,520.1,1550.7,520.1z M1550.6,529.8c-2.3,0-4-1.7-4-4c0-2.3,1.7-4,4-4c2.3,0,4,1.7,4,4
			C1554.6,528.1,1552.9,529.8,1550.6,529.8z"/>
		<path class="st5" d="M1563.2,529.6c-1.5,0-2.3-0.8-2.3-2.3v-5.5h3.4v-1.5h-3.4v-2.3h-0.3l-3.4,3.5v0.3h1.9v5.5
			c0,2.3,1.4,3.8,3.8,3.8h1.4v-1.6H1563.2z"/>
		<path class="st5" d="M1566.6,518.5h1.8v-1.9h-1.8V518.5z M1566.7,531.2h1.7v-10.8h-1.7V531.2z"/>
		<path class="st5" d="M1576.7,531.5c3.3,0,5.7-2.4,5.7-5.7c0-3.2-2.5-5.6-5.7-5.6c-3.3,0-5.8,2.4-5.8,5.6
			C1571,529,1573.4,531.5,1576.7,531.5z M1576.7,529.8c-2.3,0-4-1.7-4-4c0-2.3,1.7-4,4-4c2.3,0,4,1.7,4,4
			C1580.7,528.1,1579,529.8,1576.7,529.8z"/>
		<path class="st5" d="M1590.5,520.1c-1.7,0-3.1,0.7-3.9,1.9l-0.3-1.7h-1.2v10.8h1.7v-5.9c0-2,1.4-3.6,3.3-3.6
			c1.9,0,2.9,1.2,2.9,3.4v6.1h1.7v-6.5C1594.7,522.1,1593.1,520.1,1590.5,520.1z"/>
		<path class="st5" d="M1597.6,531.2h1.9v-2.1h-1.9V531.2z"/>
		<path class="st2" d="M1386.5,698.2c3.2,0,5.7-1.7,5.7-4.8c0-3.4-2.8-4-5.4-4.6c-2.1-0.5-3.9-0.9-3.9-2.7c0-1.5,1.5-2.5,3.4-2.5
			s3.4,1,3.4,2.8h2c0-2.9-2-4.8-5.4-4.8c-3.3,0-5.5,1.7-5.5,4.5c0,3.2,2.7,3.9,5.2,4.5c2.1,0.5,4,0.9,4,2.8c0,1.7-1.6,2.8-3.6,2.8
			c-2.2,0-3.9-1.2-3.9-3.2h-2.1C1380.5,696.2,1383,698.2,1386.5,698.2z"/>
		<path class="st2" d="M1400.1,696.2c-1.7,0-2.6-0.9-2.6-2.6v-6.2h3.9v-1.8h-3.9V683h-0.3l-3.8,4v0.3h2.2v6.3c0,2.7,1.7,4.3,4.3,4.3
			h1.6v-1.8H1400.1z"/>
		<path class="st2" d="M1409.5,685.6c-1.8,0-3.1,0.7-4,2l-0.3-1.9h-1.4V698h2v-6.7c0-2.4,1.3-3.9,3.6-3.9h1.3v-1.8H1409.5z"/>
		<path class="st2" d="M1417.6,698.3c3.7,0,6.6-2.8,6.6-6.5c0-3.7-2.8-6.4-6.6-6.4c-3.8,0-6.6,2.7-6.6,6.4
			C1411.1,695.5,1413.9,698.3,1417.6,698.3z M1417.6,696.4c-2.7,0-4.6-1.9-4.6-4.6c0-2.6,1.9-4.6,4.6-4.6c2.6,0,4.6,1.9,4.6,4.6
			C1422.2,694.5,1420.3,696.4,1417.6,696.4z"/>
		<path class="st2" d="M1433.1,685.3c-1.9,0-3.5,0.8-4.4,2.2l-0.4-2h-1.4V698h2v-6.7c0-2.3,1.6-4.1,3.8-4.1s3.3,1.4,3.3,3.9v7h2
			v-7.4C1437.9,687.5,1436.1,685.3,1433.1,685.3z"/>
		<path class="st2" d="M1451.7,685.6l-0.3,1.9c-1.1-1.4-2.8-2.2-4.8-2.2c-3.4,0-6.1,2.7-6.1,6.1c0,3.5,2.6,6.1,6.1,6.1
			c1.8,0,3.4-0.7,4.5-1.8v0.8c0,2.8-1.7,4.4-4.2,4.4c-1.8,0-3.4-0.9-3.9-2.4h-2c0.7,2.6,2.8,4.2,5.9,4.2c3.8,0,6.1-2.4,6.1-6.4
			v-10.6L1451.7,685.6z M1446.8,695.7c-2.5,0-4.3-1.8-4.3-4.3s1.8-4.3,4.3-4.3c2.5,0,4.3,1.8,4.3,4.3S1449.3,695.7,1446.8,695.7z"/>
		<path class="st2" d="M1456.7,698h2v-16.8h-2V698z"/>
		<path class="st2" d="M1471.4,685.6l-4.2,9.4l-4.4-9.4h-2.1l5.5,11.6l-0.4,0.9c-1,2.1-1.6,2.6-3.3,2.6h-1v1.8h1.2
			c2.3,0,3.5-1,4.8-3.9l5.9-12.9H1471.4z"/>
		<path class="st2" d="M1491.3,685.6l-0.3,1.9c-1.1-1.4-2.9-2.2-4.9-2.2c-3.7,0-6.4,2.8-6.4,6.5c0,3.7,2.8,6.4,6.4,6.4
			c2,0,3.7-0.8,4.9-2.1l0.2,1.9h1.6v-12.4H1491.3z M1486.3,696.4c-2.6,0-4.6-2-4.6-4.6c0-2.6,2-4.6,4.6-4.6c2.6,0,4.5,2,4.5,4.6
			C1490.8,694.4,1488.9,696.4,1486.3,696.4z"/>
		<path class="st2" d="M1506.8,685.6l-0.3,1.9c-1.1-1.4-2.8-2.2-4.8-2.2c-3.4,0-6.1,2.7-6.1,6.1c0,3.5,2.6,6.1,6.1,6.1
			c1.8,0,3.4-0.7,4.5-1.8v0.8c0,2.8-1.7,4.4-4.2,4.4c-1.8,0-3.4-0.9-3.9-2.4h-2c0.7,2.6,2.8,4.2,5.9,4.2c3.8,0,6.1-2.4,6.1-6.4
			v-10.6L1506.8,685.6z M1501.9,695.7c-2.5,0-4.3-1.8-4.3-4.3s1.8-4.3,4.3-4.3c2.5,0,4.3,1.8,4.3,4.3S1504.4,695.7,1501.9,695.7z"/>
		<path class="st2" d="M1517.4,685.6c-1.8,0-3.1,0.7-4,2l-0.3-1.9h-1.4V698h2v-6.7c0-2.4,1.3-3.9,3.6-3.9h1.3v-1.8H1517.4z"/>
		<path class="st2" d="M1531.6,691.9c0-3.6-2.5-6.5-6.2-6.5c-3.6,0-6.3,2.8-6.3,6.4c0,3.7,2.7,6.5,6.3,6.5c2.7,0,4.9-1.5,5.9-4h-2.1
			c-0.8,1.3-2.1,2.1-3.9,2.1c-2.3,0-4.1-1.5-4.4-3.8h10.6C1531.6,692.3,1531.6,692.1,1531.6,691.9z M1525.4,687.2
			c2.2,0,3.9,1.4,4.3,3.6h-8.6C1521.4,688.6,1523.1,687.2,1525.4,687.2z"/>
		<path class="st2" d="M1545.9,691.9c0-3.6-2.5-6.5-6.2-6.5c-3.6,0-6.3,2.8-6.3,6.4c0,3.7,2.7,6.5,6.3,6.5c2.7,0,4.9-1.5,5.9-4h-2.1
			c-0.8,1.3-2.1,2.1-3.9,2.1c-2.3,0-4.1-1.5-4.4-3.8h10.6C1545.8,692.3,1545.9,692.1,1545.9,691.9z M1539.6,687.2
			c2.2,0,3.9,1.4,4.3,3.6h-8.6C1535.7,688.6,1537.4,687.2,1539.6,687.2z"/>
		<path class="st0" d="M1664.8,691.9c0,10.3-8.3,18.6-18.6,18.6c-10.3,0-18.6-8.3-18.6-18.6c0-10.3,8.3-18.6,18.6-18.6
			C1656.4,673.3,1664.8,681.6,1664.8,691.9z"/>
		<path class="st3" d="M1765,709.2c9.5,0,17.2-7.7,17.2-17.2s-7.7-17.2-17.2-17.2c-9.5,0-17.2,7.7-17.2,17.2
			S1755.5,709.2,1765,709.2z M1765,710.6c10.3,0,18.6-8.3,18.6-18.6c0-10.3-8.3-18.6-18.6-18.6c-10.3,0-18.6,8.3-18.6,18.6
			C1746.3,702.2,1754.7,710.6,1765,710.6z"/>
		<path class="st8" d="M1357.6,642.5h449c4.4,0,7.9,3.5,7.9,7.9v83.2c0,4.4-3.5,7.9-7.9,7.9h-449c-4.4,0-7.9-3.5-7.9-7.9v-83.2
			C1349.7,646,1353.2,642.5,1357.6,642.5z"/>
		<path class="st2" d="M1392.8,812.3h3.8l-6.5-16.1h-3.3l-6.3,16.1h3.7l1.1-3h6.4L1392.8,812.3z M1388.5,800.5l2.1,5.8h-4.2
			L1388.5,800.5z"/>
		<path class="st2" d="M1407.8,799.9l-0.6,1.2c-1.1-1-2.5-1.6-4.1-1.6c-3.5,0-6.2,2.8-6.2,6.2c0,3.5,2.7,6.2,6.2,6.2
			c1.3,0,2.5-0.4,3.5-1.1v0.5c0,1.8-1.4,2.9-3.1,2.9c-1.2,0-2.5-0.6-2.9-1.7h-3.3c0.6,2.8,3,4.5,6.3,4.5c3.9,0,6.3-2.4,6.3-6.2V800
			L1407.8,799.9z M1403.5,809c-1.8,0-3.2-1.4-3.2-3.2c0-1.9,1.3-3.2,3.2-3.2c1.8,0,3.2,1.4,3.2,3.2
			C1406.7,807.7,1405.3,809,1403.5,809z"/>
		<path class="st2" d="M1419.3,799.9c-1.6,0-2.7,0.5-3.6,1.6l-0.6-1.5h-2.1v12.4h3.4v-6.4c0-2,0.7-2.9,2.6-2.9h1.5v-3.2H1419.3z"/>
		<path class="st2" d="M1433.8,806.1c0-3.6-2.6-6.5-6.4-6.5c-3.7,0-6.4,2.8-6.4,6.5s2.8,6.6,6.4,6.6c2.9,0,5.3-1.7,6.2-4.4h-3.5
			c-0.5,0.9-1.5,1.4-2.6,1.4c-1.6,0-2.7-0.9-3-2.6h9.4C1433.8,806.7,1433.8,806.4,1433.8,806.1z M1427.4,802.5
			c1.5,0,2.6,0.8,3.1,2.3h-6C1424.8,803.3,1425.9,802.5,1427.4,802.5z"/>
		<path class="st2" d="M1448,806.1c0-3.6-2.6-6.5-6.4-6.5c-3.7,0-6.4,2.8-6.4,6.5s2.8,6.6,6.4,6.6c2.9,0,5.3-1.7,6.2-4.4h-3.5
			c-0.5,0.9-1.5,1.4-2.6,1.4c-1.6,0-2.7-0.9-3-2.6h9.4C1448,806.7,1448,806.4,1448,806.1z M1441.6,802.5c1.5,0,2.6,0.8,3.1,2.3h-6
			C1439,803.3,1440.1,802.5,1441.6,802.5z"/>
		<path class="st4" d="M1783.6,806.7c0,10.3-8.3,18.6-18.6,18.6c-10.3,0-18.6-8.3-18.6-18.6s8.3-18.6,18.6-18.6
			C1775.3,788.1,1783.6,796.4,1783.6,806.7z"/>
		<path class="st6" d="M1765,823.9c9.5,0,17.2-7.7,17.2-17.2s-7.7-17.2-17.2-17.2c-9.5,0-17.2,7.7-17.2,17.2
			S1755.5,823.9,1765,823.9z M1765,825.4c10.3,0,18.6-8.3,18.6-18.6s-8.3-18.6-18.6-18.6c-10.3,0-18.6,8.3-18.6,18.6
			S1754.7,825.4,1765,825.4z"/>
		<path class="st3" d="M1772.9,801.6c0.4,0.4,0.4,1.1,0,1.5l-10,10c-0.2,0.2-0.5,0.3-0.8,0.3c-0.3,0-0.6-0.1-0.8-0.3l-4.3-4.4
			c-0.4-0.4-0.4-1.1,0-1.5c0.4-0.4,1.1-0.4,1.5,0l3.6,3.6l9.2-9.3C1771.8,801.2,1772.5,801.2,1772.9,801.6z"/>
		<path class="st7" d="M1357.6,757.2h449c4.4,0,7.9,3.5,7.9,7.9v83.2c0,4.4-3.5,7.9-7.9,7.9h-449c-4.4,0-7.9-3.5-7.9-7.9v-83.2
			C1349.7,760.7,1353.2,757.2,1357.6,757.2z"/>
		<path class="st2" d="M1391.4,911.4v12.4l-9-12.4h-1.8v16.1h2V915l9.1,12.5h1.7v-16.1H1391.4z"/>
		<path class="st2" d="M1408.7,921.4c0-3.6-2.5-6.5-6.2-6.5c-3.6,0-6.3,2.8-6.3,6.4c0,3.7,2.7,6.5,6.3,6.5c2.7,0,4.9-1.5,5.9-4h-2.1
			c-0.8,1.3-2.1,2.1-3.9,2.1c-2.3,0-4.1-1.5-4.4-3.8h10.6C1408.7,921.8,1408.7,921.6,1408.7,921.4z M1402.4,916.7
			c2.2,0,3.9,1.4,4.3,3.6h-8.6C1398.5,918.1,1400.2,916.7,1402.4,916.7z"/>
		<path class="st2" d="M1411.3,913h2.1v-2.2h-2.1V913z M1411.4,927.5h2v-12.4h-2V927.5z"/>
		<path class="st2" d="M1422.2,925.7c-1.7,0-2.6-0.9-2.6-2.6v-6.2h3.9v-1.8h-3.9v-2.6h-0.3l-3.8,4v0.3h2.2v6.3
			c0,2.7,1.7,4.3,4.3,4.3h1.6v-1.8H1422.2z"/>
		<path class="st2" d="M1432.1,914.9c-1.8,0-3.3,0.7-4.2,2v-6.1h-2v16.8h2v-6.7c0-2.3,1.6-4.1,3.8-4.1s3.3,1.4,3.3,3.9v7h2v-7.4
			C1436.9,916.9,1435,914.9,1432.1,914.9z"/>
		<path class="st2" d="M1452,921.4c0-3.6-2.5-6.5-6.2-6.5c-3.6,0-6.3,2.8-6.3,6.4c0,3.7,2.7,6.5,6.3,6.5c2.7,0,4.9-1.5,5.9-4h-2.1
			c-0.8,1.3-2.1,2.1-3.9,2.1c-2.3,0-4.1-1.5-4.4-3.8h10.6C1451.9,921.8,1452,921.6,1452,921.4z M1445.7,916.7c2.2,0,3.9,1.4,4.3,3.6
			h-8.6C1441.8,918.1,1443.5,916.7,1445.7,916.7z"/>
		<path class="st2" d="M1460.3,915.1c-1.8,0-3.1,0.7-4,2l-0.3-1.9h-1.4v12.4h2v-6.7c0-2.4,1.3-3.9,3.6-3.9h1.3v-1.8H1460.3z"/>
		<path class="st2" d="M1479,915.1l-0.3,1.9c-1.1-1.4-2.9-2.2-4.9-2.2c-3.7,0-6.4,2.8-6.4,6.5c0,3.7,2.8,6.4,6.4,6.4
			c2,0,3.7-0.8,4.9-2.1l0.2,1.9h1.6v-12.4H1479z M1474,925.9c-2.6,0-4.6-2-4.6-4.6c0-2.6,2-4.6,4.6-4.6c2.6,0,4.5,2,4.5,4.6
			C1478.5,924,1476.6,925.9,1474,925.9z"/>
		<path class="st2" d="M1494.5,915.1l-0.3,1.9c-1.1-1.4-2.8-2.2-4.8-2.2c-3.4,0-6.1,2.7-6.1,6.1c0,3.5,2.6,6.1,6.1,6.1
			c1.8,0,3.4-0.7,4.5-1.8v0.8c0,2.8-1.7,4.4-4.2,4.4c-1.8,0-3.4-0.9-3.9-2.4h-2c0.7,2.6,2.8,4.2,5.9,4.2c3.8,0,6.1-2.4,6.1-6.4
			v-10.6L1494.5,915.1z M1489.5,925.3c-2.5,0-4.3-1.8-4.3-4.3c0-2.4,1.8-4.3,4.3-4.3s4.3,1.8,4.3,4.3
			C1493.8,923.4,1492,925.3,1489.5,925.3z"/>
		<path class="st2" d="M1505.1,915.1c-1.8,0-3.1,0.7-4,2l-0.3-1.9h-1.4v12.4h2v-6.7c0-2.4,1.3-3.9,3.6-3.9h1.3v-1.8H1505.1z"/>
		<path class="st2" d="M1519.3,921.4c0-3.6-2.5-6.5-6.2-6.5c-3.6,0-6.3,2.8-6.3,6.4c0,3.7,2.7,6.5,6.3,6.5c2.7,0,4.9-1.5,5.9-4h-2.1
			c-0.8,1.3-2.1,2.1-3.9,2.1c-2.3,0-4.1-1.5-4.4-3.8h10.6C1519.3,921.8,1519.3,921.6,1519.3,921.4z M1513,916.7
			c2.2,0,3.9,1.4,4.3,3.6h-8.6C1509.1,918.1,1510.8,916.7,1513,916.7z"/>
		<path class="st2" d="M1533.6,921.4c0-3.6-2.5-6.5-6.2-6.5c-3.6,0-6.3,2.8-6.3,6.4c0,3.7,2.7,6.5,6.3,6.5c2.7,0,4.9-1.5,5.9-4h-2.1
			c-0.8,1.3-2.1,2.1-3.9,2.1c-2.3,0-4.1-1.5-4.4-3.8h10.6C1533.5,921.8,1533.6,921.6,1533.6,921.4z M1527.3,916.7
			c2.2,0,3.9,1.4,4.3,3.6h-8.6C1523.4,918.1,1525.1,916.7,1527.3,916.7z"/>
		<path class="st2" d="M1547.6,927.8c3.7,0,6.6-2.8,6.6-6.5c0-3.7-2.8-6.4-6.6-6.4c-3.8,0-6.6,2.7-6.6,6.4
			S1543.9,927.8,1547.6,927.8z M1547.6,925.9c-2.7,0-4.6-1.9-4.6-4.6c0-2.6,1.9-4.6,4.6-4.6c2.6,0,4.6,1.9,4.6,4.6
			C1552.2,924,1550.3,925.9,1547.6,925.9z"/>
		<path class="st2" d="M1562.6,915.1c-1.8,0-3.1,0.7-4,2l-0.3-1.9h-1.4v12.4h2v-6.7c0-2.4,1.3-3.9,3.6-3.9h1.3v-1.8H1562.6z"/>
		<path class="st2" d="M1580.7,910.7v6c-1.1-1.1-2.8-1.8-4.6-1.8c-3.7,0-6.4,2.8-6.4,6.5c0,3.7,2.7,6.4,6.4,6.4c2,0,3.6-0.8,4.8-2
			l0.3,1.8h1.5v-16.8H1580.7z M1576.2,925.9c-2.6,0-4.5-2-4.5-4.6c0-2.6,1.9-4.6,4.5-4.6c2.6,0,4.6,2,4.6,4.6
			C1580.8,923.9,1578.9,925.9,1576.2,925.9z"/>
		<path class="st2" d="M1586.3,913h2.1v-2.2h-2.1V913z M1586.3,927.5h2v-12.4h-2V927.5z"/>
		<path class="st2" d="M1595.9,927.8c2.9,0,4.9-1.5,4.9-3.8c0-3-2.5-3.4-4.7-3.8c-1.7-0.3-3.1-0.5-3.1-1.8c0-1.1,1.1-1.8,2.7-1.8
			c1.7,0,2.8,0.7,2.9,2.1h1.8c-0.1-2.3-1.9-3.8-4.7-3.8s-4.7,1.4-4.7,3.6c0,2.8,2.4,3.2,4.5,3.6c1.7,0.3,3.2,0.6,3.2,2
			c0,1.2-1.2,1.9-2.9,1.9c-1.7,0-3-0.8-3.1-2.3h-1.9C1591.1,926.2,1593,927.8,1595.9,927.8z"/>
		<path class="st2" d="M1614.1,915.1l-0.3,1.9c-1.1-1.4-2.9-2.2-4.9-2.2c-3.7,0-6.4,2.8-6.4,6.5c0,3.7,2.8,6.4,6.4,6.4
			c2,0,3.7-0.8,4.9-2.1l0.2,1.9h1.6v-12.4H1614.1z M1609.1,925.9c-2.6,0-4.6-2-4.6-4.6c0-2.6,2-4.6,4.6-4.6c2.6,0,4.5,2,4.5,4.6
			C1613.6,924,1611.7,925.9,1609.1,925.9z"/>
		<path class="st2" d="M1629.6,915.1l-0.3,1.9c-1.1-1.4-2.8-2.2-4.8-2.2c-3.4,0-6.1,2.7-6.1,6.1c0,3.5,2.6,6.1,6.1,6.1
			c1.8,0,3.4-0.7,4.5-1.8v0.8c0,2.8-1.7,4.4-4.2,4.4c-1.8,0-3.4-0.9-3.9-2.4h-2c0.7,2.6,2.8,4.2,5.9,4.2c3.8,0,6.1-2.4,6.1-6.4
			v-10.6L1629.6,915.1z M1624.7,925.3c-2.5,0-4.3-1.8-4.3-4.3c0-2.4,1.8-4.3,4.3-4.3c2.5,0,4.3,1.8,4.3,4.3
			C1629,923.4,1627.2,925.3,1624.7,925.3z"/>
		<path class="st2" d="M1640.2,915.1c-1.8,0-3.1,0.7-4,2l-0.3-1.9h-1.4v12.4h2v-6.7c0-2.4,1.3-3.9,3.6-3.9h1.3v-1.8H1640.2z"/>
		<path class="st2" d="M1654.4,921.4c0-3.6-2.5-6.5-6.2-6.5c-3.6,0-6.3,2.8-6.3,6.4c0,3.7,2.7,6.5,6.3,6.5c2.7,0,4.9-1.5,5.9-4h-2.1
			c-0.8,1.3-2.1,2.1-3.9,2.1c-2.3,0-4.1-1.5-4.4-3.8h10.6C1654.4,921.8,1654.4,921.6,1654.4,921.4z M1648.2,916.7
			c2.2,0,3.9,1.4,4.3,3.6h-8.6C1644.2,918.1,1645.9,916.7,1648.2,916.7z"/>
		<path class="st2" d="M1668.7,921.4c0-3.6-2.5-6.5-6.2-6.5c-3.6,0-6.3,2.8-6.3,6.4c0,3.7,2.7,6.5,6.3,6.5c2.7,0,4.9-1.5,5.9-4h-2.1
			c-0.8,1.3-2.1,2.1-3.9,2.1c-2.3,0-4.1-1.5-4.4-3.8h10.6C1668.7,921.8,1668.7,921.6,1668.7,921.4z M1662.4,916.7
			c2.2,0,3.9,1.4,4.3,3.6h-8.6C1658.5,918.1,1660.2,916.7,1662.4,916.7z"/>
		<path class="st0" d="M1726.2,921.5c0,10.3-8.4,18.6-18.6,18.6c-10.3,0-18.6-8.3-18.6-18.6c0-10.3,8.3-18.6,18.6-18.6
			C1717.8,902.8,1726.2,911.2,1726.2,921.5z"/>
		<path class="st3" d="M1765,938.7c9.5,0,17.2-7.7,17.2-17.2c0-9.5-7.7-17.2-17.2-17.2c-9.5,0-17.2,7.7-17.2,17.2
			C1747.8,931,1755.5,938.7,1765,938.7z M1765,940.1c10.3,0,18.6-8.3,18.6-18.6c0-10.3-8.3-18.6-18.6-18.6
			c-10.3,0-18.6,8.3-18.6,18.6C1746.3,931.8,1754.7,940.1,1765,940.1z"/>
		<path class="st8" d="M1357.6,872h449c4.4,0,7.9,3.5,7.9,7.9v83.2c0,4.4-3.5,7.9-7.9,7.9h-449c-4.4,0-7.9-3.5-7.9-7.9v-83.2
			C1349.7,875.5,1353.2,872,1357.6,872z"/>
		<path class="st2" d="M1385.9,1026.2h-5.3v16.1h5.3c4.7,0,8.1-3.4,8.1-8C1394,1029.6,1390.6,1026.2,1385.9,1026.2L1385.9,1026.2z
			 M1385.8,1040.4h-3.3v-12.3h3.3c3.6,0,6.2,2.6,6.2,6.1C1392,1037.8,1389.5,1040.4,1385.8,1040.4z"/>
		<path class="st2" d="M1396.7,1027.7h2.1v-2.2h-2.1V1027.7z M1396.8,1042.2h2v-12.4h-2V1042.2z"/>
		<path class="st2" d="M1406.4,1042.5c2.9,0,4.9-1.5,4.9-3.8c0-3-2.5-3.4-4.7-3.8c-1.7-0.3-3.1-0.5-3.1-1.8c0-1.1,1.1-1.8,2.7-1.8
			c1.7,0,2.8,0.7,2.9,2.1h1.8c-0.1-2.3-1.9-3.8-4.7-3.8s-4.7,1.4-4.7,3.6c0,2.8,2.4,3.2,4.5,3.6c1.7,0.3,3.2,0.6,3.2,2
			c0,1.2-1.2,1.9-2.9,1.9c-1.7,0-3-0.8-3.1-2.3h-1.9C1401.5,1041,1403.4,1042.5,1406.4,1042.5z"/>
		<path class="st2" d="M1424.6,1029.9l-0.3,1.9c-1.1-1.4-2.9-2.2-4.9-2.2c-3.7,0-6.4,2.8-6.4,6.5c0,3.7,2.8,6.4,6.4,6.4
			c2,0,3.7-0.8,4.9-2.1l0.2,1.9h1.6v-12.4H1424.6z M1419.6,1040.6c-2.6,0-4.6-2-4.6-4.6c0-2.6,2-4.6,4.6-4.6c2.6,0,4.5,2,4.5,4.6
			C1424.1,1038.7,1422.2,1040.6,1419.6,1040.6z"/>
		<path class="st2" d="M1440,1029.9l-0.3,1.9c-1.1-1.4-2.8-2.2-4.8-2.2c-3.4,0-6.1,2.7-6.1,6.1c0,3.5,2.6,6.1,6.1,6.1
			c1.8,0,3.4-0.7,4.5-1.8v0.8c0,2.8-1.7,4.4-4.2,4.4c-1.8,0-3.4-0.9-3.9-2.4h-2c0.7,2.6,2.8,4.2,5.9,4.2c3.8,0,6.1-2.4,6.1-6.4
			v-10.6L1440,1029.9z M1435.1,1040c-2.5,0-4.3-1.8-4.3-4.3c0-2.4,1.8-4.3,4.3-4.3c2.5,0,4.3,1.8,4.3,4.3
			C1439.4,1038.2,1437.6,1040,1435.1,1040z"/>
		<path class="st2" d="M1450.7,1029.8c-1.8,0-3.1,0.7-4,2l-0.3-1.9h-1.4v12.4h2v-6.7c0-2.4,1.3-3.9,3.6-3.9h1.3v-1.8H1450.7z"/>
		<path class="st2" d="M1464.9,1036.1c0-3.6-2.5-6.5-6.2-6.5c-3.6,0-6.3,2.8-6.3,6.4c0,3.7,2.7,6.5,6.3,6.5c2.7,0,4.9-1.5,5.9-4
			h-2.1c-0.8,1.3-2.1,2.1-3.9,2.1c-2.3,0-4.1-1.5-4.4-3.8h10.6C1464.9,1036.6,1464.9,1036.3,1464.9,1036.1z M1458.6,1031.4
			c2.2,0,3.9,1.4,4.3,3.6h-8.6C1454.7,1032.9,1456.4,1031.4,1458.6,1031.4z"/>
		<path class="st2" d="M1479.1,1036.1c0-3.6-2.5-6.5-6.2-6.5c-3.6,0-6.3,2.8-6.3,6.4c0,3.7,2.7,6.5,6.3,6.5c2.7,0,4.9-1.5,5.9-4
			h-2.1c-0.8,1.3-2.1,2.1-3.9,2.1c-2.3,0-4.1-1.5-4.4-3.8h10.6C1479.1,1036.6,1479.1,1036.3,1479.1,1036.1z M1472.9,1031.4
			c2.2,0,3.9,1.4,4.3,3.6h-8.6C1469,1032.9,1470.7,1031.4,1472.9,1031.4z"/>
		<path class="st0" d="M1631.4,1036.2c0,10.3-8.3,18.6-18.6,18.6s-18.6-8.3-18.6-18.6s8.3-18.6,18.6-18.6
			S1631.4,1025.9,1631.4,1036.2z"/>
		<path class="st3" d="M1765,1053.4c9.5,0,17.2-7.7,17.2-17.2c0-9.5-7.7-17.2-17.2-17.2c-9.5,0-17.2,7.7-17.2,17.2
			C1747.8,1045.7,1755.5,1053.4,1765,1053.4z M1765,1054.9c10.3,0,18.6-8.3,18.6-18.6s-8.3-18.6-18.6-18.6
			c-10.3,0-18.6,8.3-18.6,18.6S1754.7,1054.9,1765,1054.9z"/>
		<path class="st8" d="M1357.6,986.7h449c4.4,0,7.9,3.5,7.9,7.9v83.2c0,4.4-3.5,7.9-7.9,7.9h-449c-4.4,0-7.9-3.5-7.9-7.9v-83.2
			C1349.7,990.3,1353.2,986.7,1357.6,986.7z"/>
		<path class="st2" d="M1386.5,1157.2c3.2,0,5.7-1.7,5.7-4.8c0-3.4-2.8-4-5.4-4.6c-2.1-0.5-3.9-0.9-3.9-2.7c0-1.5,1.5-2.5,3.4-2.5
			s3.4,1,3.4,2.8h2c0-2.9-2-4.8-5.4-4.8c-3.3,0-5.5,1.7-5.5,4.5c0,3.2,2.7,3.9,5.2,4.5c2.1,0.5,4,0.9,4,2.8c0,1.7-1.6,2.8-3.6,2.8
			c-2.2,0-3.9-1.2-3.9-3.2h-2.1C1380.5,1155.3,1383,1157.2,1386.5,1157.2z"/>
		<path class="st2" d="M1400.1,1155.2c-1.7,0-2.6-0.9-2.6-2.6v-6.2h3.9v-1.8h-3.9v-2.6h-0.3l-3.8,4v0.3h2.2v6.3
			c0,2.7,1.7,4.3,4.3,4.3h1.6v-1.8H1400.1z"/>
		<path class="st2" d="M1409.5,1144.6c-1.8,0-3.1,0.7-4,2l-0.3-1.9h-1.4v12.4h2v-6.7c0-2.4,1.3-3.9,3.6-3.9h1.3v-1.8H1409.5z"/>
		<path class="st2" d="M1417.6,1157.3c3.7,0,6.6-2.8,6.6-6.5c0-3.7-2.8-6.4-6.6-6.4c-3.8,0-6.6,2.7-6.6,6.4
			C1411.1,1154.5,1413.9,1157.3,1417.6,1157.3z M1417.6,1155.4c-2.7,0-4.6-1.9-4.6-4.6c0-2.6,1.9-4.6,4.6-4.6c2.6,0,4.6,1.9,4.6,4.6
			C1422.2,1153.5,1420.3,1155.4,1417.6,1155.4z"/>
		<path class="st2" d="M1433.1,1144.4c-1.9,0-3.5,0.8-4.4,2.2l-0.4-2h-1.4v12.4h2v-6.7c0-2.3,1.6-4.1,3.8-4.1s3.3,1.4,3.3,3.9v7h2
			v-7.4C1437.9,1146.6,1436.1,1144.4,1433.1,1144.4z"/>
		<path class="st2" d="M1451.7,1144.6l-0.3,1.9c-1.1-1.4-2.8-2.2-4.8-2.2c-3.4,0-6.1,2.7-6.1,6.1c0,3.5,2.6,6.1,6.1,6.1
			c1.8,0,3.4-0.7,4.5-1.8v0.8c0,2.8-1.7,4.4-4.2,4.4c-1.8,0-3.4-0.9-3.9-2.4h-2c0.7,2.6,2.8,4.2,5.9,4.2c3.8,0,6.1-2.4,6.1-6.4
			v-10.6L1451.7,1144.6z M1446.8,1154.8c-2.5,0-4.3-1.8-4.3-4.3s1.8-4.3,4.3-4.3c2.5,0,4.3,1.8,4.3,4.3S1449.3,1154.8,1446.8,1154.8
			z"/>
		<path class="st2" d="M1456.7,1157h2v-16.8h-2V1157z"/>
		<path class="st2" d="M1471.4,1144.6l-4.2,9.4l-4.4-9.4h-2.1l5.5,11.6l-0.4,0.9c-1,2.1-1.6,2.6-3.3,2.6h-1v1.8h1.2
			c2.3,0,3.5-1,4.8-3.9l5.9-12.9H1471.4z"/>
		<path class="st2" d="M1490.7,1140.2v6c-1.1-1.1-2.8-1.8-4.6-1.8c-3.7,0-6.4,2.8-6.4,6.5c0,3.7,2.7,6.4,6.4,6.4c2,0,3.6-0.8,4.8-2
			l0.3,1.8h1.5v-16.8H1490.7z M1486.3,1155.4c-2.6,0-4.5-2-4.5-4.6c0-2.6,1.9-4.6,4.5-4.6c2.6,0,4.6,2,4.6,4.6
			C1490.8,1153.4,1488.9,1155.4,1486.3,1155.4z"/>
		<path class="st2" d="M1496.3,1142.5h2.1v-2.2h-2.1V1142.5z M1496.4,1157h2v-12.4h-2V1157z"/>
		<path class="st2" d="M1505.9,1157.3c2.9,0,4.9-1.5,4.9-3.8c0-3-2.5-3.4-4.7-3.8c-1.7-0.3-3.1-0.5-3.1-1.8c0-1.1,1.1-1.8,2.7-1.8
			c1.7,0,2.8,0.7,2.9,2.1h1.8c-0.1-2.3-1.9-3.8-4.7-3.8c-2.8,0-4.7,1.4-4.7,3.6c0,2.8,2.4,3.2,4.5,3.6c1.7,0.3,3.2,0.6,3.2,2
			c0,1.2-1.2,1.9-2.9,1.9c-1.7,0-3-0.8-3.1-2.3h-1.9C1501.1,1155.7,1503,1157.3,1505.9,1157.3z"/>
		<path class="st2" d="M1524.1,1144.6l-0.3,1.9c-1.1-1.4-2.9-2.2-4.9-2.2c-3.7,0-6.4,2.8-6.4,6.5c0,3.7,2.8,6.4,6.4,6.4
			c2,0,3.7-0.8,4.9-2.1l0.2,1.9h1.6v-12.4H1524.1z M1519.1,1155.4c-2.6,0-4.6-2-4.6-4.6c0-2.6,2-4.6,4.6-4.6c2.6,0,4.5,2,4.5,4.6
			C1523.7,1153.5,1521.8,1155.4,1519.1,1155.4z"/>
		<path class="st2" d="M1539.6,1144.6l-0.3,1.9c-1.1-1.4-2.8-2.2-4.8-2.2c-3.4,0-6.1,2.7-6.1,6.1c0,3.5,2.6,6.1,6.1,6.1
			c1.8,0,3.4-0.7,4.5-1.8v0.8c0,2.8-1.7,4.4-4.2,4.4c-1.8,0-3.4-0.9-3.9-2.4h-2c0.7,2.6,2.8,4.2,5.9,4.2c3.8,0,6.1-2.4,6.1-6.4
			v-10.6L1539.6,1144.6z M1534.7,1154.8c-2.5,0-4.3-1.8-4.3-4.3s1.8-4.3,4.3-4.3c2.5,0,4.3,1.8,4.3,4.3S1537.2,1154.8,1534.7,1154.8
			z"/>
		<path class="st2" d="M1550.3,1144.6c-1.8,0-3.1,0.7-4,2l-0.3-1.9h-1.4v12.4h2v-6.7c0-2.4,1.3-3.9,3.6-3.9h1.3v-1.8H1550.3z"/>
		<path class="st2" d="M1564.4,1150.9c0-3.6-2.5-6.5-6.2-6.5c-3.6,0-6.3,2.8-6.3,6.4c0,3.7,2.7,6.5,6.3,6.5c2.7,0,4.9-1.5,5.9-4
			h-2.1c-0.8,1.3-2.1,2.1-3.9,2.1c-2.3,0-4.1-1.5-4.4-3.8h10.6C1564.4,1151.4,1564.4,1151.1,1564.4,1150.9z M1558.2,1146.2
			c2.2,0,3.9,1.4,4.3,3.6h-8.6C1554.3,1147.6,1555.9,1146.2,1558.2,1146.2z"/>
		<path class="st2" d="M1578.7,1150.9c0-3.6-2.5-6.5-6.2-6.5c-3.6,0-6.3,2.8-6.3,6.4c0,3.7,2.7,6.5,6.3,6.5c2.7,0,4.9-1.5,5.9-4
			h-2.1c-0.8,1.3-2.1,2.1-3.9,2.1c-2.3,0-4.1-1.5-4.4-3.8h10.6C1578.7,1151.4,1578.7,1151.1,1578.7,1150.9z M1572.5,1146.2
			c2.2,0,3.9,1.4,4.3,3.6h-8.6C1568.5,1147.6,1570.2,1146.2,1572.5,1146.2z"/>
		<path class="st0" d="M1681.2,1151c0,10.3-8.3,18.6-18.6,18.6c-10.3,0-18.6-8.3-18.6-18.6c0-10.3,8.4-18.6,18.6-18.6
			C1672.8,1132.3,1681.2,1140.7,1681.2,1151z"/>
		<path class="st3" d="M1765,1168.2c9.5,0,17.2-7.7,17.2-17.2c0-9.5-7.7-17.2-17.2-17.2c-9.5,0-17.2,7.7-17.2,17.2
			C1747.8,1160.5,1755.5,1168.2,1765,1168.2z M1765,1169.6c10.3,0,18.6-8.3,18.6-18.6c0-10.3-8.3-18.6-18.6-18.6
			c-10.3,0-18.6,8.3-18.6,18.6C1746.3,1161.3,1754.7,1169.6,1765,1169.6z"/>
		<path class="st8" d="M1357.6,1101.5h449c4.4,0,7.9,3.5,7.9,7.9v83.2c0,4.4-3.5,7.9-7.9,7.9h-449c-4.4,0-7.9-3.5-7.9-7.9v-83.2
			C1349.7,1105,1353.2,1101.5,1357.6,1101.5z"/>
		<path class="st4" d="M1357.6,1237.1h449c4.8,0,8.6,3.9,8.6,8.6v70.2c0,4.8-3.9,8.6-8.6,8.6h-449c-4.8,0-8.6-3.9-8.6-8.6v-70.2
			C1349,1240.9,1352.8,1237.1,1357.6,1237.1z"/>
		<path class="st0" d="M1507.6,1269.8v11l-7.9-11h-3.5v18.1h3.8v-11.3l8.2,11.3h3.3v-18.1H1507.6z"/>
		<path class="st0" d="M1528.2,1280.9c0-4-2.9-7.3-7.2-7.3c-4.1,0-7.2,3.2-7.2,7.4c0,4.2,3.1,7.4,7.2,7.4c3.3,0,5.9-1.9,6.9-5h-4
			c-0.6,1-1.7,1.6-3,1.6c-1.8,0-3.1-1.1-3.4-3h10.6C1528.1,1281.6,1528.2,1281.3,1528.2,1280.9z M1520.9,1276.8
			c1.7,0,2.9,0.9,3.5,2.6h-6.8C1518.1,1277.8,1519.3,1276.8,1520.9,1276.8z"/>
		<path class="st0" d="M1542,1287.9l-4.8-7.3l4.5-6.6h-4.1l-2.6,4.1l-2.4-4.1h-4.3l4.4,6.8l-4.7,7.2h4.2l2.8-4.6l2.8,4.6H1542z"/>
		<path class="st0" d="M1550.1,1284.5c-1.4,0-2.2-0.8-2.2-2.1v-5.4h3.8v-3h-3.8v-3.6h-0.7l-5.5,5.8v0.8h2.5v5.9c0,3.1,1.9,5,5,5h2.7
			v-3.4H1550.1z"/>
		<path class="st0" d="M1571,1274l-0.6,1.3c-1.2-1.1-2.7-1.7-4.5-1.7c-4.2,0-7.3,3.2-7.3,7.4s3.1,7.4,7.3,7.4c1.4,0,2.8-0.4,3.8-1.2
			v5.8h3.8v-19L1571,1274z M1566.2,1284.8c-2.2,0-3.8-1.7-3.8-3.8c0-2.2,1.6-3.8,3.8-3.8c2.2,0,3.8,1.6,3.8,3.8
			C1570,1283.1,1568.4,1284.8,1566.2,1284.8z"/>
		<path class="st0" d="M1583,1288.3c4,0,6.6-2.5,6.6-6.3v-8.1h-3.8v7.6c0,2-1,3.2-2.8,3.2c-1.7,0-2.8-1.2-2.8-3.2v-7.6h-3.8v8.1
			C1576.4,1285.8,1579.1,1288.3,1583,1288.3z"/>
		<path class="st0" d="M1606,1280.9c0-4-2.9-7.3-7.2-7.3c-4.1,0-7.2,3.2-7.2,7.4c0,4.2,3.1,7.4,7.2,7.4c3.3,0,5.9-1.9,6.9-5h-4
			c-0.6,1-1.7,1.6-3,1.6c-1.8,0-3.1-1.1-3.4-3h10.6C1606,1281.6,1606,1281.3,1606,1280.9z M1598.8,1276.8c1.7,0,2.9,0.9,3.5,2.6
			h-6.8C1595.9,1277.8,1597.1,1276.8,1598.8,1276.8z"/>
		<path class="st0" d="M1613.1,1288.3c3.5,0,5.9-1.9,5.9-4.7c0-3.4-2.9-3.9-5.2-4.3c-1.4-0.3-2.6-0.5-2.6-1.4c0-0.8,0.7-1.3,1.9-1.3
			c1.3,0,2.1,0.5,2.1,1.7h3.6c0-2.8-2.2-4.7-5.6-4.7s-5.6,1.8-5.6,4.5c0,3.3,2.8,3.9,5.1,4.3c1.5,0.2,2.7,0.5,2.7,1.5
			c0,0.9-1,1.4-2,1.4c-1.3,0-2.3-0.6-2.3-1.9h-3.7C1607.3,1286.3,1609.6,1288.3,1613.1,1288.3z"/>
		<path class="st0" d="M1627.9,1284.5c-1.4,0-2.2-0.8-2.2-2.1v-5.4h3.8v-3h-3.8v-3.6h-0.7l-5.5,5.8v0.8h2.5v5.9c0,3.1,1.9,5,5,5h2.7
			v-3.4H1627.9z"/>
		<path class="st0" d="M1631.7,1272.1h3.7v-3.5h-3.7V1272.1z M1631.7,1287.9h3.8V1274h-3.8V1287.9z"/>
		<path class="st0" d="M1645.1,1288.3c4.3,0,7.5-3.2,7.5-7.4c0-4.2-3.2-7.4-7.5-7.4c-4.3,0-7.5,3.2-7.5,7.4
			C1637.6,1285.1,1640.8,1288.3,1645.1,1288.3z M1645.1,1284.7c-2.2,0-3.7-1.5-3.7-3.8c0-2.2,1.5-3.8,3.7-3.8s3.7,1.6,3.7,3.8
			C1648.9,1283.2,1647.3,1284.7,1645.1,1284.7z"/>
		<path class="st0" d="M1662.8,1273.6c-1.9,0-3.6,0.8-4.6,2l-0.7-1.7h-2.6v13.9h3.8v-7.3c0-2.2,1.2-3.6,3.1-3.6c1.6,0,2.4,1,2.4,3.1
			v7.8h3.8v-8.4C1668,1275.9,1666,1273.6,1662.8,1273.6z"/>
	</g>
</g>
</svg>
