<?xml version="1.0" encoding="utf-8"?>
<!-- Generator: Adobe Illustrator 27.2.0, SVG Export Plug-In . SVG Version: 6.00 Build 0)  -->
<svg version="1.1" id="Layer_1" xmlns="http://www.w3.org/2000/svg" xmlns:xlink="http://www.w3.org/1999/xlink" x="0px" y="0px"
	 viewBox="0 0 1600 1000" style="enable-background:new 0 0 1600 1000;" xml:space="preserve">
<style type="text/css">
	.st0{fill:#FB5002;}
	.st1{fill:#95D405;}
	.st2{fill:#93D405;}
	.st3{fill:#94D307;}
	.st4{fill:#92D307;}
	.st5{fill:#92D30D;}
	.st6{fill:#91D30D;}
	.st7{fill:#8FD30D;}
	.st8{fill:#90D20F;}
	.st9{fill:#8ED20F;}
	.st10{fill:#8ED213;}
	.st11{fill:#8DD114;}
	.st12{fill:#8DD118;}
	.st13{fill:#8CD118;}
	.st14{fill:#8BD118;}
	.st15{fill:#8BD11B;}
	.st16{fill:#8BD01C;}
	.st17{fill:#8AD01C;}
	.st18{fill:#8AD01F;}
	.st19{fill:#88D022;}
	.st20{fill:#88CF22;}
	.st21{fill:#87CF23;}
	.st22{fill:#87CF25;}
	.st23{fill:#86CF27;}
	.st24{fill:#85CE28;}
	.st25{fill:#85CE2A;}
	.st26{fill:#85CE2C;}
	.st27{fill:#85CE2E;}
	.st28{fill:#83CE2E;}
	.st29{fill:#84CD2F;}
	.st30{fill:#82CD31;}
	.st31{fill:#82CD33;}
	.st32{fill:#81CD33;}
	.st33{fill:#81CD34;}
	.st34{fill:#80CC37;}
	.st35{fill:#80CC38;}
	.st36{fill:#80CC3A;}
	.st37{fill:#7FCC3A;}
	.st38{fill:#7FCC3C;}
	.st39{fill:#80CB3C;}
	.st40{fill:#7ECB3E;}
	.st41{fill:#7ECB3F;}
	.st42{fill:#7DCB3F;}
	.st43{fill:#7DCB41;}
	.st44{fill:#7DCB43;}
	.st45{fill:#7CCA44;}
	.st46{fill:#7CCA46;}
	.st47{fill:#7CCA47;}
	.st48{fill:#7ACA47;}
	.st49{fill:#7ACA49;}
	.st50{fill:#7ACA4A;}
	.st51{fill:#79C94B;}
	.st52{fill:#79C94C;}
	.st53{fill:#78C94E;}
	.st54{fill:#78C94F;}
	.st55{fill:#78C950;}
	.st56{fill:#77C852;}
	.st57{fill:#77C853;}
	.st58{fill:#77C855;}
	.st59{fill:#75C856;}
	.st60{fill:#74C857;}
	.st61{fill:#74C759;}
	.st62{fill:#73C75A;}
	.st63{fill:#73C75C;}
	.st64{fill:#73C75D;}
	.st65{fill:#73C75E;}
	.st66{fill:#72C660;}
	.st67{fill:#72C661;}
	.st68{fill:#70C662;}
	.st69{fill:#70C664;}
	.st70{fill:#70C665;}
	.st71{fill:#6EC666;}
	.st72{fill:#6FC566;}
	.st73{fill:#6DC568;}
	.st74{fill:#6DC569;}
	.st75{fill:#6DC56A;}
	.st76{fill:#6DC56B;}
	.st77{fill:#6DC56C;}
	.st78{fill:#6CC46E;}
	.st79{fill:#6BC46F;}
	.st80{fill:#6BC470;}
	.st81{fill:#6BC472;}
	.st82{fill:#69C473;}
	.st83{fill:#69C474;}
	.st84{fill:#6AC374;}
	.st85{fill:#68C375;}
	.st86{fill:#68C376;}
	.st87{fill:#68C378;}
	.st88{fill:#68C379;}
	.st89{fill:#69C279;}
	.st90{fill:#69C27A;}
	.st91{fill:#69C27B;}
	.st92{fill:#69C27D;}
	.st93{fill:#69C27E;}
	.st94{fill:#68C17F;}
	.st95{fill:#68C180;}
	.st96{fill:#68C181;}
	.st97{fill:#66C182;}
	.st98{fill:#66C183;}
	.st99{fill:#66C184;}
	.st100{fill:#65C085;}
	.st101{fill:#65C086;}
	.st102{fill:#63C087;}
	.st103{fill:#63C089;}
	.st104{fill:#64C08A;}
	.st105{fill:#64C08B;}
	.st106{fill:#64BF8C;}
	.st107{fill:#62BF8D;}
	.st108{fill:#62BF8E;}
	.st109{fill:#61BF8E;}
	.st110{fill:#61BF90;}
	.st111{fill:#61BF91;}
	.st112{fill:#61BF92;}
	.st113{fill:#60BE93;}
	.st114{fill:#60BE94;}
	.st115{fill:#60BE95;}
	.st116{fill:#60BE96;}
	.st117{fill:#5EBE96;}
	.st118{fill:#5EBE98;}
	.st119{fill:#5EBE99;}
	.st120{fill:#5DBD9A;}
	.st121{fill:#5DBD9B;}
	.st122{fill:#5DBD9C;}
	.st123{fill:#5DBD9D;}
	.st124{fill:#5DBC9E;}
	.st125{fill:#5BBDA0;}
	.st126{fill:#5CBBA1;}
	.st127{fill:#5ABBA2;}
	.st128{fill:#5ABBA3;}
	.st129{fill:#5ABBA4;}
	.st130{fill:#59BBA5;}
	.st131{fill:#59BBA6;}
	.st132{fill:#59BBA7;}
	.st133{fill:#59BBA9;}
	.st134{fill:#57BBAA;}
	.st135{fill:#57BBAB;}
	.st136{fill:#57BBAC;}
	.st137{fill:#55BBAD;}
	.st138{fill:#55BBAE;}
	.st139{fill:#54BAAF;}
	.st140{fill:#54BAB0;}
	.st141{fill:#54BAB1;}
	.st142{fill:#54BAB3;}
	.st143{fill:#54BAB4;}
	.st144{fill:#53BAB5;}
	.st145{fill:#53B9B6;}
	.st146{fill:#51B9B7;}
	.st147{fill:#51B9B8;}
	.st148{fill:#51B9B9;}
	.st149{fill:#51B9BA;}
	.st150{fill:#51B9BB;}
	.st151{fill:#52B9BC;}
	.st152{fill:#50B8BD;}
	.st153{fill:#50B8BE;}
	.st154{fill:#4FB8BF;}
	.st155{fill:#4FB8C0;}
	.st156{fill:#4FB8C1;}
	.st157{fill:#4FB8C2;}
	.st158{fill:#4FB8C3;}
	.st159{fill:#4EB7C4;}
	.st160{fill:#4EB7C5;}
	.st161{fill:#4EB7C6;}
	.st162{fill:#4CB7C7;}
	.st163{fill:#4CB7C9;}
	.st164{fill:#4CB7CA;}
	.st165{fill:#4BB6CB;}
	.st166{fill:#4BB6CC;}
	.st167{fill:#4BB6CD;}
	.st168{fill:#4BB6CE;}
	.st169{fill:#49B6CF;}
	.st170{fill:#49B6D0;}
	.st171{fill:#49B6D1;}
	.st172{fill:#48B5D2;}
	.st173{fill:#48B5D4;}
	.st174{fill:#48B5D5;}
	.st175{fill:#48B5D6;}
	.st176{fill:#46B5D7;}
	.st177{fill:#46B5D8;}
	.st178{fill:#47B4D9;}
	.st179{fill:#45B4DA;}
	.st180{fill:#45B4DB;}
	.st181{fill:#45B4DC;}
	.st182{fill:#45B4DD;}
	.st183{fill:#45B4DE;}
	.st184{fill:#43B4DF;}
	.st185{fill:#44B3DF;}
	.st186{fill:#44B3E1;}
	.st187{fill:#44B3E2;}
	.st188{fill:#44B3E3;}
	.st189{fill:#44B2E2;}
	.st190{fill:#43B1E2;}
	.st191{fill:#44B0E1;}
	.st192{fill:#45AFE1;}
	.st193{fill:#46AEE0;}
	.st194{fill:#46ADE0;}
	.st195{fill:#47ACDF;}
	.st196{fill:#48ABDF;}
	.st197{fill:#48A9DE;}
	.st198{fill:#49A8DE;}
	.st199{fill:#47A8DD;}
	.st200{fill:#4AA7DD;}
	.st201{fill:#49A6DC;}
	.st202{fill:#49A5DC;}
	.st203{fill:#4CA4DB;}
	.st204{fill:#4BA3DB;}
	.st205{fill:#4DA2DA;}
	.st206{fill:#4CA1DA;}
	.st207{fill:#4CA0D9;}
	.st208{fill:#4D9FD9;}
	.st209{fill:#4E9ED8;}
	.st210{fill:#509DD8;}
	.st211{fill:#4F9CD7;}
	.st212{fill:#519BD7;}
	.st213{fill:#509AD6;}
	.st214{fill:#5099D6;}
	.st215{fill:#5198D5;}
	.st216{fill:#5197D5;}
	.st217{fill:#5296D4;}
	.st218{fill:#5295D4;}
	.st219{fill:#5494D3;}
	.st220{fill:#5593D2;}
	.st221{fill:#5592D2;}
	.st222{fill:#5691D1;}
	.st223{fill:#5690D1;}
	.st224{fill:#578FD0;}
	.st225{fill:#578DD0;}
	.st226{fill:#588CCF;}
	.st227{fill:#588BCE;}
	.st228{fill:#588ACE;}
	.st229{fill:#5A89CD;}
	.st230{fill:#5988CD;}
	.st231{fill:#5B87CC;}
	.st232{fill:#5B86CC;}
	.st233{fill:#5C85CB;}
	.st234{fill:#5C84CB;}
	.st235{fill:#5C83CA;}
	.st236{fill:#5E82CA;}
	.st237{fill:#5D81C9;}
	.st238{fill:#5F80C9;}
	.st239{fill:#5F80C8;}
	.st240{fill:#6180C7;}
	.st241{fill:#607FC6;}
	.st242{fill:#617EC6;}
	.st243{fill:#627DC5;}
	.st244{fill:#627CC4;}
	.st245{fill:#647BC4;}
	.st246{fill:#637AC3;}
	.st247{fill:#647AC3;}
	.st248{fill:#6479C2;}
	.st249{fill:#6477C1;}
	.st250{fill:#6576C1;}
	.st251{fill:#6675C0;}
	.st252{fill:#6774C0;}
	.st253{fill:#6773BF;}
	.st254{fill:#6872BF;}
	.st255{fill:#6771BE;}
	.st256{fill:#6970BE;}
	.st257{fill:#696FBD;}
	.st258{fill:#696EBD;}
	.st259{fill:#6B6DBC;}
	.st260{fill:#6B6CBC;}
	.st261{fill:#6D6BBB;}
	.st262{fill:#6C6ABC;}
	.st263{fill:#6D69BA;}
	.st264{fill:#6D68B9;}
	.st265{fill:#6E66BA;}
	.st266{fill:#6F65B8;}
	.st267{fill:#7064B8;}
	.st268{fill:#6F63B7;}
	.st269{fill:#7162B8;}
	.st270{fill:#7161B6;}
	.st271{fill:#7260B7;}
	.st272{fill:#735FB6;}
	.st273{fill:#735EB6;}
	.st274{fill:#745DB4;}
	.st275{fill:#745CB5;}
	.st276{fill:#745CB3;}
	.st277{fill:#745BB2;}
	.st278{fill:#7659B2;}
	.st279{fill:#7658B1;}
	.st280{fill:#7757B1;}
	.st281{fill:#7856B0;}
	.st282{fill:#7855B0;}
	.st283{fill:#7954AF;}
	.st284{fill:#7953AF;}
	.st285{fill:#7A52AE;}
	.st286{fill:#7B50AE;}
	.st287{fill:#7B51AD;}
	.st288{fill:#7C4FAD;}
	.st289{fill:#7C4EAC;}
	.st290{fill:#7D4DAC;}
	.st291{fill:#7D4CAB;}
	.st292{fill:#7E4BAB;}
	.st293{fill:#7E4AAA;}
	.st294{fill:#7F49AA;}
	.st295{fill:#8049A9;}
	.st296{fill:#8047A9;}
	.st297{fill:#8146A8;}
	.st298{fill:#8045A8;}
	.st299{fill:#8144A7;}
	.st300{fill:#8143A7;}
	.st301{fill:#8242A7;}
	.st302{fill:#8342A6;}
	.st303{fill:#8340A6;}
	.st304{fill:#833FA6;}
	.st305{fill:#843EA5;}
	.st306{fill:#853DA5;}
	.st307{fill:#853CA4;}
	.st308{fill:#863CA3;}
	.st309{fill:#873AA3;}
	.st310{fill:#8739A2;}
	.st311{fill:#8938A2;}
	.st312{fill:#8837A1;}
	.st313{fill:#8937A1;}
	.st314{fill:#8935A0;}
	.st315{fill:#8A34A0;}
	.st316{fill:#8A339F;}
	.st317{fill:#8A329F;}
	.st318{fill:#8A329E;}
	.st319{fill:#8A309E;}
	.st320{fill:#8A2F9D;}
	.st321{fill:#8A2E9D;}
	.st322{fill:#8B2E9C;}
	.st323{fill:#8B2D9C;}
	.st324{fill:#8D2B9B;}
	.st325{fill:#8E2B9B;}
	.st326{fill:#8E2A9A;}
	.st327{fill:#8F289A;}
	.st328{fill:#8F2799;}
	.st329{fill:#902799;}
	.st330{fill:#902598;}
	.st331{fill:#902498;}
	.st332{fill:#912497;}
	.st333{fill:#912297;}
	.st334{fill:#932296;}
	.st335{fill:#932196;}
	.st336{fill:#941F95;}
	.st337{fill:#951D94;}
	.st338{fill:#961D93;}
	.st339{fill:#961D92;}
	.st340{fill:#971D91;}
	.st341{fill:#971D90;}
	.st342{fill:#981D8E;}
	.st343{fill:#981F8E;}
	.st344{fill:#991E8D;}
	.st345{fill:#991F8C;}
	.st346{fill:#991F8B;}
	.st347{fill:#991F8A;}
	.st348{fill:#9A1E89;}
	.st349{fill:#9A1F88;}
	.st350{fill:#9B1E87;}
	.st351{fill:#9B1E86;}
	.st352{fill:#9D1E85;}
	.st353{fill:#9E2084;}
	.st354{fill:#9E2083;}
	.st355{fill:#9F1F83;}
	.st356{fill:#A01F82;}
	.st357{fill:#A11F80;}
	.st358{fill:#A21F7F;}
	.st359{fill:#A21F7E;}
	.st360{fill:#A3207D;}
	.st361{fill:#A3207C;}
	.st362{fill:#A4207B;}
	.st363{fill:#A4207A;}
	.st364{fill:#A52079;}
	.st365{fill:#A52078;}
	.st366{fill:#A62077;}
	.st367{fill:#A62076;}
	.st368{fill:#A72174;}
	.st369{fill:#A72173;}
	.st370{fill:#A82172;}
	.st371{fill:#A82171;}
	.st372{fill:#AA2170;}
	.st373{fill:#AA216F;}
	.st374{fill:#AB216E;}
	.st375{fill:#AB216D;}
	.st376{fill:#AC226C;}
	.st377{fill:#AC226B;}
	.st378{fill:#AD226A;}
	.st379{fill:#AE2268;}
	.st380{fill:#AF2367;}
	.st381{fill:#AF2366;}
	.st382{fill:#B02365;}
	.st383{fill:#B02364;}
	.st384{fill:#B12363;}
	.st385{fill:#B12362;}
	.st386{fill:#B22361;}
	.st387{fill:#B22360;}
	.st388{fill:#B32260;}
	.st389{fill:#B3245E;}
	.st390{fill:#B3245D;}
	.st391{fill:#B3245C;}
	.st392{fill:#B4245B;}
	.st393{fill:#B4245A;}
	.st394{fill:#B5245A;}
	.st395{fill:#B72359;}
	.st396{fill:#B72358;}
	.st397{fill:#B82358;}
	.st398{fill:#B82357;}
	.st399{fill:#B92355;}
	.st400{fill:#B92554;}
	.st401{fill:#BA2453;}
	.st402{fill:#BA2452;}
	.st403{fill:#BB2451;}
	.st404{fill:#BB2450;}
	.st405{fill:#BC2450;}
	.st406{fill:#BC244E;}
	.st407{fill:#BD254D;}
	.st408{fill:#BD254C;}
	.st409{fill:#BE254B;}
	.st410{fill:#BF254A;}
	.st411{fill:#BF2549;}
	.st412{fill:#C02648;}
	.st413{fill:#C02647;}
	.st414{fill:#C02646;}
	.st415{fill:#C02645;}
	.st416{fill:#C12644;}
	.st417{fill:#C12643;}
	.st418{fill:#C22643;}
	.st419{fill:#C22641;}
	.st420{fill:#C42740;}
	.st421{fill:#C4273F;}
	.st422{fill:#C5273E;}
	.st423{fill:#C6263C;}
	.st424{fill:#C7263B;}
	.st425{fill:#C7263A;}
	.st426{fill:#C82639;}
	.st427{fill:#C92637;}
	.st428{fill:#C92636;}
	.st429{fill:#CA2735;}
	.st430{fill:#CB2733;}
	.st431{fill:#CB2732;}
	.st432{fill:#CC2831;}
	.st433{fill:#CC282F;}
	.st434{fill:#CC282E;}
	.st435{fill:#CD282E;}
	.st436{fill:#CD282D;}
	.st437{fill:#CE292B;}
	.st438{fill:#D0292B;}
	.st439{fill:#CF292A;}
	.st440{fill:#D12928;}
	.st441{fill:#D22826;}
	.st442{fill:#D22825;}
	.st443{fill:#D32825;}
	.st444{fill:#D32823;}
	.st445{fill:#D42822;}
	.st446{fill:#D42922;}
	.st447{fill:#D52920;}
	.st448{fill:#D6291E;}
	.st449{fill:#D7291C;}
	.st450{fill:#D72A1C;}
	.st451{fill:#D72C1C;}
	.st452{fill:#D82D1C;}
	.st453{fill:#D82F1D;}
	.st454{fill:#D8301D;}
	.st455{fill:#D9311D;}
	.st456{fill:#D9331C;}
	.st457{fill:#D9341C;}
	.st458{fill:#DA351C;}
	.st459{fill:#DA371C;}
	.st460{fill:#DA381D;}
	.st461{fill:#DA391D;}
	.st462{fill:#DB3A1D;}
	.st463{fill:#DB3C1E;}
	.st464{fill:#DB3D1E;}
	.st465{fill:#DB3E1E;}
	.st466{fill:#DC401D;}
	.st467{fill:#DC411D;}
	.st468{fill:#DC421D;}
	.st469{fill:#DC431E;}
	.st470{fill:#DD441E;}
	.st471{fill:#DD461E;}
	.st472{fill:#DC471D;}
	.st473{fill:#DD481D;}
	.st474{fill:#DD491D;}
	.st475{fill:#DD4B1E;}
	.st476{fill:#DD4C1E;}
	.st477{fill:#DE4D1E;}
	.st478{fill:#DE4E1D;}
	.st479{fill:#DF4F1D;}
	.st480{fill:#DF501D;}
	.st481{fill:#DF521E;}
	.st482{fill:#E0531E;}
	.st483{fill:#E0541D;}
	.st484{fill:#E0551D;}
	.st485{fill:#E0561F;}
	.st486{fill:#E1571E;}
	.st487{fill:#E1581E;}
	.st488{fill:#E15A1E;}
	.st489{fill:#E15B1F;}
	.st490{fill:#E25B1F;}
	.st491{fill:#E25C1F;}
	.st492{fill:#E25D1E;}
	.st493{fill:#E25E1E;}
	.st494{fill:#E15F1E;}
	.st495{fill:#E3601F;}
	.st496{fill:#E2621F;}
	.st497{fill:#E2631E;}
	.st498{fill:#E2641E;}
	.st499{fill:#E3641E;}
	.st500{fill:#E3651E;}
	.st501{fill:#E4661F;}
	.st502{fill:#E4671F;}
	.st503{fill:#E4681E;}
	.st504{fill:#E5691E;}
	.st505{fill:#E56A1E;}
	.st506{fill:#E56B1F;}
	.st507{fill:#E56D1F;}
	.st508{fill:#E56E1E;}
	.st509{fill:#E66E1E;}
	.st510{fill:#E66F1E;}
	.st511{fill:#E6701E;}
	.st512{fill:#E6711F;}
	.st513{fill:#E7721F;}
	.st514{fill:#E67320;}
	.st515{fill:#E67420;}
	.st516{fill:#E67520;}
	.st517{fill:#E6771F;}
	.st518{fill:#E7781F;}
	.st519{fill:#E87920;}
	.st520{fill:#E87A20;}
	.st521{fill:#E87B1F;}
	.st522{fill:#E97B1F;}
	.st523{fill:#E97B21;}
	.st524{fill:#E97C21;}
	.st525{fill:#E97D20;}
	.st526{fill:#E97E20;}
	.st527{fill:#EA7F1F;}
	.st528{fill:#EA8021;}
	.st529{fill:#E98120;}
	.st530{fill:#EA8220;}
	.st531{fill:#EA831F;}
	.st532{fill:#EC8321;}
	.st533{fill:#EB8421;}
	.st534{fill:#EB8620;}
	.st535{fill:#EC8720;}
	.st536{fill:#EC8821;}
	.st537{fill:#EC8921;}
	.st538{fill:#EC8A20;}
	.st539{fill:#EC8B20;}
	.st540{fill:#ED8C1F;}
	.st541{fill:#ED8D21;}
	.st542{fill:#ED8E21;}
	.st543{fill:#EC8F20;}
	.st544{fill:#ED9022;}
	.st545{fill:#EE9121;}
	.st546{fill:#EE9221;}
	.st547{fill:#EE9320;}
	.st548{fill:#EE9322;}
	.st549{fill:#EF9422;}
	.st550{fill:#EF9621;}
	.st551{fill:#EF9721;}
	.st552{fill:#EF9823;}
	.st553{fill:#EF9922;}
	.st554{fill:#F09A21;}
	.st555{fill:#F09B21;}
	.st556{fill:#F19C20;}
	.st557{fill:none;}
	.st558{fill:#FFFFFF;}
</style>
<rect x="-12.5" y="-10.6" class="st0" width="1625" height="1021.2"/>
<g>
	<ellipse class="st106" cx="897.8" cy="-288.2" rx="291" ry="290.3"/>
	<ellipse class="st107" cx="894.3" cy="-285.6" rx="291.4" ry="290.8"/>
	<ellipse class="st108" cx="890.2" cy="-283.3" rx="291.4" ry="290.8"/>
	<ellipse class="st109" cx="886.2" cy="-280.7" rx="291.9" ry="291.2"/>
	<ellipse class="st110" cx="881.8" cy="-278" rx="292.3" ry="291.6"/>
	<ellipse class="st111" cx="877.8" cy="-275.3" rx="292.3" ry="291.6"/>
	<ellipse class="st112" cx="873.8" cy="-272.7" rx="292.8" ry="292.1"/>
	<ellipse class="st113" cx="869.7" cy="-270.4" rx="293.2" ry="292.5"/>
	<ellipse class="st114" cx="865.3" cy="-267.8" rx="293.7" ry="293"/>
	<ellipse class="st115" cx="861.3" cy="-265.1" rx="293.7" ry="293"/>
	<ellipse class="st116" cx="856.8" cy="-262.4" rx="294.1" ry="293.4"/>
	<ellipse class="st117" cx="852.4" cy="-259.8" rx="294.6" ry="293.9"/>
	<ellipse class="st118" cx="847.9" cy="-257.1" rx="294.6" ry="293.9"/>
	<ellipse class="st119" cx="843.9" cy="-254.4" rx="295" ry="294.3"/>
	<ellipse class="st120" cx="839.4" cy="-251.8" rx="295.5" ry="294.8"/>
	<ellipse class="st121" cx="835" cy="-249.1" rx="295.5" ry="294.8"/>
	<ellipse class="st122" cx="830.5" cy="-246.4" rx="295.9" ry="295.2"/>
	<ellipse class="st123" cx="825.6" cy="-243.8" rx="296.3" ry="295.6"/>
	<ellipse class="st124" cx="821.2" cy="-241.1" rx="296.8" ry="296.1"/>
	<ellipse class="st125" cx="816.7" cy="-238.4" rx="296.8" ry="296.1"/>
	<ellipse class="st125" cx="812.3" cy="-235.8" rx="297.2" ry="296.5"/>
	<ellipse class="st126" cx="807.4" cy="-233.1" rx="297.7" ry="297"/>
	<ellipse class="st127" cx="802.9" cy="-230" rx="297.7" ry="297"/>
	<ellipse class="st128" cx="798" cy="-227.3" rx="298.1" ry="297.4"/>
	<ellipse class="st129" cx="793.1" cy="-224.7" rx="298.6" ry="297.9"/>
	<ellipse class="st130" cx="788.6" cy="-222" rx="299" ry="298.3"/>
	<ellipse class="st131" cx="783.7" cy="-219.3" rx="299" ry="298.3"/>
	<ellipse class="st132" cx="778.8" cy="-216.2" rx="299.5" ry="298.8"/>
	<ellipse class="st132" cx="773.9" cy="-213.5" rx="299.9" ry="299.2"/>
	<ellipse class="st133" cx="769" cy="-210.9" rx="299.9" ry="299.2"/>
	<ellipse class="st134" cx="764.1" cy="-208.2" rx="300.4" ry="299.6"/>
	<ellipse class="st135" cx="759.2" cy="-205.1" rx="300.8" ry="300.1"/>
	<ellipse class="st136" cx="754.3" cy="-202.4" rx="301.2" ry="300.5"/>
	<ellipse class="st137" cx="749.4" cy="-199.8" rx="301.2" ry="300.5"/>
	<ellipse class="st138" cx="744.5" cy="-196.6" rx="301.7" ry="301"/>
	<ellipse class="st139" cx="739.2" cy="-194" rx="302.1" ry="301.4"/>
	<ellipse class="st140" cx="734.3" cy="-190.9" rx="302.1" ry="301.4"/>
	<ellipse class="st141" cx="729.4" cy="-188.2" rx="302.6" ry="301.9"/>
	<ellipse class="st141" cx="724" cy="-185.5" rx="303" ry="302.3"/>
	<ellipse class="st142" cx="719.1" cy="-182.4" rx="303" ry="302.3"/>
	<ellipse class="st143" cx="713.8" cy="-179.8" rx="303.5" ry="302.8"/>
	<ellipse class="st144" cx="708.4" cy="-176.6" rx="303.9" ry="303.2"/>
	<ellipse class="st145" cx="703.5" cy="-174" rx="304.4" ry="303.6"/>
	<ellipse class="st146" cx="698.2" cy="-170.9" rx="304.4" ry="303.6"/>
	<ellipse class="st147" cx="692.8" cy="-168.2" rx="304.8" ry="304.1"/>
	<ellipse class="st148" cx="687.5" cy="-165.1" rx="305.3" ry="304.5"/>
	<ellipse class="st149" cx="682.6" cy="-162" rx="305.3" ry="304.5"/>
	<ellipse class="st150" cx="677.2" cy="-159.3" rx="305.7" ry="305"/>
	<ellipse class="st151" cx="671.9" cy="-156.2" rx="306.1" ry="305.4"/>
	<ellipse class="st152" cx="666.5" cy="-153.5" rx="306.6" ry="305.9"/>
	<ellipse class="st153" cx="661.2" cy="-150.4" rx="306.6" ry="305.9"/>
	<ellipse class="st154" cx="655.4" cy="-147.3" rx="307" ry="306.3"/>
	<ellipse class="st155" cx="650" cy="-144.6" rx="307.5" ry="306.8"/>
	<ellipse class="st156" cx="644.7" cy="-141.5" rx="307.5" ry="306.8"/>
	<ellipse class="st157" cx="639.4" cy="-138.4" rx="307.9" ry="307.2"/>
	<ellipse class="st158" cx="634" cy="-135.7" rx="308.4" ry="307.6"/>
	<ellipse class="st159" cx="628.2" cy="-132.6" rx="308.8" ry="308.1"/>
	<ellipse class="st160" cx="622.9" cy="-129.5" rx="308.8" ry="308.1"/>
	<ellipse class="st161" cx="617.5" cy="-126.8" rx="309.3" ry="308.5"/>
	<ellipse class="st162" cx="611.7" cy="-123.7" rx="309.7" ry="309"/>
	<ellipse class="st162" cx="606.4" cy="-120.6" rx="309.7" ry="309"/>
	<ellipse class="st163" cx="600.6" cy="-117.5" rx="310.2" ry="309.4"/>
	<ellipse class="st164" cx="595.2" cy="-114.8" rx="310.6" ry="309.9"/>
	<ellipse class="st165" cx="589.4" cy="-111.7" rx="311" ry="310.3"/>
	<ellipse class="st166" cx="584.1" cy="-108.6" rx="311" ry="310.3"/>
	<ellipse class="st167" cx="578.3" cy="-105.5" rx="311.5" ry="310.8"/>
	<ellipse class="st168" cx="572.5" cy="-102.4" rx="311.9" ry="311.2"/>
	<ellipse class="st169" cx="567.2" cy="-99.7" rx="311.9" ry="311.2"/>
	<ellipse class="st170" cx="561.4" cy="-96.6" rx="312.4" ry="311.6"/>
	<ellipse class="st171" cx="555.6" cy="-93.5" rx="312.8" ry="312.1"/>
	<ellipse class="st172" cx="550.2" cy="-90.4" rx="312.8" ry="312.1"/>
	<ellipse class="st173" cx="544.4" cy="-87.3" rx="313.3" ry="312.5"/>
	<ellipse class="st173" cx="538.6" cy="-84.2" rx="313.7" ry="313"/>
	<ellipse class="st174" cx="532.8" cy="-81.1" rx="314.2" ry="313.4"/>
	<ellipse class="st175" cx="527.1" cy="-77.9" rx="314.2" ry="313.4"/>
	<ellipse class="st176" cx="521.3" cy="-74.8" rx="314.6" ry="313.9"/>
	<ellipse class="st177" cx="515.9" cy="-72.2" rx="315.1" ry="314.3"/>
	<ellipse class="st178" cx="510.1" cy="-69.1" rx="315.1" ry="314.3"/>
	<ellipse class="st179" cx="504.3" cy="-65.9" rx="315.5" ry="314.8"/>
	<ellipse class="st180" cx="498.5" cy="-62.8" rx="315.9" ry="315.2"/>
	<ellipse class="st181" cx="492.7" cy="-59.7" rx="316.4" ry="315.6"/>
	<ellipse class="st182" cx="486.9" cy="-56.6" rx="316.4" ry="315.6"/>
	<ellipse class="st183" cx="481.2" cy="-53.5" rx="316.8" ry="316.1"/>
	<ellipse class="st184" cx="475.4" cy="-50.4" rx="317.3" ry="316.5"/>
	<ellipse class="st185" cx="469.6" cy="-47.3" rx="317.3" ry="316.5"/>
	<ellipse class="st186" cx="463.8" cy="-44.2" rx="317.7" ry="317"/>
	<ellipse class="st187" cx="458" cy="-41" rx="318.2" ry="317.4"/>
	<ellipse class="st188" cx="496.3" cy="-61.5" rx="318.6" ry="317.9"/>
	<ellipse class="st189" cx="444.6" cy="-33.5" rx="319.1" ry="318.3"/>
	<ellipse class="st190" cx="437" cy="-29.5" rx="320" ry="319.2"/>
	<ellipse class="st191" cx="429" cy="-25.5" rx="320.9" ry="320.1"/>
	<ellipse class="st192" cx="421.4" cy="-21.5" rx="321.7" ry="321"/>
	<ellipse class="st193" cx="413.9" cy="-17.5" rx="322.6" ry="321.9"/>
	<ellipse class="st194" cx="406.3" cy="-13" rx="323.5" ry="322.8"/>
	<ellipse class="st195" cx="398.7" cy="-9" rx="324.4" ry="323.6"/>
	<ellipse class="st196" cx="391.1" cy="-5" rx="325.3" ry="324.5"/>
	<ellipse class="st197" cx="383.6" cy="-1" rx="326.2" ry="325.4"/>
	<ellipse class="st198" cx="376" cy="3.4" rx="327.1" ry="326.3"/>
	<ellipse class="st199" cx="368.4" cy="7.4" rx="328" ry="327.2"/>
	<ellipse class="st200" cx="360.8" cy="11.4" rx="328.4" ry="327.6"/>
	<ellipse class="st201" cx="352.8" cy="15.9" rx="329.3" ry="328.5"/>
	<ellipse class="st202" cx="345.2" cy="19.9" rx="330.2" ry="329.4"/>
	<ellipse class="st203" cx="337.7" cy="23.9" rx="331.1" ry="330.3"/>
	<ellipse class="st204" cx="330.1" cy="28.3" rx="332" ry="331.2"/>
	<ellipse class="st205" cx="322.5" cy="32.3" rx="332.9" ry="332.1"/>
	<ellipse class="st206" cx="314.9" cy="36.3" rx="333.8" ry="333"/>
	<ellipse class="st207" cx="307.4" cy="40.8" rx="334.7" ry="333.9"/>
	<ellipse class="st208" cx="299.8" cy="44.8" rx="335.6" ry="334.8"/>
	<ellipse class="st209" cx="292.2" cy="48.8" rx="336.4" ry="335.7"/>
	<ellipse class="st210" cx="284.6" cy="53.2" rx="337.3" ry="336.5"/>
	<ellipse class="st211" cx="277.1" cy="57.2" rx="338.2" ry="337.4"/>
	<ellipse class="st212" cx="269.5" cy="61.7" rx="338.7" ry="337.9"/>
	<ellipse class="st213" cx="261.9" cy="65.7" rx="339.6" ry="338.8"/>
	<ellipse class="st214" cx="254.8" cy="69.7" rx="340.5" ry="339.7"/>
	<ellipse class="st215" cx="247.2" cy="74.1" rx="341.4" ry="340.5"/>
	<ellipse class="st216" cx="239.6" cy="78.1" rx="342.2" ry="341.4"/>
	<ellipse class="st217" cx="232" cy="82.5" rx="343.1" ry="342.3"/>
	<ellipse class="st218" cx="224.9" cy="86.5" rx="344" ry="343.2"/>
	<ellipse class="st219" cx="217.3" cy="91" rx="344.9" ry="344.1"/>
	<ellipse class="st220" cx="209.8" cy="95" rx="345.8" ry="345"/>
	<ellipse class="st221" cx="202.6" cy="99" rx="346.7" ry="345.9"/>
	<ellipse class="st222" cx="195.1" cy="103.4" rx="347.6" ry="346.8"/>
	<ellipse class="st223" cx="187.9" cy="107.4" rx="348" ry="347.2"/>
	<ellipse class="st224" cx="180.4" cy="111.9" rx="348.9" ry="348.1"/>
	<ellipse class="st225" cx="173.2" cy="115.9" rx="349.8" ry="349"/>
	<ellipse class="st226" cx="166.1" cy="120.3" rx="350.7" ry="349.9"/>
	<ellipse class="st226" cx="158.5" cy="124.3" rx="351.6" ry="350.8"/>
	<ellipse class="st227" cx="151.4" cy="128.3" rx="352.5" ry="351.7"/>
	<ellipse class="st228" cx="144.3" cy="132.8" rx="353.4" ry="352.5"/>
	<ellipse class="st229" cx="137.1" cy="136.8" rx="354.3" ry="353.4"/>
	<ellipse class="st230" cx="130" cy="141.2" rx="355.2" ry="354.3"/>
	<ellipse class="st231" cx="122.9" cy="145.2" rx="356.1" ry="355.2"/>
	<ellipse class="st232" cx="115.7" cy="149.7" rx="356.9" ry="356.1"/>
	<ellipse class="st233" cx="108.6" cy="153.7" rx="357.8" ry="357"/>
	<ellipse class="st234" cx="101.5" cy="157.7" rx="358.3" ry="357.4"/>
	<ellipse class="st235" cx="94.8" cy="162.1" rx="359.2" ry="358.3"/>
	<ellipse class="st236" cx="87.7" cy="166.1" rx="360.1" ry="359.2"/>
	<ellipse class="st237" cx="81" cy="170.6" rx="361" ry="360.1"/>
	<ellipse class="st238" cx="73.8" cy="174.6" rx="361.8" ry="361"/>
	<ellipse class="st239" cx="67.2" cy="179" rx="362.7" ry="361.9"/>
	<ellipse class="st239" cx="60.5" cy="183" rx="363.6" ry="362.8"/>
	<ellipse class="st240" cx="53.4" cy="187" rx="364.5" ry="363.7"/>
	<ellipse class="st241" cx="46.7" cy="191.5" rx="365.4" ry="364.5"/>
	<ellipse class="st242" cx="40" cy="195.5" rx="366.3" ry="365.4"/>
	<ellipse class="st243" cx="33.3" cy="199.5" rx="367.2" ry="366.3"/>
	<ellipse class="st244" cx="27.1" cy="203.9" rx="368.1" ry="367.2"/>
	<ellipse class="st245" cx="20.4" cy="207.9" rx="368.5" ry="367.7"/>
	<ellipse class="st246" cx="13.7" cy="212.4" rx="369.4" ry="368.6"/>
	<ellipse class="st247" cx="7.5" cy="216.4" rx="370.3" ry="369.4"/>
	<ellipse class="st248" cx="0.8" cy="220.4" rx="371.2" ry="370.3"/>
	<ellipse class="st249" cx="-5.5" cy="224.8" rx="372.1" ry="371.2"/>
	<ellipse class="st250" cx="-11.7" cy="228.8" rx="373" ry="372.1"/>
	<ellipse class="st251" cx="-17.9" cy="232.8" rx="373.9" ry="373"/>
	<ellipse class="st252" cx="-24.2" cy="237.3" rx="374.8" ry="373.9"/>
	<ellipse class="st253" cx="-30.4" cy="241.3" rx="375.7" ry="374.8"/>
	<ellipse class="st254" cx="-36.7" cy="245.3" rx="376.6" ry="375.7"/>
	<ellipse class="st255" cx="-42.9" cy="249.3" rx="377.4" ry="376.6"/>
	<ellipse class="st256" cx="-48.7" cy="253.7" rx="377.9" ry="377"/>
	<ellipse class="st257" cx="-54.9" cy="257.7" rx="378.8" ry="377.9"/>
	<ellipse class="st258" cx="-60.7" cy="261.7" rx="379.7" ry="378.8"/>
	<ellipse class="st259" cx="-66.5" cy="265.7" rx="380.6" ry="379.7"/>
	<ellipse class="st260" cx="-72.3" cy="270.2" rx="381.5" ry="380.6"/>
	<ellipse class="st261" cx="-78.1" cy="274.2" rx="382.3" ry="381.4"/>
	<ellipse class="st262" cx="-83.9" cy="278.2" rx="383.2" ry="382.3"/>
	<ellipse class="st263" cx="-89.7" cy="282.2" rx="384.1" ry="383.2"/>
	<ellipse class="st263" cx="-95" cy="286.2" rx="385" ry="384.1"/>
	<ellipse class="st264" cx="-100.8" cy="290.2" rx="385.9" ry="385"/>
	<ellipse class="st265" cx="-106.2" cy="294.2" rx="386.8" ry="385.9"/>
	<ellipse class="st266" cx="-111.5" cy="298.6" rx="387.7" ry="386.8"/>
	<ellipse class="st267" cx="-116.9" cy="302.6" rx="388.1" ry="387.2"/>
	<ellipse class="st268" cx="-122.2" cy="306.6" rx="389" ry="388.1"/>
	<ellipse class="st269" cx="-127.6" cy="310.6" rx="389.9" ry="389"/>
	<ellipse class="st270" cx="-132.5" cy="314.6" rx="390.8" ry="389.9"/>
	<ellipse class="st271" cx="-137.4" cy="318.6" rx="391.7" ry="390.8"/>
	<ellipse class="st272" cx="-142.7" cy="322.6" rx="392.6" ry="391.7"/>
	<ellipse class="st273" cx="-147.6" cy="326.6" rx="393.5" ry="392.6"/>
	<ellipse class="st274" cx="-152.5" cy="330.6" rx="394.4" ry="393.4"/>
	<ellipse class="st275" cx="-157.4" cy="334.6" rx="395.3" ry="394.3"/>
	<ellipse class="st276" cx="-161.9" cy="338.6" rx="396.2" ry="395.2"/>
	<ellipse class="st277" cx="-166.8" cy="342.6" rx="397.1" ry="396.1"/>
	<ellipse class="st278" cx="-171.2" cy="346.6" rx="397.5" ry="396.6"/>
	<ellipse class="st279" cx="-175.7" cy="350.2" rx="398.4" ry="397.4"/>
	<ellipse class="st280" cx="-180.2" cy="354.2" rx="399.3" ry="398.3"/>
	<ellipse class="st281" cx="-184.6" cy="358.2" rx="400.2" ry="399.2"/>
	<ellipse class="st282" cx="-189.1" cy="362.2" rx="401.1" ry="400.1"/>
	<ellipse class="st283" cx="-193.1" cy="366.2" rx="402" ry="401"/>
	<ellipse class="st284" cx="-197.1" cy="370.2" rx="402.8" ry="401.9"/>
	<ellipse class="st285" cx="-201.5" cy="373.7" rx="403.7" ry="402.8"/>
	<ellipse class="st286" cx="-205.6" cy="377.7" rx="404.6" ry="403.7"/>
	<ellipse class="st287" cx="-209.1" cy="381.7" rx="405.5" ry="404.6"/>
	<ellipse class="st288" cx="-213.1" cy="385.3" rx="406.4" ry="405.4"/>
	<ellipse class="st289" cx="-216.7" cy="389.3" rx="407.3" ry="406.3"/>
	<ellipse class="st290" cx="-220.7" cy="393.3" rx="407.7" ry="406.8"/>
	<ellipse class="st291" cx="-224.3" cy="396.9" rx="408.6" ry="407.7"/>
	<ellipse class="st292" cx="-227.4" cy="400.9" rx="409.5" ry="408.6"/>
	<ellipse class="st293" cx="-231" cy="404.9" rx="410.4" ry="409.5"/>
	<ellipse class="st294" cx="-234.5" cy="408.4" rx="411.3" ry="410.3"/>
	<ellipse class="st295" cx="-237.6" cy="412.4" rx="412.2" ry="411.2"/>
	<ellipse class="st296" cx="-240.8" cy="416" rx="413.1" ry="412.1"/>
	<ellipse class="st297" cx="-243.9" cy="419.5" rx="414" ry="413"/>
	<ellipse class="st298" cx="-246.6" cy="423.5" rx="414.9" ry="413.9"/>
	<ellipse class="st299" cx="-249.7" cy="427.1" rx="415.8" ry="414.8"/>
	<ellipse class="st300" cx="-252.3" cy="431.1" rx="416.7" ry="415.7"/>
	<ellipse class="st301" cx="-255" cy="434.6" rx="417.6" ry="416.6"/>
	<ellipse class="st302" cx="-257.7" cy="438.2" rx="418" ry="417"/>
	<ellipse class="st303" cx="-260.4" cy="442.2" rx="418.9" ry="417.9"/>
	<ellipse class="st304" cx="-262.6" cy="445.8" rx="419.8" ry="418.8"/>
	<ellipse class="st305" cx="-264.8" cy="449.3" rx="420.7" ry="419.7"/>
	<ellipse class="st306" cx="-267.1" cy="452.9" rx="421.6" ry="420.6"/>
	<ellipse class="st307" cx="-269.3" cy="456.9" rx="422.5" ry="421.5"/>
	<ellipse class="st308" cx="-271.5" cy="460.4" rx="423.3" ry="422.3"/>
	<ellipse class="st309" cx="-273.3" cy="464" rx="424.2" ry="423.2"/>
	<ellipse class="st310" cx="-275.1" cy="467.5" rx="425.1" ry="424.1"/>
	<ellipse class="st311" cx="-276.9" cy="471.1" rx="426" ry="425"/>
	<ellipse class="st312" cx="-278.6" cy="474.7" rx="426.9" ry="425.9"/>
	<ellipse class="st313" cx="-280" cy="478.2" rx="427.4" ry="426.3"/>
	<ellipse class="st314" cx="-281.3" cy="481.8" rx="428.2" ry="427.2"/>
	<ellipse class="st315" cx="-282.7" cy="485.3" rx="429.1" ry="428.1"/>
	<ellipse class="st316" cx="-284" cy="488.9" rx="430" ry="429"/>
	<ellipse class="st317" cx="-285.3" cy="492.4" rx="430.9" ry="429.9"/>
	<ellipse class="st318" cx="-286.2" cy="495.6" rx="431.8" ry="430.8"/>
	<ellipse class="st319" cx="-287.1" cy="499.1" rx="432.7" ry="431.7"/>
	<ellipse class="st320" cx="-288" cy="502.7" rx="433.6" ry="432.6"/>
	<ellipse class="st321" cx="-288.4" cy="506.2" rx="434.5" ry="433.5"/>
	<ellipse class="st322" cx="-288.9" cy="509.3" rx="435.4" ry="434.3"/>
	<ellipse class="st323" cx="-289.3" cy="512.9" rx="436.3" ry="435.2"/>
	<ellipse class="st324" cx="-289.8" cy="516" rx="437.2" ry="436.1"/>
	<ellipse class="st325" cx="-290.2" cy="519.6" rx="437.6" ry="436.6"/>
	<ellipse class="st326" cx="-290.2" cy="523.1" rx="438.5" ry="437.5"/>
	<ellipse class="st327" cx="-290.2" cy="526.2" rx="439.4" ry="438.3"/>
	<ellipse class="st328" cx="-290.2" cy="529.8" rx="440.3" ry="439.2"/>
	<ellipse class="st329" cx="-289.8" cy="532.9" rx="441.2" ry="440.1"/>
	<ellipse class="st330" cx="-289.3" cy="536" rx="442.1" ry="441"/>
	<ellipse class="st331" cx="-288.9" cy="539.6" rx="443" ry="441.9"/>
	<ellipse class="st332" cx="-288.4" cy="542.7" rx="443.8" ry="442.8"/>
	<ellipse class="st333" cx="-287.6" cy="545.8" rx="444.7" ry="443.7"/>
	<ellipse class="st334" cx="-287.1" cy="548.9" rx="445.6" ry="444.6"/>
	<ellipse class="st335" cx="-285.8" cy="552.5" rx="446.5" ry="445.5"/>
	<ellipse class="st336" cx="-284.9" cy="555.6" rx="447" ry="445.9"/>
	<ellipse class="st336" cx="-283.5" cy="558.7" rx="447.9" ry="446.8"/>
	<ellipse class="st337" cx="-282.2" cy="561.8" rx="448.7" ry="447.7"/>
	<ellipse class="st338" cx="-277.8" cy="571.1" rx="449.2" ry="448.1"/>
	<ellipse class="st339" cx="-272" cy="579.6" rx="449.6" ry="448.6"/>
	<ellipse class="st340" cx="-265.3" cy="587.1" rx="450.1" ry="449"/>
	<ellipse class="st341" cx="-257.7" cy="593.8" rx="450.5" ry="449.5"/>
	<ellipse class="st342" cx="-249.7" cy="599.6" rx="451" ry="449.9"/>
	<ellipse class="st343" cx="-240.3" cy="604.9" rx="451.4" ry="450.4"/>
	<ellipse class="st344" cx="-230.1" cy="609.4" rx="451.9" ry="450.8"/>
	<ellipse class="st345" cx="-219.4" cy="612.9" rx="452.3" ry="451.2"/>
	<ellipse class="st346" cx="-207.8" cy="616" rx="452.8" ry="451.7"/>
	<ellipse class="st347" cx="-195.3" cy="618.3" rx="453.2" ry="452.1"/>
	<ellipse class="st348" cx="-182.4" cy="619.6" rx="453.6" ry="452.6"/>
	<ellipse class="st349" cx="-168.6" cy="620.9" rx="454.1" ry="453"/>
	<ellipse class="st350" cx="-153.9" cy="621.4" rx="455" ry="453.9"/>
	<ellipse class="st351" cx="-139.2" cy="620.9" rx="455.4" ry="454.4"/>
	<ellipse class="st352" cx="-123.1" cy="620" rx="455.9" ry="454.8"/>
	<ellipse class="st353" cx="-106.6" cy="618.7" rx="456.3" ry="455.2"/>
	<ellipse class="st354" cx="-89.7" cy="616.9" rx="456.8" ry="455.7"/>
	<ellipse class="st355" cx="-72.3" cy="614.7" rx="457.2" ry="456.1"/>
	<ellipse class="st355" cx="-54" cy="611.6" rx="457.7" ry="456.6"/>
	<ellipse class="st356" cx="-35.8" cy="608.5" rx="458.1" ry="457"/>
	<ellipse class="st356" cx="-16.6" cy="604.5" rx="458.6" ry="457.5"/>
	<ellipse class="st357" cx="3" cy="600.5" rx="459" ry="457.9"/>
	<ellipse class="st357" cx="23" cy="595.6" rx="459.4" ry="458.4"/>
	<ellipse class="st358" cx="43.1" cy="590.7" rx="459.9" ry="458.8"/>
	<ellipse class="st359" cx="64" cy="585.4" rx="460.3" ry="459.2"/>
	<ellipse class="st360" cx="85.4" cy="579.6" rx="460.8" ry="459.7"/>
	<ellipse class="st361" cx="106.8" cy="573.8" rx="461.2" ry="460.1"/>
	<ellipse class="st362" cx="128.7" cy="567.1" rx="461.7" ry="460.6"/>
	<ellipse class="st363" cx="150.9" cy="560.9" rx="462.1" ry="461"/>
	<ellipse class="st364" cx="173.2" cy="553.8" rx="462.6" ry="461.5"/>
	<ellipse class="st365" cx="196" cy="547.1" rx="463" ry="461.9"/>
	<ellipse class="st366" cx="218.7" cy="539.6" rx="463.5" ry="462.4"/>
	<ellipse class="st367" cx="241.9" cy="532.5" rx="463.9" ry="462.8"/>
	<ellipse class="st367" cx="265" cy="524.9" rx="464.3" ry="463.2"/>
	<ellipse class="st368" cx="288.6" cy="516.9" rx="464.8" ry="463.7"/>
	<ellipse class="st369" cx="312.3" cy="509.3" rx="465.2" ry="464.1"/>
	<ellipse class="st370" cx="335.9" cy="501.3" rx="465.7" ry="464.6"/>
	<ellipse class="st371" cx="359.9" cy="493.3" rx="466.1" ry="465"/>
	<ellipse class="st372" cx="383.6" cy="485.3" rx="466.6" ry="465.5"/>
	<ellipse class="st373" cx="407.6" cy="476.9" rx="467" ry="465.9"/>
	<ellipse class="st374" cx="431.7" cy="468.9" rx="467.5" ry="466.4"/>
	<ellipse class="st375" cx="455.3" cy="460.9" rx="467.9" ry="466.8"/>
	<ellipse class="st376" cx="479.4" cy="452.9" rx="468.4" ry="467.2"/>
	<ellipse class="st377" cx="503" cy="444.9" rx="468.8" ry="467.7"/>
	<ellipse class="st378" cx="527.1" cy="436.9" rx="469.2" ry="468.1"/>
	<ellipse class="st378" cx="550.7" cy="429.3" rx="469.7" ry="468.6"/>
	<ellipse class="st379" cx="574.3" cy="421.3" rx="470.1" ry="469"/>
	<ellipse class="st380" cx="597.5" cy="413.8" rx="470.6" ry="469.5"/>
	<ellipse class="st381" cx="620.6" cy="406.6" rx="471" ry="469.9"/>
	<ellipse class="st382" cx="643.8" cy="399.5" rx="471.5" ry="470.4"/>
	<ellipse class="st383" cx="666.5" cy="392.4" rx="471.9" ry="470.8"/>
	<ellipse class="st384" cx="689.3" cy="385.7" rx="472.4" ry="471.2"/>
	<ellipse class="st385" cx="711.5" cy="379.1" rx="472.8" ry="471.7"/>
	<ellipse class="st386" cx="733.4" cy="372.9" rx="473.3" ry="472.1"/>
	<ellipse class="st387" cx="755.2" cy="367.1" rx="473.7" ry="472.6"/>
	<ellipse class="st388" cx="776.6" cy="361.3" rx="474.1" ry="473"/>
	<ellipse class="st389" cx="797.5" cy="356" rx="474.6" ry="473.5"/>
	<ellipse class="st390" cx="818" cy="351.1" rx="475" ry="473.9"/>
	<ellipse class="st391" cx="838.5" cy="346.6" rx="475.5" ry="474.4"/>
	<ellipse class="st392" cx="858.2" cy="342.6" rx="475.9" ry="474.8"/>
	<ellipse class="st393" cx="877.8" cy="339.1" rx="476.4" ry="475.2"/>
	<ellipse class="st394" cx="896.5" cy="336" rx="476.8" ry="475.7"/>
	<ellipse class="st395" cx="914.7" cy="332.8" rx="477.3" ry="476.1"/>
	<ellipse class="st396" cx="932.6" cy="330.6" rx="477.7" ry="476.6"/>
	<ellipse class="st397" cx="950" cy="328.8" rx="478.2" ry="477"/>
	<ellipse class="st398" cx="966.4" cy="328" rx="478.6" ry="477.5"/>
	<ellipse class="st399" cx="982.9" cy="327.1" rx="479" ry="477.9"/>
	<ellipse class="st400" cx="998.1" cy="327.1" rx="479.5" ry="478.4"/>
	<ellipse class="st401" cx="1013.2" cy="327.5" rx="479.9" ry="478.8"/>
	<ellipse class="st402" cx="1027.5" cy="328.8" rx="480.4" ry="479.2"/>
	<ellipse class="st403" cx="1040.9" cy="330.6" rx="480.8" ry="479.7"/>
	<ellipse class="st404" cx="1055.1" cy="333.3" rx="481.3" ry="480.1"/>
	<ellipse class="st405" cx="1069.8" cy="337.7" rx="481.7" ry="480.6"/>
	<ellipse class="st406" cx="1082.8" cy="343.1" rx="482.2" ry="481"/>
	<ellipse class="st407" cx="1093.9" cy="349.3" rx="482.6" ry="481.5"/>
	<ellipse class="st408" cx="1102.8" cy="356.4" rx="483.1" ry="481.9"/>
	<ellipse class="st409" cx="1109.9" cy="364.4" rx="483.5" ry="482.4"/>
	<ellipse class="st410" cx="1115.3" cy="372.9" rx="484" ry="482.8"/>
	<ellipse class="st411" cx="1118.8" cy="382.6" rx="484.4" ry="483.3"/>
	<ellipse class="st412" cx="1121.1" cy="393.3" rx="484.8" ry="483.7"/>
	<ellipse class="st413" cx="1121.5" cy="404.4" rx="485.3" ry="484.1"/>
	<ellipse class="st414" cx="1120.2" cy="416.4" rx="485.7" ry="484.6"/>
	<ellipse class="st415" cx="1118" cy="429.3" rx="486.2" ry="485"/>
	<ellipse class="st416" cx="1113.9" cy="442.7" rx="486.6" ry="485.5"/>
	<ellipse class="st417" cx="1109" cy="456.4" rx="487.5" ry="486.4"/>
	<ellipse class="st418" cx="1102.8" cy="471.1" rx="488" ry="486.8"/>
	<ellipse class="st419" cx="1095.2" cy="486.2" rx="488.4" ry="487.3"/>
	<ellipse class="st420" cx="1086.8" cy="502.2" rx="488.9" ry="487.7"/>
	<ellipse class="st421" cx="1077.4" cy="518.2" rx="489.3" ry="488.1"/>
	<ellipse class="st422" cx="1066.7" cy="535.1" rx="489.7" ry="488.6"/>
	<ellipse class="st422" cx="1055.6" cy="552.5" rx="490.2" ry="489"/>
	<ellipse class="st423" cx="1043.5" cy="570.2" rx="490.6" ry="489.5"/>
	<ellipse class="st424" cx="1031.1" cy="588" rx="491.1" ry="489.9"/>
	<ellipse class="st425" cx="1017.7" cy="606.7" rx="491.5" ry="490.4"/>
	<ellipse class="st426" cx="1003.9" cy="625.4" rx="492" ry="490.8"/>
	<ellipse class="st426" cx="989.2" cy="644.5" rx="492.4" ry="491.3"/>
	<ellipse class="st427" cx="974.5" cy="664" rx="492.9" ry="491.7"/>
	<ellipse class="st428" cx="959.3" cy="683.6" rx="493.3" ry="492.1"/>
	<ellipse class="st429" cx="944.2" cy="703.6" rx="493.8" ry="492.6"/>
	<ellipse class="st429" cx="928.6" cy="723.6" rx="494.2" ry="493"/>
	<ellipse class="st430" cx="913" cy="744.1" rx="494.6" ry="493.5"/>
	<ellipse class="st431" cx="896.9" cy="764.5" rx="495.1" ry="493.9"/>
	<ellipse class="st432" cx="881.3" cy="785" rx="495.5" ry="494.4"/>
	<ellipse class="st432" cx="865.7" cy="805.4" rx="496" ry="494.8"/>
	<ellipse class="st433" cx="850.1" cy="826.3" rx="496.4" ry="495.3"/>
	<ellipse class="st434" cx="835" cy="846.8" rx="496.9" ry="495.7"/>
	<ellipse class="st435" cx="820.3" cy="867.7" rx="497.3" ry="496.1"/>
	<ellipse class="st436" cx="805.6" cy="888.1" rx="497.8" ry="496.6"/>
	<ellipse class="st437" cx="791.8" cy="908.6" rx="498.2" ry="497"/>
	<ellipse class="st438" cx="777.9" cy="929" rx="498.7" ry="497.5"/>
	<ellipse class="st439" cx="765" cy="949.5" rx="499.1" ry="497.9"/>
	<ellipse class="st440" cx="753" cy="969.5" rx="499.5" ry="498.4"/>
	<ellipse class="st440" cx="741.4" cy="989.5" rx="500" ry="498.8"/>
	<ellipse class="st441" cx="730.7" cy="1009" rx="500.4" ry="499.3"/>
	<ellipse class="st442" cx="720.9" cy="1028.6" rx="500.9" ry="499.7"/>
	<ellipse class="st443" cx="712" cy="1047.7" rx="501.3" ry="500.1"/>
	<ellipse class="st444" cx="704.4" cy="1066.4" rx="501.8" ry="500.6"/>
	<ellipse class="st445" cx="697.3" cy="1085.1" rx="502.2" ry="501"/>
	<ellipse class="st446" cx="691.9" cy="1103.3" rx="502.7" ry="501.5"/>
	<ellipse class="st447" cx="687.5" cy="1121.1" rx="503.1" ry="501.9"/>
	<ellipse class="st447" cx="684.8" cy="1138.4" rx="503.6" ry="502.4"/>
	<ellipse class="st448" cx="683" cy="1155.3" rx="504" ry="502.8"/>
	<ellipse class="st448" cx="683" cy="1171.3" rx="504.5" ry="503.3"/>
	<ellipse class="st449" cx="683.5" cy="1180.6" rx="504.9" ry="503.7"/>
	<ellipse class="st450" cx="685.7" cy="1194.9" rx="505.8" ry="504.6"/>
	<ellipse class="st451" cx="687.5" cy="1202.4" rx="506.2" ry="505"/>
	<ellipse class="st452" cx="689.7" cy="1210" rx="507.1" ry="505.9"/>
	<ellipse class="st452" cx="691.9" cy="1217.1" rx="508" ry="506.8"/>
	<ellipse class="st453" cx="694.6" cy="1223.3" rx="508.5" ry="507.3"/>
	<ellipse class="st454" cx="697.7" cy="1230" rx="509.4" ry="508.1"/>
	<ellipse class="st454" cx="701.3" cy="1235.8" rx="509.8" ry="508.6"/>
	<ellipse class="st455" cx="704.9" cy="1242" rx="510.7" ry="509.5"/>
	<ellipse class="st456" cx="708.4" cy="1247.3" rx="511.6" ry="510.4"/>
	<ellipse class="st457" cx="712.9" cy="1252.7" rx="512" ry="510.8"/>
	<ellipse class="st457" cx="717.3" cy="1258" rx="512.9" ry="511.7"/>
	<ellipse class="st458" cx="721.8" cy="1262.9" rx="513.8" ry="512.6"/>
	<ellipse class="st459" cx="727.1" cy="1267.8" rx="514.3" ry="513"/>
	<ellipse class="st460" cx="732" cy="1272.2" rx="515.1" ry="513.9"/>
	<ellipse class="st460" cx="737.8" cy="1276.7" rx="515.6" ry="514.4"/>
	<ellipse class="st461" cx="743.6" cy="1280.7" rx="516.5" ry="515.3"/>
	<ellipse class="st462" cx="749.4" cy="1284.7" rx="517.4" ry="516.1"/>
	<ellipse class="st463" cx="755.7" cy="1288.2" rx="517.8" ry="516.6"/>
	<ellipse class="st463" cx="762.3" cy="1291.8" rx="518.7" ry="517.5"/>
	<ellipse class="st464" cx="769" cy="1295.3" rx="519.6" ry="518.4"/>
	<ellipse class="st465" cx="776.2" cy="1298.5" rx="520" ry="518.8"/>
	<ellipse class="st466" cx="783.3" cy="1301.1" rx="520.9" ry="519.7"/>
	<ellipse class="st467" cx="790.4" cy="1304.2" rx="521.4" ry="520.1"/>
	<ellipse class="st467" cx="798.4" cy="1306.5" rx="522.3" ry="521"/>
	<ellipse class="st468" cx="806" cy="1309.1" rx="523.2" ry="521.9"/>
	<ellipse class="st469" cx="814" cy="1311.3" rx="523.6" ry="522.4"/>
	<ellipse class="st470" cx="822.5" cy="1313.1" rx="524.5" ry="523.3"/>
	<ellipse class="st471" cx="830.5" cy="1314.9" rx="525.4" ry="524.2"/>
	<ellipse class="st471" cx="839.4" cy="1316.7" rx="525.8" ry="524.6"/>
	<ellipse class="st472" cx="847.9" cy="1318" rx="526.7" ry="525.5"/>
	<ellipse class="st473" cx="857.3" cy="1319.3" rx="527.2" ry="525.9"/>
	<ellipse class="st474" cx="866.2" cy="1320.7" rx="528.1" ry="526.8"/>
	<ellipse class="st475" cx="875.5" cy="1321.6" rx="529" ry="527.7"/>
	<ellipse class="st476" cx="884.9" cy="1322.5" rx="529.4" ry="528.2"/>
	<ellipse class="st476" cx="894.7" cy="1323.3" rx="530.3" ry="529"/>
	<ellipse class="st477" cx="904.5" cy="1323.8" rx="531.2" ry="529.9"/>
	<ellipse class="st478" cx="914.3" cy="1324.2" rx="531.6" ry="530.4"/>
	<ellipse class="st479" cx="924.1" cy="1324.7" rx="532.5" ry="531.3"/>
	<ellipse class="st480" cx="934.4" cy="1324.7" rx="533" ry="531.7"/>
	<ellipse class="st481" cx="944.6" cy="1324.7" rx="533.9" ry="532.6"/>
	<ellipse class="st482" cx="955.3" cy="1324.7" rx="534.8" ry="533.5"/>
	<ellipse class="st482" cx="966" cy="1324.2" rx="535.2" ry="533.9"/>
	<ellipse class="st483" cx="976.7" cy="1323.8" rx="536.1" ry="534.8"/>
	<ellipse class="st484" cx="987.4" cy="1323.3" rx="537" ry="535.7"/>
	<ellipse class="st485" cx="998.1" cy="1322.5" rx="537.4" ry="536.2"/>
	<ellipse class="st486" cx="1009.2" cy="1321.6" rx="538.3" ry="537"/>
	<ellipse class="st487" cx="1020.4" cy="1320.7" rx="538.8" ry="537.5"/>
	<ellipse class="st488" cx="1031.5" cy="1319.8" rx="539.7" ry="538.4"/>
	<ellipse class="st489" cx="1042.6" cy="1318.5" rx="540.5" ry="539.3"/>
	<ellipse class="st490" cx="1054.2" cy="1317.6" rx="541" ry="539.7"/>
	<ellipse class="st491" cx="1065.4" cy="1316.2" rx="541.9" ry="540.6"/>
	<ellipse class="st492" cx="1077" cy="1314.5" rx="542.8" ry="541.5"/>
	<ellipse class="st493" cx="1088.5" cy="1313.1" rx="543.2" ry="541.9"/>
	<ellipse class="st494" cx="1100.1" cy="1311.3" rx="544.1" ry="542.8"/>
	<ellipse class="st495" cx="1111.7" cy="1309.6" rx="544.6" ry="543.3"/>
	<ellipse class="st496" cx="1123.7" cy="1307.8" rx="545.4" ry="544.2"/>
	<ellipse class="st497" cx="1135.3" cy="1305.6" rx="546.3" ry="545"/>
	<ellipse class="st498" cx="1147.4" cy="1303.8" rx="546.8" ry="545.5"/>
	<ellipse class="st498" cx="1159" cy="1301.6" rx="547.7" ry="546.4"/>
	<ellipse class="st499" cx="1171" cy="1299.3" rx="548.6" ry="547.3"/>
	<ellipse class="st500" cx="1183" cy="1297.1" rx="549" ry="547.7"/>
	<ellipse class="st501" cx="1194.6" cy="1294.9" rx="549.9" ry="548.6"/>
	<ellipse class="st502" cx="1206.6" cy="1292.2" rx="550.8" ry="549.5"/>
	<ellipse class="st503" cx="1218.7" cy="1290" rx="551.2" ry="549.9"/>
	<ellipse class="st504" cx="1230.7" cy="1287.3" rx="552.1" ry="550.8"/>
	<ellipse class="st505" cx="1242.7" cy="1284.7" rx="552.6" ry="551.3"/>
	<ellipse class="st506" cx="1254.3" cy="1282" rx="553.5" ry="552.2"/>
	<ellipse class="st507" cx="1266.3" cy="1279.3" rx="554.4" ry="553"/>
	<ellipse class="st508" cx="1278.4" cy="1276.2" rx="554.8" ry="553.5"/>
	<ellipse class="st509" cx="1290.4" cy="1273.6" rx="555.7" ry="554.4"/>
	<ellipse class="st510" cx="1302" cy="1270.4" rx="556.6" ry="555.3"/>
	<ellipse class="st511" cx="1314" cy="1267.8" rx="557" ry="555.7"/>
	<ellipse class="st512" cx="1325.6" cy="1264.7" rx="557.9" ry="556.6"/>
	<ellipse class="st513" cx="1337.6" cy="1261.6" rx="558.4" ry="557"/>
	<ellipse class="st514" cx="1349.2" cy="1258.4" rx="559.3" ry="557.9"/>
	<ellipse class="st515" cx="1360.8" cy="1255.3" rx="560.2" ry="558.8"/>
	<ellipse class="st516" cx="1372.4" cy="1252.2" rx="560.6" ry="559.3"/>
	<ellipse class="st517" cx="1384" cy="1249.1" rx="561.5" ry="560.2"/>
	<ellipse class="st518" cx="1395.6" cy="1245.5" rx="562.4" ry="561.1"/>
	<ellipse class="st519" cx="1406.7" cy="1242.4" rx="562.8" ry="561.5"/>
	<ellipse class="st520" cx="1418.3" cy="1239.3" rx="563.7" ry="562.4"/>
	<ellipse class="st520" cx="1429.4" cy="1235.8" rx="564.2" ry="562.8"/>
	<ellipse class="st521" cx="1440.6" cy="1232.7" rx="565.1" ry="563.7"/>
	<ellipse class="st522" cx="1451.7" cy="1229.1" rx="565.9" ry="564.6"/>
	<ellipse class="st523" cx="1462.4" cy="1226" rx="566.4" ry="565.1"/>
	<ellipse class="st524" cx="1473.6" cy="1222.4" rx="567.3" ry="565.9"/>
	<ellipse class="st525" cx="1484.3" cy="1219.3" rx="568.2" ry="566.8"/>
	<ellipse class="st526" cx="1495" cy="1215.8" rx="568.6" ry="567.3"/>
	<ellipse class="st527" cx="1505.2" cy="1212.6" rx="569.5" ry="568.2"/>
	<ellipse class="st528" cx="1515.9" cy="1209.1" rx="570" ry="568.6"/>
	<ellipse class="st528" cx="1526.2" cy="1206" rx="570.8" ry="569.5"/>
	<ellipse class="st529" cx="1536.4" cy="1202.9" rx="571.7" ry="570.4"/>
	<ellipse class="st530" cx="1546.2" cy="1199.3" rx="572.2" ry="570.8"/>
	<ellipse class="st531" cx="1556" cy="1196.2" rx="573.1" ry="571.7"/>
	<ellipse class="st532" cx="1565.8" cy="1192.6" rx="574" ry="572.6"/>
	<ellipse class="st533" cx="1575.2" cy="1189.5" rx="574.4" ry="573.1"/>
	<ellipse class="st534" cx="1585" cy="1186.4" rx="575.3" ry="573.9"/>
	<ellipse class="st535" cx="1593.9" cy="1183.3" rx="575.8" ry="574.4"/>
	<ellipse class="st536" cx="1603.2" cy="1179.8" rx="576.6" ry="575.3"/>
	<ellipse class="st537" cx="1612.2" cy="1176.6" rx="577.5" ry="576.2"/>
	<ellipse class="st538" cx="1620.6" cy="1173.5" rx="578" ry="576.6"/>
	<ellipse class="st539" cx="1629.1" cy="1170.9" rx="578.9" ry="577.5"/>
	<ellipse class="st540" cx="1637.6" cy="1167.7" rx="579.8" ry="578.4"/>
	<ellipse class="st541" cx="1645.6" cy="1164.6" rx="580.2" ry="578.8"/>
	<ellipse class="st542" cx="1653.6" cy="1161.5" rx="581.1" ry="579.7"/>
	<ellipse class="st543" cx="1661.2" cy="1158.9" rx="581.5" ry="580.2"/>
	<ellipse class="st544" cx="1668.8" cy="1156.2" rx="582.4" ry="581.1"/>
	<ellipse class="st545" cx="1676.3" cy="1153.1" rx="583.3" ry="581.9"/>
	<ellipse class="st546" cx="1683.5" cy="1150.4" rx="583.8" ry="582.4"/>
	<ellipse class="st547" cx="1690.1" cy="1147.7" rx="584.7" ry="583.3"/>
	<ellipse class="st548" cx="1696.8" cy="1145.5" rx="585.6" ry="584.2"/>
	<ellipse class="st549" cx="1703.5" cy="1142.9" rx="586" ry="584.6"/>
	<ellipse class="st550" cx="1709.3" cy="1140.2" rx="586.9" ry="585.5"/>
	<ellipse class="st551" cx="1715.5" cy="1138" rx="587.3" ry="585.9"/>
	<ellipse class="st552" cx="1720.9" cy="1135.7" rx="588.2" ry="586.8"/>
	<ellipse class="st553" cx="1726.7" cy="1133.5" rx="589.1" ry="587.7"/>
	<ellipse class="st554" cx="1731.6" cy="1131.3" rx="589.6" ry="588.2"/>
	<ellipse class="st555" cx="1736.5" cy="1129.1" rx="590.5" ry="589.1"/>
	<ellipse class="st556" cx="1741.4" cy="1127.3" rx="591.3" ry="589.9"/>
</g>
<rect x="294.7" y="97" class="st557" width="1008.6" height="806.5"/>
<g>
	<path class="st558" d="M635.2,599.4h46.6c6.6,0,13.7-0.5,21.4-1.4c7.7-1,14.8-3,21.2-6c6.5-3,11.8-7.4,16.1-13.2
		c4.3-5.8,6.4-13.5,6.4-23.1c0-15.4-5.2-26.1-15.7-32.2c-10.5-6-26.3-9.1-47.4-9.1h-48.7V599.4z M635.2,469.9h46.2
		c17.3,0,30.5-3.4,39.6-10.3c9.1-6.9,13.6-16.6,13.6-29.3c0-13.2-4.7-22.5-14-28c-9.4-5.5-23.9-8.2-43.7-8.2h-41.7V469.9z
		 M583.3,351.1h113.8c11,0,21.9,1.3,32.6,3.9c10.7,2.6,20.3,6.9,28.7,12.8c8.4,5.9,15.2,13.5,20.4,22.9c5.2,9.4,7.8,20.6,7.8,33.8
		c0,16.5-4.7,30.1-14,40.8c-9.4,10.7-21.6,18.4-36.7,23.1v0.8c18.4,2.5,33.5,9.6,45.4,21.4c11.8,11.8,17.7,27.6,17.7,47.4
		c0,15.9-3.2,29.3-9.5,40.2c-6.3,10.9-14.6,19.6-24.9,26.2c-10.3,6.6-22.1,11.3-35.5,14.2c-13.3,2.9-26.9,4.3-40.6,4.3H583.3V351.1z
		"/>
	<path class="st558" d="M967.2,524.3c0-6.3-0.9-12.4-2.7-18.1c-1.8-5.8-4.6-10.9-8.4-15.3c-3.9-4.4-8.7-7.9-14.6-10.5
		c-5.9-2.6-12.8-3.9-20.8-3.9c-14.8,0-27.4,4.5-37.7,13.4c-10.3,8.9-16,20.4-17.1,34.4H967.2z M1016.7,546.6v6.6
		c0,2.2-0.1,4.4-0.4,6.6H865.8c0.5,7.2,2.4,13.7,5.6,19.6c3.2,5.9,7.4,11,12.6,15.3c5.2,4.3,11.1,7.6,17.7,10.1
		c6.6,2.5,13.5,3.7,20.6,3.7c12.4,0,22.8-2.3,31.3-6.8c8.5-4.5,15.5-10.8,21-18.8l33,26.4c-19.5,26.4-47.8,39.6-85,39.6
		c-15.4,0-29.6-2.4-42.5-7.2c-12.9-4.8-24.1-11.6-33.6-20.4c-9.5-8.8-16.9-19.6-22.3-32.4c-5.4-12.8-8-27.3-8-43.5
		c0-15.9,2.7-30.5,8-43.5c5.4-13.1,12.7-24.2,22.1-33.4c9.3-9.2,20.4-16.4,33.2-21.4c12.8-5.1,26.6-7.6,41.4-7.6
		c13.7,0,26.5,2.3,38.2,6.8c11.7,4.5,21.8,11.3,30.3,20.2c8.5,8.9,15.2,20.1,20,33.4C1014.3,513.1,1016.7,528.7,1016.7,546.6"/>
</g>
</svg>
