<?xml version="1.0" encoding="utf-8"?>
<!-- Generator: Adobe Illustrator 27.2.0, SVG Export Plug-In . SVG Version: 6.00 Build 0)  -->
<svg version="1.1" id="Layer_1" xmlns="http://www.w3.org/2000/svg" xmlns:xlink="http://www.w3.org/1999/xlink" x="0px" y="0px"
	 viewBox="0 0 1600 1000" style="enable-background:new 0 0 1600 1000;" xml:space="preserve">
<style type="text/css">
	.st0{fill:#020203;}
	.st1{fill:#FFFFFF;}
	.st2{fill:none;stroke:#FFFFFF;stroke-width:8.161;stroke-miterlimit:10;}
	.st3{fill:none;stroke:#020203;stroke-width:0.5101;stroke-miterlimit:10;}
</style>
<rect x="-3" y="-3" class="st0" width="1606" height="1003"/>
<g>
	<path class="st1" d="M630.7,551.1l-17.8,4.9l-39.3,21.5l-3.2-12.6l8.9-4.5c3.9-1.9,10.2-4.6,17.2-7.3c-7.3,1.4-14.1,2.3-18.4,2.8
		l-9.9,0.7l-2.9-11.2l44.3-1.8l17.8-5L630.7,551.1z"/>
	<path class="st1" d="M576.5,532.5c-10.6,0.8-13.8-1.4-14.7-10.8l-0.5-5.7c-0.8-9.4,2.1-12.2,12.6-13l35.2-2.8
		c10.6-0.9,13.9,1.4,14.7,10.8l0.5,5.7c0.8,9.4-2.1,12.2-12.6,13L576.5,532.5z M576.5,514.9c-2.7,0.2-3.5,0.5-3.3,2.6v0.9
		c0.2,2.1,1.1,2.2,3.7,2l32.1-2.6c2.7-0.2,3.5-0.5,3.3-2.6v-0.8c-0.2-2.1-1.1-2.2-3.7-2.1L576.5,514.9z"/>
	<path class="st1" d="M610.6,482.5c2.7,0.3,3.6,0,3.8-2v-1c0.2-2.1-0.6-2.5-3.3-2.8l-47.8-5.3l1.3-12.1l49.2,5.6
		c10.8,1.2,13.7,4.1,12.6,14.3l-0.6,5.3c-1.1,10.1-4.5,12.5-15.3,11.2l-49.2-5.6l1.4-12.9L610.6,482.5z"/>
	<path class="st1" d="M571.5,428.1l6.7-17.3c3.6-9.3,7.4-10.5,17.6-6.6l32.9,12.8c10.1,4,12.2,7.4,8.6,16.8l-6.7,17.3L571.5,428.1z
		 M625.1,431.7c0.7-2,0-2.5-2.5-3.5l-30.1-11.7c-2.5-1-3.4-1-4.2,0.9l-1.2,3.1l36.7,14.3L625.1,431.7z"/>
	<path class="st1" d="M601.9,393.4c-8.8-5.7-10.1-9.6-5-18l3.1-5.1c5-8.4,9-8.9,17.8-3.2l29.4,19.1c8.8,5.7,10.1,9.6,5,18l-3,5.1
		c-5.1,8.4-9,9-17.8,3.2L601.9,393.4z M612.4,378.6c-2.2-1.4-3.1-1.7-4.2,0.2l-0.4,0.8c-1.1,1.8-0.5,2.5,1.7,4l26.9,17.5
		c2.2,1.4,3.1,1.7,4.2,0l0.4-0.8c1.1-1.9,0.5-2.5-1.7-4L612.4,378.6z"/>
	<path class="st1" d="M651,366.3c-3.8-2.3-7.3-4.7-10.9-7.2c3.3,3,6.4,5.6,9.6,8.5l17.8,16.5l-7.3,7.8l-45.9-42.5l10.3-10.9
		l18.3,11.5c3.7,2.3,7.1,4.9,10.6,7.5c-3.3-3-6.5-5.6-9.6-8.5l-15.5-14.4l7.4-7.9l45.8,42.5l-9.4,10L651,366.3z"/>
	<path class="st1" d="M647,317.7l9.4-7.5l9,11.3l-2.8,13.2h-0.8l0.2-10.4l-5.9,4.7L647,317.7z"/>
	<path class="st1" d="M701.7,353.1L675,309.8l-5.6,3.5l-6.1-9.9l21.8-13.5l6.1,9.9l-5.6,3.5l26.7,43.1L701.7,353.1z"/>
	<path class="st1" d="M735.9,309.8c-2.2-3.9-4.1-7.6-5.9-11.6c1.5,4.2,2.9,8,4.2,12.2l7.4,23.1l-10.1,3.3l-19.3-59.7l14.2-4.7
		l10.3,19c2.1,3.9,3.8,7.7,5.7,11.7c-1.5-4.2-2.9-8.1-4.2-12.2l-6.5-20.2l10.2-3.3l19.3,59.7l-13,4.3L735.9,309.8z"/>
	<path class="st1" d="M771.2,286.7l8.7-1.2l1.7,11.7l-8.7,1.2l2.2,14.7l11.1-1.5l1.7,11.7l-23.6,3.3l-9-62l23.7-3.3l1.7,11.7
		l-11.1,1.5L771.2,286.7z"/>
	<path class="st1" d="M802.8,285.8h8.8v11.9h-8.8l-0.1,15h11.1v11.9l-23.9-0.2l0.6-63l23.9,0.2v11.9h-11.1L802.8,285.8z"/>
	<path class="st1" d="M827.9,263.3l18.6,3.3c10,1.8,11.9,5.4,9.9,15.8l-6.4,34.3c-2,10.5-5.1,13.1-15.1,11.4l-18.6-3.3L827.9,263.3z
		 M834.5,316c2.1,0.4,2.5-0.5,3-3.1l5.9-31.2c0.5-2.7,0.4-3.6-1.7-3.9l-3.4-0.6l-7.2,38.3L834.5,316z"/>
	<path class="st1" d="M867.3,335.9l20.7-45.2l-6-2.6l4.8-10.4l23.4,10.2l-4.7,10.6l-6-2.6l-20.7,45.1L867.3,335.9z"/>
	<path class="st1" d="M911.3,304c5.9-9,9.8-10.2,17.9-4.7l4.9,3.3c8.1,5.5,8.6,9.6,2.7,18.6l-19.7,30c-5.9,9-9.8,10.2-17.9,4.7
		l-4.9-3.3c-8.1-5.5-8.6-9.6-2.7-18.6L911.3,304z M925.6,315.5c1.5-2.3,1.8-3.2,0-4.3l-0.8-0.5c-1.8-1.2-2.5-0.6-4,1.7l-18,27.5
		c-1.5,2.2-1.7,3.1,0,4.3l0.8,0.5c1.8,1.2,2.5,0.6,4-1.6L925.6,315.5z"/>
	<path class="st1" d="M938.3,390.5l-5.6-6.7l18.9-20.2c2.5-2.6,6.3-6.6,9.5-9.8c-3.3,2.6-7.3,6.1-10.5,8.6l-21.4,17.2l-6.9-8.2
		l48.1-38.7l11,13.2l-16.7,17.3c-2.3,2.4-5,4.8-7.6,7.3c3-2.1,5.9-4.2,8.8-5.9l20.6-12.7l11.4,13.6l-48.2,38.7l-7.7-9.3l21.4-17.2
		c3.2-2.6,7.4-5.8,10.8-8.5c-4,2.4-8.9,5.5-12,7.3L938.3,390.5z"/>
	<path class="st1" d="M966.4,419.4l-3.1-6.1l-7.5,2.8l-4.9-9.8l57.7-20.5l7.5,15l-51,34l-5.4-10.9L966.4,419.4z M973.4,409.4
		l2.1,4.2c11-6.7,20.2-12.2,28.6-17C995.3,400.5,985.3,404.6,973.4,409.4z"/>
	<path class="st1" d="M992.2,442.7c4-2,7.8-3.8,11.9-5.4c-4.3,1.3-8.2,2.6-12.4,3.7l-23.5,6.6l-2.9-10.3l60.7-17l4.2,14.3l-19.4,9.6
		c-3.9,1.9-7.9,3.5-12,5.2c4.3-1.3,8.2-2.7,12.4-3.8l20.6-5.8l3,10.3l-60.7,17l-3.8-13.2L992.2,442.7z"/>
	<path class="st1" d="M990.8,494.8c-2.7,0-3.6,0.3-3.6,2.4v1c0,2.1,0.9,2.3,3.6,2.3l47.7-0.6l0.2,11.8l-49.2,0.6
		c-10.9,0-13.9-2.3-14-12.2v-5.2c0-9.8,3-12.5,13.7-12.6l49.2-0.6l0.2,12.5L990.8,494.8z"/>
	<path class="st1" d="M1036.7,527l-3.1,17.8c-1.7,9.6-5.2,11.5-15.7,9.7l-13.1-2.3c-10.5-1.9-13.2-4.8-11.5-14.5l1-5.4l-20.9-3.7
		l2.2-12.3L1036.7,527z M1005.3,537.2c-0.4,2,0.5,2.4,3.1,2.9l10.2,1.8c2.7,0.5,3.5,0.4,3.9-1.6l0.5-3.1l-17.2-3L1005.3,537.2z"/>
	<path class="st1" d="M985.7,544.3l-3.2,12.8l-13.8-4.2l-5.5-13.7l0.7-0.5l5.9,9.5l2-8.1L985.7,544.3z"/>
	<path class="st1" d="M971.3,583.8c-2.3-1.2-3.2-1.4-4.2,0.5l-0.4,0.8c-0.9,1.9-0.3,2.8,2,3.9l41.4,22.2l-5.6,11.2l-42.7-22.9
		c-9.3-5-10.9-8.7-6.5-17.6l2.3-4.7c4.4-8.9,8.3-9.8,17.6-4.7l11.6,6.2l-5.3,10.7L971.3,583.8z"/>
	<path class="st1" d="M952,615.7c-2.1-1.6-3-2-4.3-0.4l-0.6,0.8c-1.3,1.6-0.7,2.4,1.4,4.1l38.1,29.5l-7.3,9.4L940,628.7
		c-8.6-6.7-9.5-10.6-3.4-18.5l3.2-4.1c6.1-7.9,10.2-8,18.8-1.3l39.3,30.5l-7.8,10L952,615.7z"/>
	<path class="st1" d="M926.9,645.1c3.2,3.7,5.6,3.7,13,3.4c8.1-0.2,12.5,0.3,18.4,7.2l1.6,1.9c6.9,8.1,7.1,12,0,18.5l-3.6,3.3
		c-7.1,6.5-11,5.8-17.9-2.1l-4.9-5.6l8.5-7.7l3.9,4.5c1.7,2,2.6,2.4,4.1,1.1l0.5-0.5c1.6-1.4,1.2-2.3-0.4-4l-0.7-0.9
		c-3.2-3.7-5.7-3.6-13.2-3.4c-8.1,0.3-12.6-0.3-18.4-7.1l-2.5-2.9c-6.9-8.1-7-12,0-18.4l3.6-3.3c7.1-6.4,11-5.8,17.9,2.1l6.1,7
		l-8.5,7.7l-5.1-5.8c-1.7-2-2.5-2.5-4-1.1l-0.6,0.5c-1.5,1.3-1.1,2.2,0.6,4.2L926.9,645.1z"/>
	<path class="st1" d="M900.3,644.9l26.8,43.1l5.5-3.6l6.2,9.9l-21.4,13.8l-6.2-9.9l5.5-3.5l-26.9-43.1L900.3,644.9z"/>
	<path class="st1" d="M860.4,683c1.7,4.8,4.1,5.7,11.5,8.4c8.1,3.1,12.2,5.5,15.3,14.3l0.8,2.4c3.6,10.3,2.1,14.2-7.6,17.4l-4.9,1.6
		c-9.7,3.2-13.2,1-16.9-9.3l-2.5-7.3l11.5-3.8l2,5.8c0.9,2.6,1.6,3.3,3.6,2.8l0.7-0.2c2.1-0.7,2.1-1.7,1.3-4l-0.4-1.1
		c-1.6-4.7-4.1-5.7-11.5-8.5c-8.1-3.1-12.3-5.5-15.4-14.3l-1.3-3.7c-3.6-10.3-2.1-14.2,7.5-17.4l4.9-1.6c9.6-3.2,13.2-1,16.9,9.3
		l3.1,9l-11.5,3.9l-2.6-7.6c-0.9-2.6-1.5-3.4-3.5-2.8l-0.8,0.3c-2,0.7-2,1.6-1.1,4.2L860.4,683z"/>
	<path class="st1" d="M849,733.6l-18,2.7c-9.7,1.5-12.7-1.3-14.2-11.9l-2-13.3c-1.6-10.7,0.4-14.2,10.1-15.7l5.6-0.8l-3.2-21.2
		l12.4-1.9L849,733.6z M829.1,706.7c-2,0.3-2.2,1.3-1.8,3.9l1.6,10.4c0.4,2.7,0.8,3.5,2.7,3.2l3.1-0.5l-2.7-17.5L829.1,706.7z"/>
	<path class="st1" d="M794.9,714.2l-8.5-0.2l0.2-11.8l8.5,0.2l0.3-14.9l-10.7-0.2l0.2-11.8l23.2,0.5l-1.3,62.8l-23.2-0.5l0.2-11.8
		l10.7,0.2L794.9,714.2z"/>
	<path class="st1" d="M763,680l7,1.4l2.4-8l11.2,2.1l-19.6,61.1l-17.2-3.3l4.2-64.1l12.5,2.4L763,680z M766.9,692.3l-4.8-0.9
		c-1.4,13.4-2.7,24.6-4.1,34.6C760.4,716.1,763.3,705.2,766.9,692.3z"/>
	<path class="st1" d="M726.3,726.5l-11.5-4.5l9.8-24.7c-1.3,1.8-1.9,2.7-2.9,3.9l-14.6,17.8l-11.2-4.4l19.7-23.2l2.7-34.2l12,4.8
		l-2.2,22.5c-0.2,2-0.5,3.9-0.8,5.9l10.2-25.6l11.5,4.5L726.3,726.5z"/>
	<path class="st1" d="M688.3,653.9c1.6-2.2,2-3.1,0.3-4.3l-0.8-0.6c-1.7-1.2-2.4-0.7-4.1,1.5l-29,38.5l-9.7-7.1l30-39.8
		c6.5-8.7,10.5-9.7,18.6-3.8l4.2,3.1c8,5.9,8.3,10,1.7,18.7l-30,39.8l-10.3-7.5L688.3,653.9z"/>
	<path class="st1" d="M634.8,671.4l-11.9-13.2c-6.5-7.2-5.9-11.1,1.8-18.3l9.6-9c7.7-7.2,11.6-7.5,18.1-0.3l3.7,4.1l15.3-14.3
		l8.3,9.1L634.8,671.4z M645.6,640.3c-1.3-1.5-2.2-1.1-4.1,0.7l-7.5,7c-1.9,1.8-2.4,2.7-1,4.1l2.1,2.3l12.6-11.8L645.6,640.3z"/>
	<path class="st1" d="M615.5,606.7c-0.6-0.8-1-1.7-1.1-2.7c-0.2-0.9-0.1-1.9,0.2-2.8c0.3-0.9,0.8-1.8,1.5-2.5
		c0.7-0.7,1.6-1.3,2.5-1.7c0.9-0.5,1.9-0.9,2.9-1c1-0.2,2.1-0.1,3.1,0.1c1,0.2,2,0.6,2.8,1.2c0.8,0.6,1.5,1.3,2,2.1
		c0.5,0.8,0.9,1.7,1,2.6c0.1,0.9,0,1.9-0.3,2.8c-0.3,0.9-0.8,1.7-1.5,2.4c-0.7,0.7-1.5,1.3-2.5,1.7c-0.9,0.5-1.8,0.9-2.9,1.1
		c-1,0.2-2.1,0.2-3.1,0c-1-0.2-2-0.6-2.8-1.2C616.7,608.3,616,607.6,615.5,606.7z"/>
	<path class="st0" d="M852.4,444.2c-2.2-2.5-7-3.7-9.7-1.8c-0.2,0.1-0.5,0.2-0.7,0.3c-0.7,0.4-1,0-1.1-0.7c-0.1-0.9-0.1-1.7-0.2-2.6
		c-0.2-3,0.2-5.9,0.5-8.8c0.4-4.1,0.9-8.2,2.2-12.2c0.4-1.4,0.8-2.8,0.9-4.2c0.1-0.5,0-0.9-0.2-1.3c-0.2-0.4-0.5-0.8-0.9-1
		c-2.2-1.7-4.7-2-7.4-1.6c-2.1,0.3-3.7,1.2-4.9,3c-0.5,0.9-1.2,1.7-1.6,2.6c-1.9,4.3-3.2,8.7-3.8,13.4c-0.1,0.6,0.1,1.6-0.7,1.6
		c-0.7,0.1-1-0.8-1.2-1.5c-0.3-1.1-0.7-2.3-1-3.4c-1.2-4-2.4-8-3.5-12.1c-0.8-3.1-1.5-6.3-2.3-9.4c-0.4-1.7-1.2-2.3-2.9-2.3
		c-1.8,0-3.6,0.3-5.3,0.9c-4.9,1.5-6.9,5-7.2,9.1c-0.3,4.1,0.6,8.2,1.6,12.2c0.7,2.7,1.3,5.4,1.2,8.3c-0.1,2.2,0.1,4.3,0.5,6.5
		c0.3,2,0.8,4.1,1.2,6.1c0.5,3.3,1.3,6.5,2.3,9.7c0.5,1.3,0.5,2.6,0.1,3.9c-0.4,1.3-0.4,2.6-0.3,4c0,1.1-0.3,1.4-1.4,1.1
		c-0.8-0.2-1.6-0.7-2.4-0.9c-3.7-0.8-7.5-0.9-11.3-1.3c-5.3-0.5-10.6-0.6-15.9-0.6c-2.1,0-4.1,0.3-6.1,1c-4.4,1.5-8.7,3.3-13.1,4.9
		c-2.9,1.1-5.6,2.6-8.8,2.6c-0.5,0-0.9,0-1.4,0.1c-3.8,0.3-6.5,2.2-8,5.8c-0.9,2.2-1,4.6-1.3,6.9c-0.2,1.9-0.7,3.8-1.4,5.6
		c-1,2.3-2.2,4.5-3.3,6.7c-1.3,2.6-1.4,5.3-0.8,8.1c1,4.5,3.2,8.6,5.2,12.7c1.5,3.1,3.1,6,4.7,9.1c2,3.9,3,8.1,4.4,12.2
		c0.6,1.6,1.3,3.1,1.7,4.8c1.2,5.7,2.2,11.4,4.4,16.8c1.5,3.8,3.1,7.5,5.6,10.7c1.3,1.6,2.8,3.1,4.3,4.4c2.5,2.3,3.8,5.2,4.5,8.5
		c0.4,2.3,0.8,4.6,1.4,6.9c0.2,0.9,0.6,1.1,1.7,0.9c0.1,0,0.2-0.1,0.3-0.1c1.5-0.6,3.6-0.7,5.1-0.7c2.8,0,6.6-0.2,9.4-0.2
		c3.7,0,6.4-0.1,10.2-0.1c1.3,0,2.2-0.1,3.5-0.1c0.8,0,3.9,0,4.7,0c1.7,0,3.4,0.1,5.2,0.3c2,0.2,3.6,0.2,5.8,0.6
		c1.1,0.2,2.7,0.1,3.8,0.1c2,0,4.1,0.3,6,0.3c0.2,0,0.4,0,0.6,0c0.2,0,0.5,0,0.7,0c0.7,0,1.4,0.1,1.3-1c-0.1-2.1,0.1-4.2,0-6.2
		c-0.2-7.8,0.8-15.6,2.8-23.1c2-7.3,4.7-14.3,8.1-21.1c3.4-6.8,6.8-13.7,8.7-21.1c0.6-2.4,0.9-4.8,0.6-7.3
		c-0.5-3.5-1.8-6.7-2.8-10.1c-0.9-2.9-2.3-5.6-3.2-8.5c-0.4-1.2-0.4-2.6,0-3.8c1.2-3.7,2.2-7.4,3-11.2c0.9-4,1.6-7.9,3.2-11.7
		c0.6-1.6,1-3.3,1.3-5c0.5-3.5,1.4-7,2.8-10.2c0.4-0.9,0.6-1.9,1-2.9C853.2,445.5,853,444.9,852.4,444.2"/>
	<path class="st2" d="M852.4,444.2c-2.2-2.5-7-3.7-9.7-1.8c-0.2,0.1-0.5,0.2-0.7,0.3c-0.7,0.4-1,0-1.1-0.7c-0.1-0.9-0.1-1.7-0.2-2.6
		c-0.2-3,0.2-5.9,0.5-8.8c0.4-4.1,0.9-8.2,2.2-12.2c0.4-1.4,0.8-2.8,0.9-4.2c0.1-0.5,0-0.9-0.2-1.3c-0.2-0.4-0.5-0.8-0.9-1
		c-2.2-1.7-4.7-2-7.4-1.6c-2.1,0.3-3.7,1.2-4.9,3c-0.5,0.9-1.2,1.7-1.6,2.6c-1.9,4.3-3.2,8.7-3.8,13.4c-0.1,0.6,0.1,1.6-0.7,1.6
		c-0.7,0.1-1-0.8-1.2-1.5c-0.3-1.1-0.7-2.3-1-3.4c-1.2-4-2.4-8-3.5-12.1c-0.8-3.1-1.5-6.3-2.3-9.4c-0.4-1.7-1.2-2.3-2.9-2.3
		c-1.8,0-3.6,0.3-5.3,0.9c-4.9,1.5-6.9,5-7.2,9.1c-0.3,4.1,0.6,8.2,1.6,12.2c0.7,2.7,1.3,5.4,1.2,8.3c-0.1,2.2,0.1,4.3,0.5,6.5
		c0.3,2,0.8,4.1,1.2,6.1c0.5,3.3,1.3,6.5,2.3,9.7c0.5,1.3,0.5,2.6,0.1,3.9c-0.4,1.3-0.4,2.6-0.3,4c0,1.1-0.3,1.4-1.4,1.1
		c-0.8-0.2-1.6-0.7-2.4-0.9c-3.7-0.8-7.5-0.9-11.3-1.3c-5.3-0.5-10.6-0.6-15.9-0.6c-2.1,0-4.1,0.3-6.1,1c-4.4,1.5-8.7,3.3-13.1,4.9
		c-2.9,1.1-5.6,2.6-8.8,2.6c-0.5,0-0.9,0-1.4,0.1c-3.8,0.3-6.5,2.2-8,5.8c-0.9,2.2-1,4.6-1.3,6.9c-0.2,1.9-0.7,3.8-1.4,5.6
		c-1,2.3-2.2,4.5-3.3,6.7c-1.3,2.6-1.4,5.3-0.8,8.1c1,4.5,3.2,8.6,5.2,12.7c1.5,3.1,3.1,6,4.7,9.1c2,3.9,3,8.1,4.4,12.2
		c0.6,1.6,1.3,3.1,1.7,4.8c1.2,5.7,2.2,11.4,4.4,16.8c1.5,3.8,3.1,7.5,5.6,10.7c1.3,1.6,2.8,3.1,4.3,4.4c2.5,2.3,3.8,5.2,4.5,8.5
		c0.4,2.3,0.8,4.6,1.4,6.9c0.2,0.9,0.6,1.1,1.7,0.9c0.1,0,0.2-0.1,0.3-0.1c1.5-0.6,3.6-0.7,5.1-0.7c2.8,0,6.6-0.2,9.4-0.2
		c3.7,0,6.4-0.1,10.2-0.1c1.3,0,2.2-0.1,3.5-0.1c0.8,0,3.9,0,4.7,0c1.7,0,3.4,0.1,5.2,0.3c2,0.2,3.6,0.2,5.8,0.6
		c1.1,0.2,2.7,0.1,3.8,0.1c2,0,4.1,0.3,6,0.3c0.2,0,0.4,0,0.6,0c0.2,0,0.5,0,0.7,0c0.7,0,1.4,0.1,1.3-1c-0.1-2.1,0.1-4.2,0-6.2
		c-0.2-7.8,0.8-15.6,2.8-23.1c2-7.3,4.7-14.3,8.1-21.1c3.4-6.8,6.8-13.7,8.7-21.1c0.6-2.4,0.9-4.8,0.6-7.3
		c-0.5-3.5-1.8-6.7-2.8-10.1c-0.9-2.9-2.3-5.6-3.2-8.5c-0.4-1.2-0.4-2.6,0-3.8c1.2-3.7,2.2-7.4,3-11.2c0.9-4,1.6-7.9,3.2-11.7
		c0.6-1.6,1-3.3,1.3-5c0.5-3.5,1.4-7,2.8-10.2c0.4-0.9,0.6-1.9,1-2.9C853.2,445.5,853,444.9,852.4,444.2"/>
	<path class="st1" d="M770,587.4l-1.4-4.3l-1.4-6l-4.2-5.2l-5.8-7.5l-3.8-8.7l-3.8-12.8l-2-7.7l-5.6-14.4l-2.9-5.6l-4.8-9l-1.6-5.3
		l0.4-4l2.5-4.6l3.6-8.8l0.2-5.9l3.9-5.6l3.2-1l4.5-0.3l4.3-1.4l9.6-4.1l7.7-2.6l4.8-0.6l22.5,1.2l6.7,1.5l1.9,1l1.4-6.2l-0.5-4.7
		l-3.9-19.9l-0.7-7.5l-1.8-11.7l0.2-5.7l3.6-4.1l6.7-1.9l3,0.7l4.8,18.8l3.3,9.9l1.4-0.7l1.3-3.6l3.2-11.1l3.2-4.9l3.5-1.3h2.4
		l2.7,0.9l1.7,1.6l0.2,1.5l-2.1,7.6l-1.5,12.6l0.4,8.3l4.4-1.3l3.9,0.3l2.5,1.5l1.1,1.2l-2.2,6.3l-2.2,10l-2.8,9.1l-1.3,6.5l-2.4,8
		l-1,4.1l1.7,5.8l3.5,10.4l1.2,4.6l-0.4,5l-4.2,12.1l-4.6,9.5l-4.3,9.7l-4.8,11.9l-1.1,6l-1.2,7.4l-0.2,9.3l-0.2,6
		c0,0-8.6-0.3-9-0.3s-22.2-1.3-22.2-1.3s-8.2,1-9.1,0.9c-0.9-0.1-12.5,0.2-12.5,0.2L770,587.4z"/>
	<path class="st0" d="M851.6,446.2c-0.4,1.4-0.8,2.8-1.4,4.2c-0.1,0.2-0.1,0.4-0.3,0.4c-0.2,0-0.2-0.3-0.2-0.4c0-0.2,0-0.3,0.1-0.4
		c0.1-1.4,0.5-2.7,0.9-4c0.1-0.3,0.3-0.6,0.7-0.5C851.8,445.5,851.7,445.9,851.6,446.2z M849.2,445.6c-0.4,1.1-0.5,2.3-0.8,3.5
		c-0.4,1.4-0.6,2.9,0.3,4.3c0.3,0.5,0.2,1,0.1,1.5c-0.9,3.2-1.3,6.6-2.7,9.7c-1.4,3.3-1.3,6.9-2.2,10.3c-0.3,1.4-0.5,2.8-1.1,4.1
		c-0.3,0.8-0.8,1.6-1.6,2c-0.5,0.2-0.5,0.5-0.2,0.8c0.5,0.4,0.3,0.8,0.1,1.2c-0.4,0.7-0.7,1.5-1,2.2c-0.3,0.7-0.5,0.4-0.7,0
		c-0.4-0.8-0.2-1.7-0.3-2.4c0-3.8,0.8-7.3,1.8-10.8c0.3-1.1,1-2.2,1.3-3.3c0.7-2.3,0.9-4.6,0.5-6.9c-0.2-1-0.2-2.1-0.2-3.1
		c0-3.7-0.5-7.5-0.6-11.2c0-1.8,0.8-2.8,2.3-3.5c1.7-0.8,3.4-0.6,4.9,0.4C849.5,444.6,849.3,445.2,849.2,445.6L849.2,445.6z
		 M840.2,421.2c-0.1-0.2-0.1-0.5-0.1-0.7c0-1.2,0.2-2.1,0.5-2.9c0.3-1.2,0.6-2.3,0.9-3.5c0.2-0.7,0.7-0.8,1.2-0.2
		c0.1,0.2,0.2,0.4,0.3,0.6c0,0.2,0,0.5,0,0.7c-0.5,2-0.9,4.1-1.6,6.1c-0.1,0.4-0.2,0.9-0.7,0.9C840.3,422.1,840.3,421.5,840.2,421.2
		z M840.2,413.9c-1,2.6-1.3,5.2-1.5,7.9c-0.1,0.7,0.2,1.4,0.6,1.9c0.9,1.1,0.9,2.4,0.6,3.7c-0.5,2.4-0.6,4.9-0.9,7.4
		c-0.1,1-0.6,1.2-1.5,1.2c-0.3,0-0.7-0.1-0.8,0.2c-0.1,0.4,0.4,0.6,0.6,0.7c1.5,0.6,1.7,1.7,1.7,3.1c0.1,2.9,0.4,5.7,0.5,8.6
		c0.1,2.3,0.4,4.6,0.3,6.9c0,0.5,0,0.9,0.2,1.4c0.3,1.2,0.4,2.4-0.6,3.4c-0.4,0.4-0.3,0.7,0.2,0.8c0.9,0.3,1.1,0.9,1.1,1.8
		c0.1,1.9-0.1,3.8-0.6,5.6c-0.2,0.8-0.4,1.6-1.4,1.6c-0.5,0-0.5,0.3-0.3,0.7c0.9,1.6,0.3,3.2,0,4.8c-0.1,0.4-0.2,0.8-0.4,1.2
		c-0.8-0.7-0.8-1.6-0.9-2.4c-0.5-2.9-0.8-5.9-1.3-8.9c-0.3-1.6-0.7-3.2-1-4.8c-0.4-1.8-0.3-3.7-0.9-5.4c-1.1-3.6-2.1-7.3-3.7-10.8
		c-1-2.1-1.8-4.2-2.5-6.4c-0.2-0.6-0.6-1.4,0.6-1.3c0.3,0,0.2-0.2,0.1-0.3c-0.1-0.2-0.2-0.3-0.3-0.4c-1.4-1.2-1.3-2.7-0.9-4.3
		c0.9-3.5,1.6-7.1,2.6-10.6c0.9-3,2-5.8,4.2-8.1c1.5-1.5,3.3-2,5.3-1.3C840.5,412.1,840.6,412.7,840.2,413.9L840.2,413.9z
		 M828.2,444.3c0.6,2.2,1.5,4.4,0.8,6.7c-0.2,0.6,0.1,0.5,0.6,0.5c1.2-0.1,1.8,0.4,2.2,1.5c0.4,1.3,0.4,2.7-0.1,3.9
		c-0.3,0.7-0.7,1.3,0.4,1.6c0.5,0.1,0.6,0.8,0.7,1.3c0.3,1.9,0.7,3.7,0.9,5.6c0.5,5.1,1.7,10.1,2.6,15.1c0.9,4.8,2.7,9.3,4.6,13.7
		c1.6,3.8,3.1,7.6,4.2,11.5c1,3.7,1.1,7.3,0.1,11c-0.7,2.6-1.7,5.1-2.8,7.7c-2,5-4.5,9.9-6.6,14.9c-1.4,3.3-2.8,6.6-4.2,9.9
		c-1.9,4.2-3.6,8.5-4.4,13.1c-0.7,3.6-1.2,7.3-1.5,11c-0.4,4.6-0.6,9.2-0.7,13.8c-1.3,0-1.8-0.2-3.1-0.1c-0.8,0-1.6,0-2.4-0.1
		c-1.4-0.1-2.9,0-4.1-0.2c-1.3-0.2-2.6-0.3-3.9-0.4c-2.4-0.2-4.9-0.3-7.3-0.3c-6.4,0-12.7-0.1-19.1,0.1c-2.9,0.1-5.8,0.3-8.7,0.4
		c-1.3,0.1-2.7,0-4,0.2c-0.3,0-0.9,0-1.4,0.1c-0.4-1.7-0.8-3.3-0.9-5c0-0.5-0.2-1.2,0.4-1.5c0.9-0.4,0.6-0.8,0.1-1.3
		c-2.2-2.4-4.3-4.8-6.5-7.1c-3.3-3.4-6-7.3-7.9-11.7c-1.7-3.9-2.8-8.1-4.1-12.2c-0.3-0.9-0.5-1.9-0.6-2.8c-0.1-0.3-0.1-0.7,0.2-0.9
		c0.3-0.2,0.7,0,1,0.3c0.5,0.5,1,1.1,1.5,1.6c1.6,1.7,3.3,3.1,5.3,4.3c-0.2-0.4-0.5-0.7-0.8-1c-2.4-1.8-4-4.3-5.6-6.8
		c-2.6-4-4.2-8.4-6-12.8c-2.6-6.6-5.2-13.1-8.5-19.3c-1.5-2.8-3-5.6-3.7-8.8c-0.9-3.8,0.2-7,3.4-9.3c1.2-0.9,2.5-1.5,3.9-2
		c-0.9-0.2-1.4,0.2-2,0.4c-0.6,0.2-1.1,0.5-1.7,0.6c-0.7,0.1-0.9-0.2-0.8-0.9c0.1-0.4,0.3-0.9,0.6-1.2c0.5-0.7,0.8-1.5,1.1-2.4
		c0.7-2.3,2.3-3.7,4.5-4.5c0.8-0.3,1.6-0.6,2.3-0.8c1.2-0.4,1.7-1.3,2-2.5c0.2-0.9,0.2-1.7,0.1-2.6c-0.2-1.1-0.5-2.2-0.9-3.3
		c-0.4-1.2-0.1-1.6,1.2-1.6c1.7-0.1,3,0.6,4.2,1.7c2.4,2.1,3.8,4.9,5.1,7.8c1.8,4.1,1.9,8.5,2,12.9c0,0.7-0.3,0.9-0.9,0.8
		c-0.3,0-0.7-0.2-1.2-0.4c1.9,2.3,3,4.8,4.6,7c2.8,3.7,5.3,7.7,8.2,11.2c1.5,1.8,3.1,3,5.4,3.5c3.2,0.7,6.3,1.5,9.5,2.3
		c2.4,0.6,4.8,1.2,7.2,1.6c1.2,0.2,2.4,0.5,3.7,0.3c-5.2-1-10.3-2.5-15.4-3.9c-0.5-0.1-1-0.3-1.4-0.5c-0.6-0.4-0.6-0.8,0.1-1.1
		c0.5-0.2,0.9-0.4,1.4-0.5c5.2-1.6,10.6-1.5,16-1.4c3.8,0.1,7.6,0.7,11.4,1c0-0.1,0-0.1-0.1-0.2c-0.1-0.1-0.1-0.1-0.2-0.1
		c-2.9-0.8-5.7-1.9-8.8-2c-0.7,0-1.2-0.3-1-1.1c0.4-2.8,1.6-5.2,3.2-7.4c0.4-0.6,1-0.7,1.5-0.2l1.9,1.7c-0.6-1.2-1.1-2.4-1.3-3.8
		c-0.2-1.6,0.5-2.5,2.1-2.5c0.6,0,1.3,0.1,1.9,0.1c0.6,0,1.2,0,1.8,0.1c-4.7-2-8.9-4.7-12.3-8.7c-2.5-2.9-3-6-1.8-9.5
		c0.1-0.3,0.4-0.6,0.1-1.1c-3.6,2.8-7.6,2.5-11.7,1.4c-3.9-1-8-1.9-10.3-6.1c-0.2,1,0.1,1.8,0.2,2.5c0,0.7-0.2,1.2-0.8,1.4
		c-3.4,1.2-6.8,2.2-10.4,2.1c-1.8,0-3.5-0.6-4.6-2.2c-1.1-1.5-2-3.1-3-4.6c-0.5-0.8-0.1-1.1,0.6-1.3c0.5-0.2,1-0.2,1.4-0.4
		c2.6-1.1,5-2.3,6.1-5.2c0.1-0.3,0.3-0.5,0.5-0.7c0.2-0.2,0.4-0.3,0.7-0.4c2.6-1,5.2-2,7.8-3.1c0.3-0.1,0.7-0.4,0.9-0.2
		c0.7,0.5,1.3,0.1,1.9-0.3c0.5-0.3,1.1-0.4,1.7-0.3c3.3,0.3,6.6,0.6,9.9,0.8c4.7,0.3,9.3,0.6,14,1.2c1.6,0.2,3.2,0.3,4.7,0.8
		c2.3,0.8,3.9,2.1,2.3,4.7c0,0,0,0.1,0.1,0.2c0.6-0.3,1.2-0.6,1.8-1c1.3-0.8,1.4-0.8,2.4,0.4c1.9,2.3,3.6,4.8,5.3,7.3
		c2.1,3.2,4.2,6.4,6.6,9.3c5.1,6,10.3,11.9,15.4,17.9c1.7,2,3.2,4.1,4,6.7c0.2,0.6,0,1.2,0.5,1.7c0.1-3.5-1.3-6.4-3.2-9.1
		c-1.7-2.5-3.7-4.8-5.7-7.1c-3.8-4.5-7.6-9-11.1-13.7c-3.7-4.8-7.3-9.7-11.4-14.2c-0.6-0.6-1-1.5-1.1-2.3c-0.4-2-0.2-4.1-0.2-6.1
		c0-0.3,0.2-0.5,0.4-0.7c0.3-0.4,1.2-0.2,1.1-0.7c0-0.4-0.7-0.7-1-1.1c-0.2-0.3-0.4-0.5-0.5-0.8c-0.6-1.2-0.9-2.5-1.1-3.8
		c-1.1-5.6-2.3-11.1-2.9-16.7c-0.2-1.4-0.1-2.8-0.2-4.1c0-0.2,0-0.6,0.2-0.6c0.8-0.2,0.6-0.4,0.1-0.7c-0.3-0.2-0.2-0.6-0.3-0.9
		c-0.6-3.2-1.3-6.3-1.9-9.5c-0.5-2.6-1-5.2-0.8-7.8c0.3-4.7,3.4-7.5,7.7-7.9c1.2-0.1,1.3,0,1.5,1.2c0.6,2.4,0.9,4.9,1.9,7.2
		c0.6,1.5,1.3,2.9,3.2,3c0.5,0,0.6,0.4,0.7,0.8c1.1,4.8,2.6,9.5,4.3,14.1C824.6,435.1,826.9,439.5,828.2,444.3L828.2,444.3z
		 M817.3,413.5c-0.2,0.1-0.4,0-0.5-0.1c-0.3-0.2-0.6-0.5-0.8-0.9c-1.3-2.5-1.7-5.4-2.5-8.1c-0.2-0.6,0.3-0.9,1-0.6
		c0.4,0.2,0.6,0.6,0.7,0.9c0.7,2.5,1.5,5.1,2.2,7.7c0.1,0.2,0.1,0.5,0.1,0.7c0,0.1,0,0.2,0,0.3C817.4,413.4,817.4,413.4,817.3,413.5
		L817.3,413.5z M760.8,468.5c-0.1,0.4-0.3,0.7-0.6,0.9c-1.6,1.2-3.5,2.1-5.6,2.4c-0.5,0-0.9,0-1.2-0.3c-0.4-0.5-0.5-0.9,0.2-1.1
		c1.3-0.5,2.7-0.9,4-1.4c0.9-0.3,1.7-0.7,2.5-1c0.2-0.1,0.3-0.2,0.5-0.1C761,468.1,760.9,468.3,760.8,468.5L760.8,468.5z
		 M746.9,475.2c0.6,1.3,0.5,2.7,0.1,4.1c-0.2,0.8-0.9,1.3-1.6,1.6c-1.2,0.5-2.4,1-3.6,1.6c-1.4,0.7-1.5,0.7-1.5-1.3
		c0.4-2.1,0.6-4.7,2.4-6.7C744.2,472.7,746,473,746.9,475.2L746.9,475.2z M852.4,444.2c-2.2-2.5-7-3.7-9.7-1.8
		c-0.2,0.1-0.5,0.2-0.7,0.3c-0.7,0.4-1,0-1.1-0.7c-0.1-0.9-0.1-1.7-0.2-2.6c-0.2-3,0.2-5.9,0.5-8.8c0.4-4.1,0.9-8.2,2.2-12.2
		c0.4-1.4,0.8-2.8,0.9-4.2c0.1-0.5,0-0.9-0.2-1.3c-0.2-0.4-0.5-0.8-0.9-1c-2.2-1.7-4.7-2-7.4-1.6c-2.1,0.3-3.7,1.2-4.9,3
		c-0.5,0.9-1.2,1.7-1.6,2.6c-1.9,4.3-3.2,8.7-3.8,13.4c-0.1,0.6,0.1,1.6-0.7,1.6c-0.7,0.1-1-0.8-1.2-1.5c-0.3-1.1-0.7-2.3-1-3.4
		c-1.2-4-2.4-8-3.5-12.1c-0.8-3.1-1.5-6.3-2.3-9.4c-0.4-1.7-1.2-2.3-2.9-2.3c-1.8,0-3.6,0.3-5.3,0.9c-4.9,1.5-6.9,5-7.2,9.1
		c-0.3,4.1,0.6,8.2,1.6,12.2c0.7,2.7,1.3,5.4,1.2,8.3c-0.1,2.2,0.1,4.3,0.5,6.5c0.3,2,0.8,4.1,1.2,6.1c0.5,3.3,1.3,6.5,2.3,9.7
		c0.5,1.3,0.5,2.6,0.1,3.9c-0.4,1.3-0.4,2.6-0.3,4c0,1.1-0.3,1.4-1.4,1.1c-0.8-0.2-1.6-0.7-2.4-0.9c-3.7-0.8-7.5-0.9-11.3-1.3
		c-5.3-0.5-10.6-0.6-15.9-0.6c-2.1,0-4.1,0.3-6.1,1c-4.4,1.5-8.7,3.3-13.1,4.9c-2.9,1.1-5.6,2.6-8.8,2.6c-0.5,0-0.9,0-1.4,0.1
		c-3.8,0.3-6.5,2.2-8,5.8c-0.9,2.2-1,4.6-1.3,6.9c-0.2,1.9-0.7,3.8-1.4,5.6c-1,2.3-2.2,4.5-3.3,6.7c-1.3,2.6-1.4,5.3-0.8,8.1
		c1,4.5,3.2,8.6,5.2,12.7c1.5,3.1,3.1,6,4.7,9.1c2,3.9,3,8.1,4.4,12.2c0.6,1.6,1.3,3.1,1.7,4.8c1.2,5.7,2.2,11.4,4.4,16.8
		c1.5,3.8,3.1,7.5,5.6,10.7c1.3,1.6,2.8,3.1,4.3,4.4c2.5,2.3,3.8,5.2,4.5,8.5c0.4,2.3,0.8,4.6,1.4,6.9c0.2,0.9,0.6,1.1,1.7,0.9
		c0.1,0,0.2-0.1,0.3-0.1c1.5-0.6,3.6-0.7,5.1-0.7c2.8,0,6.6-0.2,9.4-0.2c3.7,0,6.4-0.1,10.2-0.1c1.3,0,2.2-0.1,3.5-0.1
		c0.8,0,3.9,0,4.7,0c1.7,0,3.4,0.1,5.2,0.3c2,0.2,3.6,0.2,5.8,0.6c1.1,0.2,2.7,0.1,3.8,0.1c2,0,4.1,0.3,6,0.3c0.2,0,0.4,0,0.6,0
		c0.2,0,0.5,0,0.7,0c0.7,0,1.4,0.1,1.3-1c-0.1-2.1,0.1-4.2,0-6.2c-0.2-7.8,0.8-15.6,2.8-23.1c2-7.3,4.7-14.3,8.1-21.1
		c3.4-6.8,6.8-13.7,8.7-21.1c0.6-2.4,0.9-4.8,0.6-7.3c-0.5-3.5-1.8-6.7-2.8-10.1c-0.9-2.9-2.3-5.6-3.2-8.5c-0.4-1.2-0.4-2.6,0-3.8
		c1.2-3.7,2.2-7.4,3-11.2c0.9-4,1.6-7.9,3.2-11.7c0.6-1.6,1-3.3,1.3-5c0.5-3.5,1.4-7,2.8-10.2c0.4-0.9,0.6-1.9,1-2.9
		C853.2,445.5,853,444.9,852.4,444.2"/>
	<path class="st3" d="M852.4,444.2c-2.2-2.5-7-3.7-9.7-1.8c-0.2,0.1-0.5,0.2-0.7,0.3c-0.7,0.4-1,0-1.1-0.7c-0.1-0.9-0.1-1.7-0.2-2.6
		c-0.2-3,0.2-5.9,0.5-8.8c0.4-4.1,0.9-8.2,2.2-12.2c0.4-1.4,0.8-2.8,0.9-4.2c0.1-0.5,0-0.9-0.2-1.3c-0.2-0.4-0.5-0.8-0.9-1
		c-2.2-1.7-4.7-2-7.4-1.6c-2.1,0.3-3.7,1.2-4.9,3c-0.5,0.9-1.2,1.7-1.6,2.6c-1.9,4.3-3.2,8.7-3.8,13.4c-0.1,0.6,0.1,1.6-0.7,1.6
		c-0.7,0.1-1-0.8-1.2-1.5c-0.3-1.1-0.7-2.3-1-3.4c-1.2-4-2.4-8-3.5-12.1c-0.8-3.1-1.5-6.3-2.3-9.4c-0.4-1.7-1.2-2.3-2.9-2.3
		c-1.8,0-3.6,0.3-5.3,0.9c-4.9,1.5-6.9,5-7.2,9.1c-0.3,4.1,0.6,8.2,1.6,12.2c0.7,2.7,1.3,5.4,1.2,8.3c-0.1,2.2,0.1,4.3,0.5,6.5
		c0.3,2,0.8,4.1,1.2,6.1c0.5,3.3,1.3,6.5,2.3,9.7c0.5,1.3,0.5,2.6,0.1,3.9c-0.4,1.3-0.4,2.6-0.3,4c0,1.1-0.3,1.4-1.4,1.1
		c-0.8-0.2-1.6-0.7-2.4-0.9c-3.7-0.8-7.5-0.9-11.3-1.3c-5.3-0.5-10.6-0.6-15.9-0.6c-2.1,0-4.1,0.3-6.1,1c-4.4,1.5-8.7,3.3-13.1,4.9
		c-2.9,1.1-5.6,2.6-8.8,2.6c-0.5,0-0.9,0-1.4,0.1c-3.8,0.3-6.5,2.2-8,5.8c-0.9,2.2-1,4.6-1.3,6.9c-0.2,1.9-0.7,3.8-1.4,5.6
		c-1,2.3-2.2,4.5-3.3,6.7c-1.3,2.6-1.4,5.3-0.8,8.1c1,4.5,3.2,8.6,5.2,12.7c1.5,3.1,3.1,6,4.7,9.1c2,3.9,3,8.1,4.4,12.2
		c0.6,1.6,1.3,3.1,1.7,4.8c1.2,5.7,2.2,11.4,4.4,16.8c1.5,3.8,3.1,7.5,5.6,10.7c1.3,1.6,2.8,3.1,4.3,4.4c2.5,2.3,3.8,5.2,4.5,8.5
		c0.4,2.3,0.8,4.6,1.4,6.9c0.2,0.9,0.6,1.1,1.7,0.9c0.1,0,0.2-0.1,0.3-0.1c1.5-0.6,3.6-0.7,5.1-0.7c2.8,0,6.6-0.2,9.4-0.2
		c3.7,0,6.4-0.1,10.2-0.1c1.3,0,2.2-0.1,3.5-0.1c0.8,0,3.9,0,4.7,0c1.7,0,3.4,0.1,5.2,0.3c2,0.2,3.6,0.2,5.8,0.6
		c1.1,0.2,2.7,0.1,3.8,0.1c2,0,4.1,0.3,6,0.3c0.2,0,0.4,0,0.6,0c0.2,0,0.5,0,0.7,0c0.7,0,1.4,0.1,1.3-1c-0.1-2.1,0.1-4.2,0-6.2
		c-0.2-7.8,0.8-15.6,2.8-23.1c2-7.3,4.7-14.3,8.1-21.1c3.4-6.8,6.8-13.7,8.7-21.1c0.6-2.4,0.9-4.8,0.6-7.3
		c-0.5-3.5-1.8-6.7-2.8-10.1c-0.9-2.9-2.3-5.6-3.2-8.5c-0.4-1.2-0.4-2.6,0-3.8c1.2-3.7,2.2-7.4,3-11.2c0.9-4,1.6-7.9,3.2-11.7
		c0.6-1.6,1-3.3,1.3-5c0.5-3.5,1.4-7,2.8-10.2c0.4-0.9,0.6-1.9,1-2.9C853.2,445.5,853,444.9,852.4,444.2 M851.6,446.2
		c-0.4,1.4-0.8,2.8-1.4,4.2c-0.1,0.2-0.1,0.4-0.3,0.4c-0.2,0-0.2-0.3-0.2-0.4c0-0.2,0-0.3,0.1-0.4c0.1-1.4,0.5-2.7,0.9-4
		c0.1-0.3,0.3-0.6,0.7-0.5C851.8,445.5,851.7,445.9,851.6,446.2z M849.2,445.6c-0.4,1.1-0.5,2.3-0.8,3.5c-0.4,1.4-0.6,2.9,0.3,4.3
		c0.3,0.5,0.2,1,0.1,1.5c-0.9,3.2-1.3,6.6-2.7,9.7c-1.4,3.3-1.3,6.9-2.2,10.3c-0.3,1.4-0.5,2.8-1.1,4.1c-0.3,0.8-0.8,1.6-1.6,2
		c-0.5,0.2-0.5,0.5-0.2,0.8c0.5,0.4,0.3,0.8,0.1,1.2c-0.4,0.7-0.7,1.5-1,2.2c-0.3,0.7-0.5,0.4-0.7,0c-0.4-0.8-0.2-1.7-0.3-2.4
		c0-3.8,0.8-7.3,1.8-10.8c0.3-1.1,1-2.2,1.3-3.3c0.7-2.3,0.9-4.6,0.5-6.9c-0.2-1-0.2-2.1-0.2-3.1c0-3.7-0.5-7.5-0.6-11.2
		c0-1.8,0.8-2.8,2.3-3.5c1.7-0.8,3.4-0.6,4.9,0.4C849.5,444.6,849.3,445.2,849.2,445.6L849.2,445.6z M840.2,421.2
		c-0.1-0.2-0.1-0.5-0.1-0.7c0-1.2,0.2-2.1,0.5-2.9c0.3-1.2,0.6-2.3,0.9-3.5c0.2-0.7,0.7-0.8,1.2-0.2c0.1,0.2,0.2,0.4,0.3,0.6
		c0,0.2,0,0.5,0,0.7c-0.5,2-0.9,4.1-1.6,6.1c-0.1,0.4-0.2,0.9-0.7,0.9C840.3,422.1,840.3,421.5,840.2,421.2z M840.2,413.9
		c-1,2.6-1.3,5.2-1.5,7.9c-0.1,0.7,0.2,1.4,0.6,1.9c0.9,1.1,0.9,2.4,0.6,3.7c-0.5,2.4-0.6,4.9-0.9,7.4c-0.1,1-0.6,1.2-1.5,1.2
		c-0.3,0-0.7-0.1-0.8,0.2c-0.1,0.4,0.4,0.6,0.6,0.7c1.5,0.6,1.7,1.7,1.7,3.1c0.1,2.9,0.4,5.7,0.5,8.6c0.1,2.3,0.4,4.6,0.3,6.9
		c0,0.5,0,0.9,0.2,1.4c0.3,1.2,0.4,2.4-0.6,3.4c-0.4,0.4-0.3,0.7,0.2,0.8c0.9,0.3,1.1,0.9,1.1,1.8c0.1,1.9-0.1,3.8-0.6,5.6
		c-0.2,0.8-0.4,1.6-1.4,1.6c-0.5,0-0.5,0.3-0.3,0.7c0.9,1.6,0.3,3.2,0,4.8c-0.1,0.4-0.2,0.8-0.4,1.2c-0.8-0.7-0.8-1.6-0.9-2.4
		c-0.5-2.9-0.8-5.9-1.3-8.9c-0.3-1.6-0.7-3.2-1-4.8c-0.4-1.8-0.3-3.7-0.9-5.4c-1.1-3.6-2.1-7.3-3.7-10.8c-1-2.1-1.8-4.2-2.5-6.4
		c-0.2-0.6-0.6-1.4,0.6-1.3c0.3,0,0.2-0.2,0.1-0.3c-0.1-0.2-0.2-0.3-0.3-0.4c-1.4-1.2-1.3-2.7-0.9-4.3c0.9-3.5,1.6-7.1,2.6-10.6
		c0.9-3,2-5.8,4.2-8.1c1.5-1.5,3.3-2,5.3-1.3C840.5,412.1,840.6,412.7,840.2,413.9L840.2,413.9z M828.2,444.3
		c0.6,2.2,1.5,4.4,0.8,6.7c-0.2,0.6,0.1,0.5,0.6,0.5c1.2-0.1,1.8,0.4,2.2,1.5c0.4,1.3,0.4,2.7-0.1,3.9c-0.3,0.7-0.7,1.3,0.4,1.6
		c0.5,0.1,0.6,0.8,0.7,1.3c0.3,1.9,0.7,3.7,0.9,5.6c0.5,5.1,1.7,10.1,2.6,15.1c0.9,4.8,2.7,9.3,4.6,13.7c1.6,3.8,3.1,7.6,4.2,11.5
		c1,3.7,1.1,7.3,0.1,11c-0.7,2.6-1.7,5.1-2.8,7.7c-2,5-4.5,9.9-6.6,14.9c-1.4,3.3-2.8,6.6-4.2,9.9c-1.9,4.2-3.6,8.5-4.4,13.1
		c-0.7,3.6-1.2,7.3-1.5,11c-0.4,4.6-0.6,9.2-0.7,13.8c-1.3,0-1.8-0.2-3.1-0.1c-0.8,0-1.6,0-2.4-0.1c-1.4-0.1-2.9,0-4.1-0.2
		c-1.3-0.2-2.6-0.3-3.9-0.4c-2.4-0.2-4.9-0.3-7.3-0.3c-6.4,0-12.7-0.1-19.1,0.1c-2.9,0.1-5.8,0.3-8.7,0.4c-1.3,0.1-2.7,0-4,0.2
		c-0.3,0-0.9,0-1.4,0.1c-0.4-1.7-0.8-3.3-0.9-5c0-0.5-0.2-1.2,0.4-1.5c0.9-0.4,0.6-0.8,0.1-1.3c-2.2-2.4-4.3-4.8-6.5-7.1
		c-3.3-3.4-6-7.3-7.9-11.7c-1.7-3.9-2.8-8.1-4.1-12.2c-0.3-0.9-0.5-1.9-0.6-2.8c-0.1-0.3-0.1-0.7,0.2-0.9c0.3-0.2,0.7,0,1,0.3
		c0.5,0.5,1,1.1,1.5,1.6c1.6,1.7,3.3,3.1,5.3,4.3c-0.2-0.4-0.5-0.7-0.8-1c-2.4-1.8-4-4.3-5.6-6.8c-2.6-4-4.2-8.4-6-12.8
		c-2.6-6.6-5.2-13.1-8.5-19.3c-1.5-2.8-3-5.6-3.7-8.8c-0.9-3.8,0.2-7,3.4-9.3c1.2-0.9,2.5-1.5,3.9-2c-0.9-0.2-1.4,0.2-2,0.4
		c-0.6,0.2-1.1,0.5-1.7,0.6c-0.7,0.1-0.9-0.2-0.8-0.9c0.1-0.4,0.3-0.9,0.6-1.2c0.5-0.7,0.8-1.5,1.1-2.4c0.7-2.3,2.3-3.7,4.5-4.5
		c0.8-0.3,1.6-0.6,2.3-0.8c1.2-0.4,1.7-1.3,2-2.5c0.2-0.9,0.2-1.7,0.1-2.6c-0.2-1.1-0.5-2.2-0.9-3.3c-0.4-1.2-0.1-1.6,1.2-1.6
		c1.7-0.1,3,0.6,4.2,1.7c2.4,2.1,3.8,4.9,5.1,7.8c1.8,4.1,1.9,8.5,2,12.9c0,0.7-0.3,0.9-0.9,0.8c-0.3,0-0.7-0.2-1.2-0.4
		c1.9,2.3,3,4.8,4.6,7c2.8,3.7,5.3,7.7,8.2,11.2c1.5,1.8,3.1,3,5.4,3.5c3.2,0.7,6.3,1.5,9.5,2.3c2.4,0.6,4.8,1.2,7.2,1.6
		c1.2,0.2,2.4,0.5,3.7,0.3c-5.2-1-10.3-2.5-15.4-3.9c-0.5-0.1-1-0.3-1.4-0.5c-0.6-0.4-0.6-0.8,0.1-1.1c0.5-0.2,0.9-0.4,1.4-0.5
		c5.2-1.6,10.6-1.5,16-1.4c3.8,0.1,7.6,0.7,11.4,1c0-0.1,0-0.1-0.1-0.2c-0.1-0.1-0.1-0.1-0.2-0.1c-2.9-0.8-5.7-1.9-8.8-2
		c-0.7,0-1.2-0.3-1-1.1c0.4-2.8,1.6-5.2,3.2-7.4c0.4-0.6,1-0.7,1.5-0.2l1.9,1.7c-0.6-1.2-1.1-2.4-1.3-3.8c-0.2-1.6,0.5-2.5,2.1-2.5
		c0.6,0,1.3,0.1,1.9,0.1c0.6,0,1.2,0,1.8,0.1c-4.7-2-8.9-4.7-12.3-8.7c-2.5-2.9-3-6-1.8-9.5c0.1-0.3,0.4-0.6,0.1-1.1
		c-3.6,2.8-7.6,2.5-11.7,1.4c-3.9-1-8-1.9-10.3-6.1c-0.2,1,0.1,1.8,0.2,2.5c0,0.7-0.2,1.2-0.8,1.4c-3.4,1.2-6.8,2.2-10.4,2.1
		c-1.8,0-3.5-0.6-4.6-2.2c-1.1-1.5-2-3.1-3-4.6c-0.5-0.8-0.1-1.1,0.6-1.3c0.5-0.2,1-0.2,1.4-0.4c2.6-1.1,5-2.3,6.1-5.2
		c0.1-0.3,0.3-0.5,0.5-0.7c0.2-0.2,0.4-0.3,0.7-0.4c2.6-1,5.2-2,7.8-3.1c0.3-0.1,0.7-0.4,0.9-0.2c0.7,0.5,1.3,0.1,1.9-0.3
		c0.5-0.3,1.1-0.4,1.7-0.3c3.3,0.3,6.6,0.6,9.9,0.8c4.7,0.3,9.3,0.6,14,1.2c1.6,0.2,3.2,0.3,4.7,0.8c2.3,0.8,3.9,2.1,2.3,4.7
		c0,0,0,0.1,0.1,0.2c0.6-0.3,1.2-0.6,1.8-1c1.3-0.8,1.4-0.8,2.4,0.4c1.9,2.3,3.6,4.8,5.3,7.3c2.1,3.2,4.2,6.4,6.6,9.3
		c5.1,6,10.3,11.9,15.4,17.9c1.7,2,3.2,4.1,4,6.7c0.2,0.6,0,1.2,0.5,1.7c0.1-3.5-1.3-6.4-3.2-9.1c-1.7-2.5-3.7-4.8-5.7-7.1
		c-3.8-4.5-7.6-9-11.1-13.7c-3.7-4.8-7.3-9.7-11.4-14.2c-0.6-0.6-1-1.5-1.1-2.3c-0.4-2-0.2-4.1-0.2-6.1c0-0.3,0.2-0.5,0.4-0.7
		c0.3-0.4,1.2-0.2,1.1-0.7c0-0.4-0.7-0.7-1-1.1c-0.2-0.3-0.4-0.5-0.5-0.8c-0.6-1.2-0.9-2.5-1.1-3.8c-1.1-5.6-2.3-11.1-2.9-16.7
		c-0.2-1.4-0.1-2.8-0.2-4.1c0-0.2,0-0.6,0.2-0.6c0.8-0.2,0.6-0.4,0.1-0.7c-0.3-0.2-0.2-0.6-0.3-0.9c-0.6-3.2-1.3-6.3-1.9-9.5
		c-0.5-2.6-1-5.2-0.8-7.8c0.3-4.7,3.4-7.5,7.7-7.9c1.2-0.1,1.3,0,1.5,1.2c0.6,2.4,0.9,4.9,1.9,7.2c0.6,1.5,1.3,2.9,3.2,3
		c0.5,0,0.6,0.4,0.7,0.8c1.1,4.8,2.6,9.5,4.3,14.1C824.6,435.1,826.9,439.5,828.2,444.3L828.2,444.3z M817.3,413.5
		c-0.2,0.1-0.4,0-0.5-0.1c-0.3-0.2-0.6-0.5-0.8-0.9c-1.3-2.5-1.7-5.4-2.5-8.1c-0.2-0.6,0.3-0.9,1-0.6c0.4,0.2,0.6,0.6,0.7,0.9
		c0.7,2.5,1.5,5.1,2.2,7.7c0.1,0.2,0.1,0.5,0.1,0.7c0,0.1,0,0.2,0,0.3C817.4,413.4,817.4,413.4,817.3,413.5L817.3,413.5z
		 M760.8,468.5c-0.1,0.4-0.3,0.7-0.6,0.9c-1.6,1.2-3.5,2.1-5.6,2.4c-0.5,0-0.9,0-1.2-0.3c-0.4-0.5-0.5-0.9,0.2-1.1
		c1.3-0.5,2.7-0.9,4-1.4c0.9-0.3,1.7-0.7,2.5-1c0.2-0.1,0.3-0.2,0.5-0.1C761,468.1,760.9,468.3,760.8,468.5L760.8,468.5z
		 M746.9,475.2c0.6,1.3,0.5,2.7,0.1,4.1c-0.2,0.8-0.9,1.3-1.6,1.6c-1.2,0.5-2.4,1-3.6,1.6c-1.4,0.7-1.5,0.7-1.5-1.3
		c0.4-2.1,0.6-4.7,2.4-6.7C744.2,472.7,746,473,746.9,475.2L746.9,475.2z"/>
</g>
</svg>
