<?xml version="1.0" encoding="utf-8"?>
<!-- Generator: Adobe Illustrator 27.2.0, SVG Export Plug-In . SVG Version: 6.00 Build 0)  -->
<svg version="1.1" id="Layer_1" xmlns="http://www.w3.org/2000/svg" xmlns:xlink="http://www.w3.org/1999/xlink" x="0px" y="0px"
	 viewBox="0 0 1600 1000" style="enable-background:new 0 0 1600 1000;" xml:space="preserve">
<style type="text/css">
	.st0{fill:#FFBD00;}
	.st1{fill-rule:evenodd;clip-rule:evenodd;fill:#FFFFFF;filter:url(#Adobe_OpacityMaskFilter);}
	.st2{mask:url(#mask0_101_2_00000003794046939335921020000016217368098857142930_);}
	.st3{fill-rule:evenodd;clip-rule:evenodd;fill:#007269;}
	.st4{fill-rule:evenodd;clip-rule:evenodd;fill:#FAFAFA;}
	.st5{fill-rule:evenodd;clip-rule:evenodd;fill:#13110E;}
	
		.st6{fill-rule:evenodd;clip-rule:evenodd;fill:#FFFFFF;filter:url(#Adobe_OpacityMaskFilter_00000124845411631244513690000014135479898503820946_);}
	.st7{mask:url(#mask1_101_2_00000104694228408919367950000016832472771116534692_);}
</style>
<rect x="-3" y="-3" class="st0" width="1606" height="1006"/>
<g>
	<defs>
		<filter id="Adobe_OpacityMaskFilter" filterUnits="userSpaceOnUse" x="451.2" y="359" width="697.6" height="193.1">
			<feColorMatrix  type="matrix" values="1 0 0 0 0  0 1 0 0 0  0 0 1 0 0  0 0 0 1 0"/>
		</filter>
	</defs>
	
		<mask maskUnits="userSpaceOnUse" x="451.2" y="359" width="697.6" height="193.1" id="mask0_101_2_00000003794046939335921020000016217368098857142930_">
		<path class="st1" d="M451.2,359h697.6v193.1H451.2V359z"/>
	</mask>
	<g class="st2">
		<path class="st3" d="M451.2,454.7c0-52.9,43-95.7,96-95.7h505.7c53,0,96,42.9,96,95.7v1.7c0,52.9-43,95.7-96,95.7H547.1
			c-53,0-96-42.9-96-95.7V454.7z"/>
	</g>
	<path class="st4" d="M591.4,402v56.1c0,13.9-1,29-18.8,29c-17.9,0-18.8-15.1-18.8-29V402H526V462c0,13.7,0.6,27.3,11.2,37.6
		c8.9,8.8,23,11.9,35.4,11.9s26.5-3.1,35.4-11.9c10.6-10.3,11.2-23.9,11.2-37.6V402H591.4z"/>
	<path class="st4" d="M641.5,508.6h27.8v-65.3h0.3l50.9,65.3h27.8V402h-27.8v65.2h-0.3L669.2,402h-27.8V508.6z"/>
	<path class="st4" d="M816.8,425.5h23V402h-73.7v23.5h23v83.1h27.8V425.5z"/>
	<path class="st4" d="M882.3,443.2V402h-27.8v106.6h27.8v-43.7h40.1v43.7h27.8V402h-27.8v41.1H882.3z"/>
	<path class="st4" d="M1034.2,468.9L1034.2,468.9h-23.1l11.5-33.9h0.3L1034.2,468.9z M1041.8,490.1l6.9,18.5h29.6L1038.1,402h-30.3
		l-41.1,106.6h29.5l7.4-18.5H1041.8z"/>
	<path class="st5" d="M542.7,603.9c-1.2-2.8-4-4.9-7-4.9c-4.3,0-7.9,3-7.9,7.5c0,8.3,11.9,6.3,11.9,12.2c0,2.4-1.9,4-4.3,4
		c-3,0-4.3-1.7-5.4-4.2l-4,1.7c1.4,4.2,4.9,6.7,9.3,6.7c4.9,0,8.9-3.6,8.9-8.6c0-4.4-3-6.3-6.1-7.6c-3.1-1.3-6.1-2.2-6.1-4.6
		c0-1.7,1.7-2.9,3.3-2.9c1.6,0,3,1.3,3.6,2.7L542.7,603.9z"/>
	<path class="st5" d="M552.2,579.8v46.3h4.5v-12.5c0-4.7,0.4-10.4,6.6-10.4c5.2,0,5.6,3.8,5.6,8.1v14.9h4.5v-15.7
		c0-6.2-1.7-11.5-9-11.5c-3.3,0-5.7,1.4-7.5,3.9l-0.1-0.1v-23H552.2z"/>
	<path class="st5" d="M587.7,599.8h-4.5v26.4h4.5V613c0-3.4,0.2-9.8,5.2-9.8c1.2,0,1.8,0.6,2.7,1.2l2.1-4.1
		c-1.3-0.7-2.5-1.2-4.1-1.2c-2.9,0-4.3,1.5-5.9,3.6h-0.1V599.8z"/>
	<path class="st5" d="M606.2,610.1L606.2,610.1c0.6-3.8,4.2-6.9,8-6.9c3.9,0,7.1,3.1,7.8,6.9H606.2z M626.8,613.9
		c0.4-7.9-4.1-14.9-12.6-14.9c-8.3,0-12.8,6.5-12.8,14.3c0,7.6,5.1,13.6,12.9,13.6c5.4,0,9.7-2.7,12.2-7.4l-3.8-2.2
		c-1.7,3.1-4.2,5.4-8,5.4c-5.1,0-8.6-3.9-8.7-8.8H626.8z"/>
	<path class="st5" d="M654.1,626.2L654.1,626.2h4.5v-46.3h-4.5v23.7H654c-2.1-2.8-5.5-4.5-9.1-4.5c-7.9,0-12.7,6.5-12.7,14
		c0,7.3,4.9,13.9,12.7,13.9c3.6,0,6.9-1.5,9.1-4.4h0.1V626.2z M645.5,603.2c5.6,0,8.9,4.3,8.9,9.5c0,5.3-3,10-8.8,10
		c-5.6,0-8.7-4.9-8.7-10C636.8,607.7,640.2,603.2,645.5,603.2L645.5,603.2z"/>
	<path class="st5" d="M688.1,626.2L688.1,626.2h4.5v-46.3h-4.5v23.7H688c-2.1-2.8-5.5-4.5-9.1-4.5c-7.9,0-12.7,6.5-12.7,14
		c0,7.3,4.9,13.9,12.7,13.9c3.6,0,6.9-1.5,9.1-4.4h0.1V626.2z M679.4,603.2c5.6,0,8.9,4.3,8.9,9.5c0,5.3-3,10-8.8,10
		c-5.6,0-8.7-4.9-8.7-10C670.8,607.7,674.2,603.2,679.4,603.2L679.4,603.2z"/>
	<path class="st5" d="M705.5,586.6L705.5,586.6c-1.7,0-3.2,1.5-3.2,3.2c0,1.8,1.5,3.2,3.2,3.2c1.7,0,3.2-1.4,3.2-3.2
		C708.7,588.1,707.3,586.6,705.5,586.6L705.5,586.6z M703.3,626.2h4.5v-26.4h-4.5V626.2z"/>
	<path class="st5" d="M723.2,599.8h-4.5v26.4h4.5v-12.5c0-4.7,0.4-10.4,6.6-10.4c5.2,0,5.6,3.8,5.6,8.1v14.9h4.5v-15.7
		c0-6.2-1.7-11.5-9-11.5c-3.3,0-5.7,1.4-7.5,3.9h-0.1V599.8z"/>
	<path class="st5" d="M773.8,599.8L773.8,599.8h-4.5v3.8h-0.1c-2.1-2.9-5.3-4.5-9-4.5c-7.8,0-12.8,6.6-12.8,14
		c0,7.4,4.9,13.8,12.6,13.8c3.5,0,7-1.6,9.2-4.4h0.1v3.1c0,6-1.5,11.1-8.5,11.1c-4.8,0-8.4-3.1-8.4-8h-4.5c0.2,7.5,5.6,12.1,13,12.1
		c3.9,0,7.8-1.5,10.2-4.7c2.7-3.5,2.7-7.1,2.7-11.3V599.8z M760.6,603.2c5.6,0,8.9,4.3,8.9,9.5c0,5.3-3,10-8.8,10
		c-5.6,0-8.7-4.9-8.7-10C752,607.7,755.4,603.2,760.6,603.2L760.6,603.2z"/>
	<path class="st5" d="M807.6,603.9h4.7v-4.2h-4.7v-9.5h-4.5v9.5h-2.8v4.2h2.8v22.2h4.5V603.9z"/>
	<path class="st5" d="M820.4,610.1L820.4,610.1c0.6-3.8,4.2-6.9,8-6.9c3.9,0,7.1,3.1,7.8,6.9H820.4z M840.9,613.9
		c0.4-7.9-4.1-14.9-12.6-14.9c-8.3,0-12.8,6.5-12.8,14.3c0,7.6,5.1,13.6,12.9,13.6c5.4,0,9.7-2.7,12.2-7.4l-3.8-2.2
		c-1.7,3.1-4.2,5.4-8,5.4c-5.1,0-8.6-3.9-8.7-8.8H840.9z"/>
	<path class="st5" d="M868.3,601.7c-2.4-1.7-5.3-2.6-8.2-2.6c-7.8,0-14.1,6.1-14.1,13.9c0,8,6.1,13.9,14.1,13.9c3.2,0,5.8-1,8.4-2.7
		v-6h-0.1c-2.2,2.9-4.8,4.5-8.6,4.5c-5.5,0-9.1-4.5-9.1-9.8c0-5.3,3.9-9.8,9.3-9.8c3.5,0,6.1,1.8,8.2,4.4h0.1V601.7z"/>
	<path class="st5" d="M876.9,579.8v46.3h4.5v-12.5c0-4.7,0.4-10.4,6.6-10.4c5.2,0,5.6,3.8,5.6,8.1v14.9h4.5v-15.7
		c0-6.2-1.7-11.5-9-11.5c-3.3,0-5.7,1.4-7.5,3.9l-0.1-0.1v-23H876.9z"/>
	<path class="st5" d="M912.6,599.8h-4.5v26.4h4.5v-12.5c0-4.7,0.4-10.4,6.6-10.4c5.2,0,5.6,3.8,5.6,8.1v14.9h4.5v-15.7
		c0-6.2-1.7-11.5-9-11.5c-3.3,0-5.7,1.4-7.5,3.9h-0.1V599.8z"/>
	<path class="st5" d="M950.9,603.2L950.9,603.2c5.6,0,9.4,4.4,9.4,9.8c0,5.4-3.8,9.8-9.4,9.8c-5.6,0-9.4-4.4-9.4-9.8
		C941.5,607.6,945.3,603.2,950.9,603.2 M950.9,626.9c7.7,0,13.9-6.1,13.9-13.9s-6.1-14-13.9-14c-7.8,0-13.9,6.2-13.9,14
		S943.2,626.9,950.9,626.9"/>
	<defs>
		
			<filter id="Adobe_OpacityMaskFilter_00000169548662797219851370000003776674039747013300_" filterUnits="userSpaceOnUse" x="972.4" y="579.8" width="105.5" height="61.1">
			<feColorMatrix  type="matrix" values="1 0 0 0 0  0 1 0 0 0  0 0 1 0 0  0 0 0 1 0"/>
		</filter>
	</defs>
	
		<mask maskUnits="userSpaceOnUse" x="972.4" y="579.8" width="105.5" height="61.1" id="mask1_101_2_00000104694228408919367950000016832472771116534692_">
		
			<path style="fill-rule:evenodd;clip-rule:evenodd;fill:#FFFFFF;filter:url(#Adobe_OpacityMaskFilter_00000169548662797219851370000003776674039747013300_);" d="
			M451.2,641h697.6V359H451.2V641z"/>
	</mask>
	<g class="st7">
		<path class="st5" d="M972.4,626.2h4.5v-46.3h-4.5V626.2z"/>
		<path class="st5" d="M998.3,603.2L998.3,603.2c5.6,0,9.4,4.4,9.4,9.8c0,5.4-3.8,9.8-9.4,9.8c-5.6,0-9.4-4.4-9.4-9.8
			C988.9,607.6,992.7,603.2,998.3,603.2 M998.3,626.9c7.7,0,13.9-6.1,13.9-13.9s-6.1-14-13.9-14c-7.8,0-13.9,6.2-13.9,14
			S990.6,626.9,998.3,626.9"/>
		<path class="st5" d="M1043.7,599.8L1043.7,599.8h-4.5v3.8h-0.1c-2.1-2.9-5.3-4.5-9-4.5c-7.8,0-12.8,6.6-12.8,14
			c0,7.4,4.9,13.8,12.6,13.8c3.5,0,7-1.6,9.2-4.4h0.1v3.1c0,6-1.5,11.1-8.5,11.1c-4.8,0-8.4-3.1-8.4-8h-4.5
			c0.2,7.5,5.6,12.1,13,12.1c3.9,0,7.8-1.5,10.2-4.7c2.7-3.5,2.7-7.1,2.7-11.3V599.8z M1030.6,603.2c5.6,0,8.9,4.3,8.9,9.5
			c0,5.3-3,10-8.8,10c-5.6,0-8.7-4.9-8.7-10C1022,607.7,1025.3,603.2,1030.6,603.2L1030.6,603.2z"/>
		<path class="st5" d="M1061.8,623.7l-8.6,17.3h5.1l19.5-41.2h-5.1l-8.6,18.9l-9.3-18.9h-5.2L1061.8,623.7z"/>
	</g>
</g>
</svg>
