<?xml version="1.0" encoding="utf-8"?>
<!-- Generator: Adobe Illustrator 27.2.0, SVG Export Plug-In . SVG Version: 6.00 Build 0)  -->
<svg version="1.1" id="Layer_1" xmlns="http://www.w3.org/2000/svg" xmlns:xlink="http://www.w3.org/1999/xlink" x="0px" y="0px"
	 viewBox="0 0 2560 1600" style="enable-background:new 0 0 2560 1600;" xml:space="preserve">
<style type="text/css">
	.st0{fill:#02D2A0;}
	.st1{clip-path:url(#SVGID_00000104681858352842466300000015531359314012643472_);}
	.st2{fill:#02C797;}
	.st3{fill:#757FBB;}
	.st4{fill:#4A5074;}
	.st5{fill:#FF9400;}
	.st6{fill:#8E4D15;}
	.st7{fill:#FFFFFF;}
	.st8{fill:#E8453F;}
	.st9{fill:#802317;}
	.st10{fill:#2D2D2B;}
	.st11{fill:#30302F;}
</style>
<rect x="-3" y="-3" class="st0" width="2566" height="1606"/>
<g>
	<defs>
		<rect id="SVGID_1_" x="625.2" y="259.7" width="1309.5" height="1080.6"/>
	</defs>
	<clipPath id="SVGID_00000172398432161476184270000013987874229252036026_">
		<use xlink:href="#SVGID_1_"  style="overflow:visible;"/>
	</clipPath>
	<g style="clip-path:url(#SVGID_00000172398432161476184270000013987874229252036026_);">
		<path class="st2" d="M1449.9,1126.1c0,5.5-61.4,9.5-136.9,9.5c-75.5,0-129.6-3.5-129.6-8.7c0-5.3,70-8.9,145.6-8.9
			C1404.5,1118,1449.9,1120.8,1449.9,1126.1z"/>
		<path class="st3" d="M1289.6,885.5c0,0-3.9,171.8-7.5,221.7c0,0.1-0.1,0.3-0.1,0.4c-0.1,0.1-0.2,0.2-0.4,0.2
			c-3.9-0.2-18.4,3.3-22.2,15.9c-0.1,0.2-0.1,0.5-0.1,0.7c0,0.2,0.1,0.5,0.3,0.6c0.1,0.2,0.3,0.3,0.5,0.5c0.2,0.1,0.4,0.2,0.7,0.2
			h35.8c0.4,0,0.8-0.2,1-0.4c0.3-0.3,0.4-0.6,0.4-1c0-14.6,2.7-214,2-239L1289.6,885.5z"/>
		<path class="st4" d="M1296.6,1127.2h-35.8c-0.5,0-0.9-0.1-1.3-0.3c-0.4-0.2-0.8-0.5-1.1-0.9c-0.3-0.4-0.5-0.8-0.6-1.3
			c-0.1-0.5-0.1-1,0.1-1.4c3.7-12.6,17.5-16.6,22.7-17c3.5-50.4,7.3-219.1,7.4-220.8v-1.5l13.5-0.4v1.5
			c0.6,19.4-0.9,144.6-1.6,204.7c-0.2,18.2-0.4,31-0.4,34.3c0,0.8-0.3,1.5-0.9,2.1C1298.1,1126.9,1297.4,1127.2,1296.6,1127.2
			L1296.6,1127.2z M1281.2,1109.4c-3.7,0-17.1,3.4-20.4,14.8h35.7c0-3.3,0-16.1,0.3-34.3c0.7-58.7,2.1-179.4,1.6-203.1l-7.5,0.2
			c-0.4,16.8-4.1,173.4-7.4,220.4c0,0.5-0.3,1-0.7,1.4c-0.4,0.4-0.9,0.6-1.5,0.5L1281.2,1109.4z"/>
		<path class="st3" d="M1321.4,877.1c0,0,4.5,206.5,7.9,247.2c0,0.4,0.2,0.7,0.5,1c0.3,0.3,0.6,0.4,1,0.4h31.7
			c1.2,0,1.5-1.2,1.2-2.4c-2.4-9-8.4-17.3-20.9-17.5c-0.1,0-0.1,0-0.2,0c-0.1,0-0.1-0.1-0.2-0.1c0,0-0.1-0.1-0.1-0.2
			c0-0.1,0-0.1,0-0.2c-0.2-8.3-12.6-211.1-12.3-228.2L1321.4,877.1z"/>
		<path class="st4" d="M1362.5,1127.2h-31.7c-0.8,0-1.5-0.3-2.1-0.8c-0.6-0.5-0.9-1.2-1-2c-3.3-40.2-7.9-245.2-7.9-247.3v-1.8h11.8
			v1.6c0,11.2,5.3,104.6,8.9,166.5c1.7,30.4,3.1,54.9,3.4,60.7c10.7,0.5,18.4,7.1,21.5,18.6c0.2,0.5,0.2,1.1,0.2,1.7
			c-0.1,0.6-0.3,1.1-0.6,1.6c-0.3,0.4-0.6,0.7-1,0.9C1363.5,1127.2,1363,1127.3,1362.5,1127.2L1362.5,1127.2z M1322.9,878.5
			c0.4,19.2,4.7,207.3,7.9,245.7h31.5c0-0.2,0-0.3,0-0.5c-2-7.3-6.9-16.2-19.4-16.3c-0.3,0-0.5,0-0.8-0.1c-0.2-0.1-0.5-0.2-0.7-0.4
			c-0.2-0.2-0.3-0.4-0.4-0.6c-0.1-0.2-0.2-0.5-0.2-0.8c0-2.8-1.6-28.7-3.5-61.4c-3.7-63.2-8.7-148.8-8.9-165.1L1322.9,878.5z"/>
		<path class="st4" d="M1284.6,1056.6c4.8,0,9.6-0.7,14.3-2l0.2-16.6l-14.2,5.3L1284.6,1056.6z"/>
		<path class="st4" d="M1325.5,1047.4c4.6-1.4,9-3.3,13.2-5.7l-1.7-23.5l-11.9,7.2L1325.5,1047.4z"/>
		<path class="st3" d="M1709.4,784.7c-3.1-47.8-19-93.9-46.1-133.5c19.6-29.9,31.6-67,34.9-107.5c8.6-107.1-62.9-180.8-174.2-176.5
			c-20.4,0.8-40.5,4.2-60,10.2c-36.8-72.8-120.4-122.5-210-115.7c-135.1,10.3-182.3,83.8-182.3,197.7c0,5.6,0.3,11.2,0.7,16.7h-0.7
			c-46.3,0-91,17-125.6,47.7c-34.6,30.7-56.8,73.1-62.4,119c-5.5,46,5.9,92.4,32.2,130.5c26.3,38.1,65.7,65.2,110.6,76.2
			c-16.3,122.1,72,207.3,175.7,207.3c65.5,0,131.6-25.6,171.9-70.5c34.2,16.6,71.7,25.3,109.7,25.3
			C1629.4,1011.8,1717.6,901.5,1709.4,784.7z"/>
		<path class="st4" d="M1202.4,1058.5c-25.6,0.2-51-5-74.4-15.4c-23.4-10.4-44.3-25.7-61.4-44.8c-34-38.9-48.8-91.2-41.6-147.3
			c-45.2-11.3-84.6-38.7-111-77.1c-26.4-38.4-37.8-85.1-32.2-131.3c5.6-46.2,27.9-88.8,62.8-119.7c34.8-30.9,79.7-48,126.3-48.2
			c-0.4-5.5-0.6-10.5-0.6-15.2c0-126.4,58.3-189.7,183.7-199.2c87.3-6.6,171.9,39.7,210.8,115.3c19.2-5.8,39.1-9.1,59.2-9.9
			c54.9-2.1,102.6,15,134.4,48.2c30.7,32.2,45.5,78.3,41.4,129.9c-3.3,40.3-15.2,77.4-34.6,107.3c26.8,39.6,42.6,85.7,45.7,133.4
			c2,28.9-1.8,57.8-11.4,85.1s-24.7,52.3-44.3,73.6c-42.1,45.2-102.9,70.1-171.3,70.1c-37.8,0-75.2-8.6-109.3-24.9
			C1335.2,1031.7,1269.3,1058.5,1202.4,1058.5z M1071.7,477.8c-45.9,0-90.2,16.8-124.6,47.3c-34.4,30.5-56.4,72.5-61.9,118.1
			c-5.5,45.6,5.9,91.6,32,129.4c26.1,37.8,65.2,64.7,109.8,75.6l1.4,0.3l-0.2,1.4c-7.5,55.7,7,107.7,40.7,146.2
			c16.7,18.8,37.3,33.9,60.3,44.1c23,10.2,48,15.4,73.2,15.2c66.6,0,132-26.8,170.8-69.9l0.8-0.9l1,0.5c34,16.5,71.2,25,109,25.1
			c67.5,0,127.5-24.6,169-69.1c19.4-20.9,34.2-45.6,43.7-72.5c9.4-26.9,13.3-55.5,11.2-83.9c-3.1-47.5-18.9-93.4-45.8-132.7
			l-0.6-0.9l0.6-0.9c19.4-29.6,31.4-66.6,34.6-106.7c4.1-50.8-10.3-96.1-40.5-127.6c-31.2-32.6-78.1-49.3-132-47.2
			c-20.2,0.7-40.3,4.1-59.6,10.1l-1.3,0.4l-0.6-1.2c-38.2-75.2-121.9-121.4-208.5-114.8c-123.5,9.4-180.9,71.7-180.9,196.2
			c0,5.1,0.2,10.5,0.7,16.6v1.7L1071.7,477.8z"/>
		<path class="st4" d="M1532.5,760.5c-0.3,1.1-0.8,1.4-2,1.3c-0.2,0-0.5,0-0.7-0.1c-0.2-0.1-0.4-0.2-0.5-0.4
			c-0.1-0.2-0.2-0.4-0.3-0.6c0-0.2,0-0.5,0-0.7c0.1-0.5,0.4-0.9,0.7-1.1c0.4-0.3,0.9-0.4,1.3-0.3
			C1532.2,758.7,1532.8,759.4,1532.5,760.5z"/>
		<path class="st4" d="M1521.1,777.7c-0.3,1.1-0.8,1.4-2,1.3c-0.2,0-0.5-0.1-0.7-0.2c-0.2-0.1-0.4-0.2-0.5-0.4
			c-0.1-0.2-0.2-0.4-0.3-0.6c0-0.2,0-0.5,0-0.7c0.1-0.5,0.4-0.9,0.7-1.1s0.9-0.4,1.3-0.3C1520.7,776,1521.5,776.6,1521.1,777.7z"/>
		<path class="st4" d="M1510.7,793.6c-0.3,1.1-0.8,1.4-2,1.3c-0.2,0-0.5-0.1-0.7-0.2c-0.2-0.1-0.4-0.2-0.5-0.4
			c-0.1-0.2-0.2-0.4-0.3-0.6c0-0.2,0-0.5,0-0.7c0.2-0.8,1-1.8,2.1-1.5C1510.3,791.8,1511,792.5,1510.7,793.6z"/>
		<path class="st4" d="M1498.7,807.8c-0.3,1.1-0.8,1.4-2,1.3c-0.2,0-0.5,0-0.7-0.1c-0.2-0.1-0.4-0.2-0.5-0.4
			c-0.1-0.2-0.2-0.4-0.3-0.6c-0.1-0.2-0.1-0.5,0-0.7c0.1-0.5,0.4-0.9,0.8-1.1c0.4-0.3,0.9-0.4,1.3-0.3c0.2,0,0.5,0.1,0.7,0.2
			c0.2,0.1,0.4,0.3,0.5,0.5c0.1,0.2,0.2,0.4,0.3,0.7C1498.8,807.4,1498.8,807.6,1498.7,807.8L1498.7,807.8z"/>
		<path class="st4" d="M1486.2,821.4c-0.3,1.1-0.8,1.4-2,1.3c-0.2,0-0.5-0.1-0.7-0.2c-0.2-0.1-0.4-0.2-0.5-0.4
			c-0.1-0.2-0.2-0.4-0.3-0.6c-0.1-0.2-0.1-0.5,0-0.7c0.1-0.5,0.4-0.9,0.7-1.1c0.4-0.3,0.9-0.4,1.3-0.3
			C1485.9,819.6,1486.5,820.3,1486.2,821.4z"/>
		<path class="st4" d="M1473.9,834.1c-0.3,1.1-0.8,1.4-2,1.3c-0.2,0-0.5-0.1-0.7-0.2c-0.2-0.1-0.4-0.2-0.5-0.4
			c-0.1-0.2-0.2-0.4-0.3-0.6c-0.1-0.2-0.1-0.5,0-0.7c0.2-0.8,1-1.8,2.1-1.5C1473.6,832.4,1474.3,833,1473.9,834.1z"/>
		<path class="st4" d="M1490.8,849.7c-0.3,1.1-0.8,1.4-2,1.2c-0.2,0-0.5-0.1-0.7-0.2c-0.2-0.1-0.4-0.3-0.5-0.4
			c-0.1-0.2-0.2-0.4-0.3-0.6s0-0.5,0-0.7c0.1-0.5,0.4-0.9,0.8-1.1s0.9-0.4,1.3-0.3C1490.4,847.9,1491,848.6,1490.8,849.7z"/>
		<path class="st4" d="M1506.2,834.2c-0.3,1.1-0.8,1.4-2,1.2c-0.2,0-0.5-0.1-0.7-0.2c-0.2-0.1-0.4-0.3-0.5-0.4
			c-0.1-0.2-0.2-0.4-0.3-0.6c0-0.2,0-0.5,0-0.7c0.2-0.8,1.1-1.7,2.1-1.4C1505.8,832.4,1506.4,833.1,1506.2,834.2z"/>
		<path class="st4" d="M1518.4,819.8c-0.3,1.1-0.8,1.4-2,1.2c-0.2,0-0.5-0.1-0.7-0.2c-0.2-0.1-0.4-0.3-0.5-0.4
			c-0.1-0.2-0.2-0.4-0.3-0.6c0-0.2,0-0.5,0-0.7c0.1-0.5,0.4-0.9,0.8-1.1c0.4-0.3,0.9-0.4,1.3-0.3
			C1518.2,818,1518.8,818.7,1518.4,819.8z"/>
		<path class="st4" d="M1530.7,805.2c-0.3,1.1-0.8,1.3-2,1.2c-0.2,0-0.5-0.1-0.7-0.2c-0.2-0.1-0.4-0.3-0.5-0.4
			c-0.1-0.2-0.2-0.4-0.3-0.6c0-0.2,0-0.5,0-0.7c0.1-0.5,0.4-0.9,0.8-1.1c0.4-0.3,0.9-0.4,1.3-0.3
			C1530.4,803.5,1531,804.1,1530.7,805.2z"/>
		<path class="st4" d="M1543,789c-0.3,1.1-0.8,1.4-2,1.2c-0.2,0-0.5-0.1-0.7-0.2c-0.2-0.1-0.4-0.3-0.5-0.4c-0.1-0.2-0.2-0.4-0.3-0.6
			c0-0.2,0-0.5,0-0.7c0.1-0.5,0.4-0.9,0.8-1.1c0.4-0.3,0.9-0.4,1.3-0.3C1542.7,787.2,1543.3,787.9,1543,789z"/>
		<path class="st4" d="M1554.1,771.6c-0.3,1.1-0.8,1.3-2,1.2c-0.2,0-0.5-0.1-0.7-0.2c-0.2-0.1-0.4-0.3-0.5-0.4
			c-0.1-0.2-0.2-0.4-0.3-0.6c0-0.2,0-0.5,0-0.7c0.1-0.5,0.4-0.9,0.8-1.1c0.4-0.3,0.9-0.4,1.3-0.3
			C1553.8,769.8,1554.4,770.5,1554.1,771.6z"/>
		<path class="st4" d="M1463.4,857.9c-0.3,0-0.6-0.1-0.9-0.3c-0.3-0.2-0.5-0.4-0.6-0.7c-0.1-0.3-0.1-0.6,0-0.9s0.3-0.6,0.5-0.8
			c49.1-37.2,90.4-114.4,90.8-115.2c0.2-0.3,0.5-0.6,0.9-0.7c0.4-0.1,0.8-0.1,1.1,0.1c0.3,0.2,0.6,0.5,0.7,0.9
			c0.1,0.4,0.1,0.8-0.1,1.1c-0.4,0.8-42.1,78.6-91.6,116.2C1464,857.8,1463.7,857.9,1463.4,857.9L1463.4,857.9z"/>
		<path class="st4" d="M1222.2,810.5c-1.9,0-3.7-0.4-5.5-1.1c-1.7-0.7-3.3-1.8-4.6-3.1c-3-3-4.7-6.9-4.8-11.1c-0.2-2,0-4.1,0.6-6
			c0.6-1.9,1.6-3.7,2.9-5.3c1.3-1.6,2.9-2.8,4.7-3.8c1.8-0.9,3.8-1.5,5.8-1.7c0.4,0,0.8,0.2,1.1,0.4c0.3,0.3,0.4,0.7,0.4,1.1
			c0,0.4-0.2,0.8-0.4,1.1c-0.3,0.3-0.7,0.4-1.1,0.4c-1.6,0.1-3.2,0.6-4.6,1.4c-1.4,0.8-2.7,1.8-3.7,3.1c-1,1.3-1.8,2.7-2.3,4.3
			c-0.5,1.6-0.6,3.2-0.5,4.8c0.1,3.4,1.5,6.6,3.9,9.1c1.1,1.1,2.4,2,3.9,2.6c1.5,0.6,3,0.8,4.6,0.8c0.2,0,0.4,0,0.6,0.1
			c0.2,0.1,0.4,0.2,0.5,0.3c0.1,0.1,0.3,0.3,0.4,0.5c0.1,0.2,0.1,0.4,0.1,0.6c0,0.4-0.1,0.8-0.4,1.1c-0.3,0.3-0.7,0.5-1.1,0.5
			H1222.2z"/>
		<path class="st4" d="M1223.7,839.5c-4-0.3-7.8-2-10.5-4.9c-2.8-2.9-4.4-6.7-4.5-10.7c-0.1-4,1.3-7.9,3.9-11c2.6-3,6.3-5,10.3-5.5
			c0.2,0,0.4,0,0.6,0.1c0.2,0.1,0.4,0.2,0.5,0.3c0.1,0.1,0.3,0.3,0.4,0.5c0.1,0.2,0.1,0.4,0.1,0.6c0,0.2,0,0.4-0.1,0.6
			c-0.1,0.2-0.2,0.4-0.3,0.5c-0.1,0.1-0.3,0.3-0.5,0.4c-0.2,0.1-0.4,0.1-0.6,0.1c-3.2,0.5-6.1,2.2-8.1,4.7c-2,2.5-3.1,5.7-2.9,8.9
			c0.2,3.2,1.5,6.3,3.8,8.5c2.3,2.3,5.3,3.7,8.5,3.9c0.2,0,0.4,0,0.6,0.1s0.4,0.2,0.5,0.3c0.1,0.1,0.3,0.3,0.4,0.5
			c0.1,0.2,0.1,0.4,0.1,0.6c0,0.2,0,0.4-0.1,0.6c-0.1,0.2-0.2,0.4-0.3,0.5c-0.1,0.1-0.3,0.3-0.5,0.4c-0.2,0.1-0.4,0.1-0.6,0.1
			L1223.7,839.5z"/>
		<path class="st4" d="M1182.9,539.2c-7.7,0-15-3-20.5-8.3c-5.5-5.3-8.7-12.6-9-20.3c0-0.4,0.2-0.8,0.4-1.1c0.3-0.3,0.7-0.5,1.1-0.5
			s0.8,0.2,1.1,0.5c0.3,0.3,0.4,0.7,0.4,1.1c0.2,7,3.3,13.7,8.4,18.5c5.2,4.8,12,7.4,19,7.1c7-0.2,13.7-3.3,18.5-8.4
			c4.8-5.2,7.4-12,7.1-19c0-0.4,0.2-0.8,0.4-1.1c0.3-0.3,0.7-0.4,1.1-0.4s0.8,0.2,1.1,0.4c0.3,0.3,0.4,0.7,0.4,1.1
			c0.3,7.9-2.6,15.5-7.9,21.3s-12.8,9.2-20.6,9.4L1182.9,539.2z"/>
		<path class="st4" d="M1248.3,536.9c-7.7,0-15-3-20.6-8.3c-5.5-5.3-8.8-12.6-9-20.3c0-0.4,0.2-0.8,0.4-1.1c0.3-0.3,0.7-0.4,1.1-0.4
			c0.4,0,0.8,0.2,1.1,0.4c0.3,0.3,0.4,0.7,0.4,1.1c0,3.6,0.7,7.1,2.1,10.4c1.4,3.3,3.4,6.2,6,8.7c2.6,2.5,5.6,4.4,8.9,5.7
			c3.3,1.3,6.9,1.9,10.4,1.7c3.6-0.1,7.1-1,10.3-2.5c3.2-1.5,6.1-3.6,8.5-6.3c2.4-2.6,4.2-5.7,5.4-9.1c1.2-3.4,1.6-6.9,1.4-10.5
			c0-0.2,0-0.4,0.1-0.6c0.1-0.2,0.2-0.4,0.3-0.5c0.1-0.1,0.3-0.3,0.5-0.3c0.2-0.1,0.4-0.1,0.6-0.1c0.2,0,0.4,0,0.6,0.1
			c0.2,0.1,0.4,0.2,0.5,0.3c0.1,0.1,0.3,0.3,0.3,0.5c0.1,0.2,0.1,0.4,0.1,0.6c0.1,3.9-0.5,7.8-1.8,11.4c-1.4,3.7-3.4,7-6.1,9.9
			c-2.7,2.9-5.8,5.2-9.4,6.8c-3.5,1.6-7.4,2.5-11.3,2.7L1248.3,536.9z"/>
		<path class="st2" d="M948.7,1331.3c0,5.3-57.8,9-129.2,9c-71.4,0-122.4-3.3-122.4-8.3c0-5,66.1-8.5,137.4-8.5
			C905.9,1323.5,948.7,1326.3,948.7,1331.3z"/>
		<path class="st5" d="M797.3,1104.1c0,0-3.7,162.2-7,209.4c0,0.1-0.1,0.3-0.1,0.4c-0.1,0.1-0.2,0.2-0.3,0.2
			c-3.7-0.2-17.5,3.1-20.9,15c-0.1,0.2-0.1,0.4,0,0.7c0,0.2,0.1,0.4,0.3,0.6c0.1,0.2,0.3,0.3,0.5,0.4c0.2,0.1,0.4,0.2,0.6,0.2H804
			c0.4,0,0.7-0.2,1-0.4c0.3-0.3,0.4-0.6,0.4-1c0-13.8,2.5-202.1,1.9-225.7L797.3,1104.1z"/>
		<path class="st6" d="M803.9,1332.3h-33.8c-0.5,0-0.9-0.1-1.3-0.3c-0.4-0.2-0.8-0.5-1-0.9c-0.3-0.4-0.5-0.8-0.5-1.3
			c-0.1-0.5-0.1-0.9,0.1-1.4c3.5-11.9,16.5-15.7,21.5-16.1c3.3-47.7,6.9-206.8,7-208.4v-1.4l12.9-0.4v1.5
			c0.5,18.4-0.9,136.5-1.5,193.2c-0.2,17.2-0.3,29.4-0.4,32.5c-0.1,0.7-0.4,1.4-0.9,2C805.4,1332,804.7,1332.3,803.9,1332.3
			L803.9,1332.3z M789.5,1315.5c-3.5,0-16.1,3.1-19.2,13.9h33.6c0-3.1,0-15.2,0.2-32.4c0.6-55.3,2-168.9,1.5-191.5l-6.9,0.2
			c-0.4,16.3-3.9,163.7-7,208c0,0.5-0.3,1-0.6,1.4c-0.4,0.4-0.9,0.6-1.4,0.5L789.5,1315.5z"/>
		<path class="st5" d="M827.4,1096.1c0,0,4.3,195,7.5,233.4c0,0.4,0.2,0.7,0.5,0.9c0.3,0.2,0.6,0.4,1,0.4h30c1.2,0,1.4-1.1,1.1-2.3
			c-2.3-8.5-7.9-16.4-19.7-16.5c-0.1,0-0.1,0-0.2,0c-0.1,0-0.1,0-0.2-0.1s-0.1-0.1-0.1-0.1c0-0.1,0-0.1,0-0.2
			c-0.2-7.9-11.8-199.3-11.7-215.5L827.4,1096.1z"/>
		<path class="st6" d="M836.2,1332.3c-0.8,0-1.5-0.3-2.1-0.8c-0.6-0.5-0.9-1.2-1-1.9c-3.1-38-7.4-231.5-7.5-233.4v-1.6h11.2v1.6
			c0,10.6,5,98.8,8.4,157.2c1.7,28.6,3.1,51.7,3.3,57.2c10.1,0.5,17.3,6.7,20.1,17.6c0.2,0.5,0.2,1.1,0.1,1.6
			c-0.1,0.5-0.3,1-0.6,1.5c-0.3,0.3-0.6,0.6-1,0.8c-0.4,0.2-0.8,0.3-1.2,0.3L836.2,1332.3z M828.9,1097.7
			c0.4,18.4,4.4,195.7,7.4,231.7h29.6c0,0,0-0.2,0-0.4c-1.8-6.9-6.5-15.4-18.2-15.4c-0.5,0-1-0.2-1.4-0.6c-0.4-0.4-0.6-0.9-0.6-1.4
			c0-2.7-1.5-27.2-3.3-58.2c-3.4-59.5-8.1-140.2-8.4-155.8L828.9,1097.7z"/>
		<path class="st5" d="M965.8,1098.8c-18.1,0-34.8,12.8-34.8,30.9c0,18.1,12.9,29.9,31,29.9c4.3,0.1,8.6-0.7,12.6-2.3
			c4-1.6,7.6-4,10.7-7.1c3.1-3.1,5.5-6.7,7.1-10.7c1.6-4,2.4-8.3,2.3-12.6C994.8,1108.8,984,1098.8,965.8,1098.8z"/>
		<path class="st6" d="M962.1,1161.2c-19.1,0-32.5-12.9-32.5-31.5c0-17.9,16.3-32.5,36.3-32.5c19,0,30.4,11.1,30.4,29.7
			c0.1,4.5-0.7,9-2.4,13.2c-1.7,4.2-4.2,8-7.4,11.2c-3.2,3.2-7,5.7-11.2,7.4C971.2,1160.5,966.7,1161.3,962.1,1161.2L962.1,1161.2z
			 M965.8,1100.4c-18.4,0-33.2,13.2-33.2,29.4c0,17,11.8,28.4,29.4,28.4c4.1,0.1,8.3-0.6,12.1-2.1c3.9-1.5,7.4-3.8,10.3-6.7
			c2.9-2.9,5.3-6.4,6.8-10.3c1.5-3.8,2.3-8,2.2-12.1C993.5,1110.1,983.3,1100.4,965.8,1100.4z"/>
		<path class="st5" d="M967.9,902.7c15-3.3,23.2-5.8,23.2-20.3S976.5,856,962,856c-3.4,0-6.7,0.7-9.9,2.1c-3.1,1.3-5.9,3.3-8.3,5.8
			c-2.3,2.5-4.2,5.4-5.4,8.5c-1.2,3.2-1.8,6.6-1.6,10C936.9,896.9,953.7,905.8,967.9,902.7z"/>
		<path class="st6" d="M962,904.8c-6.7,0-13.2-2.2-18.4-6.4c-2.5-1.9-4.5-4.3-5.9-7.1c-1.4-2.8-2.2-5.9-2.2-9
			c-0.1-3.6,0.5-7.2,1.8-10.5c1.3-3.4,3.2-6.4,5.7-9c2.5-2.6,5.5-4.7,8.8-6.1c3.3-1.4,6.8-2.2,10.4-2.2c14.4,0,30.7,11.9,30.7,27.9
			s-9.2,18.4-24.6,21.8C966.2,904.6,964.1,904.8,962,904.8L962,904.8z M962,857.6c-3.2,0-6.4,0.7-9.3,1.9c-2.9,1.3-5.6,3.1-7.8,5.4
			c-2.2,2.3-3.9,5.1-5,8c-1.1,3-1.6,6.2-1.5,9.4c0,2.7,0.7,5.3,1.9,7.7c1.2,2.4,3,4.4,5.1,6.1c3.1,2.4,6.7,4.1,10.5,5
			c3.8,0.9,7.8,0.9,11.6,0.1c14.8-3.3,22-5.5,22-18.8C989.6,868.2,975,857.6,962,857.6z"/>
		<path class="st5" d="M693.1,882.7c12.3-0.8,22.5-5.9,22.5-20.4c0-14.5-9.9-25.1-24.6-25.1c-3.4,0-6.8,0.7-9.9,2.1
			c-3.1,1.3-5.9,3.3-8.3,5.8c-2.3,2.5-4.2,5.4-5.4,8.5c-1.2,3.2-1.8,6.6-1.6,10C666,878.1,678.6,883.5,693.1,882.7z"/>
		<path class="st6" d="M690.2,884.3c-7.2,0.4-14.4-1.9-20-6.5c-1.9-1.8-3.4-4.1-4.4-6.5c-1-2.5-1.4-5.1-1.3-7.7
			c-0.1-3.6,0.5-7.2,1.8-10.5c1.3-3.4,3.2-6.4,5.7-9c2.5-2.6,5.5-4.7,8.8-6.1c3.3-1.4,6.8-2.2,10.4-2.2c15.4,0,26,10.9,26,26.6
			c0,13.4-8.3,21-23.9,21.9L690.2,884.3z M691.2,838.7c-13.5,0-23.6,10.7-23.6,24.8c-0.1,2.2,0.3,4.4,1.1,6.5
			c0.8,2.1,2.1,3.9,3.6,5.5c4.4,4.1,11.8,6.1,20.8,5.6c14.2-0.9,21-7,21-18.9C714.1,848.4,704.7,838.7,691.2,838.7z"/>
		<path class="st5" d="M646.5,852.6c0-2-0.6-3.9-1.7-5.5c-1.1-1.6-2.6-2.9-4.4-3.7c-1.8-0.8-3.8-1-5.7-0.6c-1.9,0.4-3.7,1.3-5.1,2.7
			c-1.4,1.4-2.3,3.2-2.7,5.1c-0.4,1.9-0.2,3.9,0.6,5.7c0.7,1.8,2,3.4,3.7,4.5c1.6,1.1,3.6,1.7,5.5,1.7c2.6,0,5.1-1,7-2.9
			C645.5,857.7,646.5,855.2,646.5,852.6z"/>
		<path class="st6" d="M636.7,864c-2.3,0-4.5-0.7-6.4-1.9c-1.9-1.3-3.4-3-4.2-5.1c-0.9-2.1-1.1-4.4-0.6-6.6c0.4-2.2,1.5-4.3,3.1-5.9
			c1.6-1.6,3.6-2.7,5.9-3.1c2.2-0.4,4.5-0.2,6.6,0.7c2.1,0.9,3.9,2.3,5.1,4.2c1.3,1.9,1.9,4.1,1.9,6.4c0,3-1.2,5.9-3.4,8.1
			C642.6,862.8,639.7,864,636.7,864L636.7,864z M636.7,844.2c-1.7,0-3.3,0.5-4.7,1.4c-1.4,0.9-2.5,2.2-3.1,3.8
			c-0.6,1.5-0.8,3.2-0.5,4.8c0.3,1.6,1.1,3.1,2.3,4.3s2.7,2,4.3,2.3c1.6,0.3,3.3,0.2,4.8-0.5c1.5-0.6,2.8-1.7,3.8-3.1
			c0.9-1.4,1.4-3,1.4-4.7c0-1.1-0.2-2.2-0.6-3.2c-0.4-1-1-1.9-1.8-2.7s-1.7-1.4-2.7-1.8C638.9,844.4,637.8,844.2,636.7,844.2
			L636.7,844.2z"/>
		<path class="st6" d="M1019.8,1103.9c-6.5,0-9.9,6.3-9.9,11c0,6.5,5.3,9.2,11.8,8c7.1-1.2,9.6-3.4,9.6-9.9
			S1026.3,1103.9,1019.8,1103.9z"/>
		<path class="st6" d="M1018.9,1124.7c-2.7,0.1-5.3-0.8-7.3-2.4c-1-0.9-1.8-2.1-2.4-3.4c-0.5-1.3-0.8-2.7-0.7-4.1
			c-0.1-3.2,1-6.3,3.1-8.6c2.1-2.4,5.1-3.8,8.3-3.9c8.1,0,13,4,13,10.7c0,8-4,10.2-10.9,11.4
			C1021,1124.6,1019.9,1124.7,1018.9,1124.7L1018.9,1124.7z M1019.8,1105.4c-5.5,0-8.4,5.5-8.4,9.5c-0.1,0.9,0.1,1.9,0.5,2.8
			c0.4,0.9,0.9,1.7,1.6,2.3c1.1,0.8,2.4,1.3,3.8,1.6c1.4,0.2,2.8,0.2,4.1-0.1c6.6-1.1,8.3-2.9,8.3-8.4
			C1029.7,1106.7,1024.3,1105.4,1019.8,1105.4z"/>
		<path class="st6" d="M633.9,1096.5c-0.7,0.5-1.3,1.2-1.6,1.9c-0.4,0.8-0.6,1.6-0.5,2.5c0,0.9,0.3,1.7,0.7,2.4
			c0.4,0.7,1.1,1.4,1.8,1.8c3.3,2.7,5.3,3.1,8.5,0.3c3.3-2.7,2.7-6,0.3-8.9c-1.2-1.2-2.9-1.9-4.6-1.9
			C636.8,1094.7,635.1,1095.4,633.9,1096.5z"/>
		<path class="st6" d="M638.7,1108.8c-2.1-0.2-4-1.1-5.4-2.5c-0.9-0.7-1.7-1.6-2.2-2.6s-0.8-2.1-0.9-3.3c0-1,0.3-2,0.8-2.9
			c0.5-0.9,1.1-1.7,2-2.3l0,0c1.6-1.4,3.6-2.2,5.7-2.2c2.1,0,4.1,0.9,5.6,2.4c1.4,1.5,2.2,3.5,2.3,5.5c0,1.1-0.3,2.2-0.8,3.1
			c-0.5,1-1.2,1.8-2.1,2.5C642.4,1107.9,640.6,1108.7,638.7,1108.8L638.7,1108.8z M634.9,1097.7c-0.5,0.3-0.8,0.7-1.1,1.2
			s-0.4,1-0.5,1.6c0.1,0.7,0.3,1.4,0.6,2c0.3,0.6,0.8,1.1,1.4,1.5c2.8,2.4,4,2.4,6.5,0.3c0.5-0.3,0.9-0.8,1.2-1.3
			c0.3-0.5,0.5-1.1,0.5-1.7c-0.1-1.4-0.7-2.6-1.6-3.7C640.1,1095.4,636.7,1096.3,634.9,1097.7L634.9,1097.7z"/>
		<path class="st5" d="M967.6,973.7c-1.6,0-3.3,0-4.9,0.2c0.1-1.1,0.2-2.3,0.2-3.4c0.7-32.1-21.9-47.1-48.4-47.1
			c-2.5,0-4.9,0.2-7.4,0.5c0.5-3.9,0.8-7.7,0.8-11.6c0-46.5-44.2-77.9-87.7-77.9c-43.5,0-79.5,37.4-77.9,79.9c0,0.6,0,1.2,0,1.8
			l-3.9-0.7c-53-5.9-99.5,32.3-99.5,81.2c0,45.4,35.6,83.8,83.6,86.9c0,1,0,2,0.2,3.1c3.2,24.6,23.1,41,49.7,41
			c22.4,0,37.2-9.8,43.7-29.1c7.4,6.3,15.9,11.2,25.2,14.1c9.3,3,19,4.1,28.7,3.2c33.5-3.1,58.1-18.1,67.9-43
			c8.9,4.7,18.8,7.2,28.9,7.1c27.6,0,54.3-17.7,56.7-51.4C1025.7,998.3,998.5,973.7,967.6,973.7z"/>
		<path class="st6" d="M772.6,1129c-27.3,0-47.9-17-51.2-42.4c0-0.6,0-1.2,0-1.7c-47.8-3.8-83.7-41.6-83.7-88.4
			c0-11.3,2.5-22.5,7.2-32.8c4.7-10.3,11.5-19.5,20.1-26.9c10-8.8,21.7-15.4,34.4-19.3c12.7-3.9,26.1-5.2,39.3-3.6l2.2,0.2
			c-0.3-10.5,1.6-20.9,5.4-30.6c3.8-9.7,9.6-18.6,16.9-26.1c7.4-7.7,16.3-13.9,26.1-18.2c9.8-4.3,20.4-6.5,31.1-6.6
			c22.3,0.1,43.9,7.8,61.1,21.9c8.7,6.9,15.7,15.7,20.6,25.6s7.4,20.9,7.5,32c0,3.3-0.2,6.6-0.6,9.9c1.9-0.2,3.7-0.3,5.6-0.3
			c15.4,0,28.8,5,37.7,14.1c8.3,8.5,12.6,20.5,12.3,34.6c0,0.6,0,1.1,0,1.7c1,0,2,0,3.1,0c8.2,0,16.3,1.6,23.9,4.9
			c7.5,3.2,14.3,8,20,14c4.8,5,8.4,10.9,10.8,17.3c2.4,6.5,3.4,13.3,2.9,20.2c-2.5,36.3-32,52.8-58.3,52.8
			c-9.8,0.1-19.4-2.2-28.1-6.5c-10.3,24.4-34.6,39.5-68.6,42.5c-19.2,1.6-38.3-4.2-53.3-16.3C809.9,1119.6,795,1129,772.6,1129z
			 M727.8,916.3c-22.4-0.1-44,8-60.8,22.8c-8.2,7.1-14.9,16-19.4,25.9c-4.6,9.9-6.9,20.7-7,31.6c0,45.6,35.3,82.3,82.2,85.4h1.4v2.1
			c0,0.7,0,1.4,0,2.1c3.1,23.7,22.4,39.7,48.1,39.7c21.8,0,35.9-9.5,42.2-28.1l0.7-2.2l1.7,1.5c7.2,6.2,15.6,10.9,24.7,13.8
			c9.1,2.9,18.6,4,28.1,3.2c33.5-3.1,57.1-18,66.6-42.1l0.6-1.6l1.5,0.8c8.7,4.6,18.4,7,28.2,6.9c24.9,0,52.7-15.6,55.3-50
			c0.4-6.4-0.5-12.9-2.7-19c-2.2-6.1-5.7-11.6-10.1-16.3c-5.3-5.7-11.8-10.2-18.9-13.2c-7.1-3.1-14.9-4.6-22.6-4.6
			c-1.6,0-3.1,0-4.7,0.2h-1.8l0.2-1.8c0-1.3,0.2-2.3,0.2-3.3c0.3-13.5-3.5-24.6-11.4-32.4c-8.3-8.5-20.9-13.1-35.5-13.1
			c-2.4,0-4.8,0.2-7.2,0.5l-2,0.2l0.3-2c0.5-3.8,0.8-7.6,0.8-11.4c0-36.9-32.9-76.4-86.1-76.4c-10.3,0.1-20.5,2.2-29.9,6.3
			c-9.4,4.1-18,10-25.1,17.5c-7,7.2-12.5,15.7-16.2,25.1c-3.7,9.4-5.4,19.4-5.1,29.4c0,0.3,0,0.7,0,1l0.2,2.6l-1.9-0.2l-4-0.5
			C734.8,916.4,731.3,916.3,727.8,916.3z"/>
		<path class="st6" d="M859.4,1063.8c-2.5,0-4.9-0.8-6.7-2.5c-1.8-1.7-3-3.9-3.2-6.4c0-0.2,0-0.4,0-0.6c0-0.2,0.1-0.4,0.3-0.5
			c0.1-0.2,0.3-0.3,0.4-0.4c0.2-0.1,0.4-0.2,0.6-0.2c0.4-0.1,0.8,0.1,1.1,0.3c0.3,0.2,0.5,0.6,0.6,1c0.1,0.9,0.3,1.8,0.7,2.6
			c0.4,0.8,1,1.5,1.7,2.1c0.7,0.6,1.5,1,2.4,1.3c0.9,0.3,1.8,0.3,2.7,0.2c1.5,0.1,3-0.4,4.1-1.4s1.9-2.4,2-3.9
			c0-0.4,0.2-0.8,0.4-1.1c0.3-0.3,0.7-0.4,1.1-0.4c0.4,0,0.8,0.2,1.1,0.5c0.3,0.3,0.5,0.7,0.5,1.1c-0.2,2.2-1.2,4.3-2.8,5.9
			c-1.6,1.5-3.8,2.4-6,2.4L859.4,1063.8z"/>
		<path class="st6" d="M797,1135.6c3.8-0.9,7.3-2.5,10.6-4.6l-0.6-16.5l-10,7.6V1135.6z"/>
		<path class="st6" d="M827.7,1119c2.4,2,5.4,3.1,8.6,3.1L836,1111l-8.3-3.9V1119z"/>
		<path class="st7" d="M829.6,1041.1c14.6,0,26.5-11.9,26.5-26.5s-11.9-26.5-26.5-26.5s-26.5,11.9-26.5,26.5
			S815,1041.1,829.6,1041.1z"/>
		<path class="st6" d="M829.6,1042.6c-5.5,0-10.9-1.6-15.5-4.6c-4.6-3-8.2-7.3-10.3-12.4c-2.2-5.1-2.8-10.6-1.8-16
			c1-5.4,3.5-10.4,7.3-14.4c3.8-4,8.7-6.8,14-8c5.4-1.2,10.9-0.9,16.1,1.1s9.6,5.3,12.9,9.8c3.2,4.4,5.1,9.7,5.4,15.2l0,0
			c0.2,3.7-0.4,7.4-1.6,10.8c-1.2,3.5-3.2,6.7-5.6,9.4c-2.5,2.7-5.5,4.9-8.8,6.5c-3.3,1.6-6.9,2.5-10.6,2.6L829.6,1042.6z
			 M829.6,989.6h-1.2c-4.9,0.2-9.7,1.9-13.7,4.9c-4,2.9-7,7-8.7,11.6c-1.7,4.7-1.9,9.7-0.7,14.5c1.2,4.8,3.8,9.1,7.4,12.5
			c3.7,3.3,8.2,5.5,13.1,6.2c4.9,0.7,9.9,0,14.4-2.1c4.5-2.1,8.2-5.5,10.8-9.7c2.5-4.2,3.8-9.1,3.5-14.1l0,0
			c-0.3-6.4-3.1-12.4-7.7-16.9C842.1,992.1,836,989.6,829.6,989.6L829.6,989.6z"/>
		<path class="st6" d="M833.7,1029.3c10.6,0,19.3-8.6,19.3-19.3c0-10.7-8.6-19.3-19.3-19.3c-10.6,0-19.3,8.6-19.3,19.3
			C814.4,1020.7,823,1029.3,833.7,1029.3z"/>
		<path class="st6" d="M833.8,1030.9c-5.6-0.1-10.9-2.5-14.7-6.5s-6-9.4-5.9-14.9c0.1-5.6,2.3-10.9,6.3-14.8c4-3.9,9.3-6.1,14.9-6.1
			c5.6,0,10.9,2.2,14.9,6.1c4,3.9,6.2,9.2,6.3,14.8s-2.1,10.9-5.9,14.9c-3.9,4-9.2,6.3-14.7,6.5H833.8z M833.8,992.3H833
			c-2.3,0.1-4.6,0.7-6.7,1.7c-2.1,1-4,2.4-5.6,4.1c-1.6,1.7-2.8,3.7-3.6,5.9c-0.8,2.2-1.1,4.5-1,6.8c0.1,2.9,1,5.7,2.5,8.2
			c1.5,2.5,3.6,4.6,6.1,6.1s5.3,2.4,8.2,2.5c2.9,0.1,5.8-0.4,8.4-1.7c2.6-1.2,4.9-3.1,6.7-5.5c1.7-2.3,2.9-5.1,3.3-8
			c0.4-2.9,0.2-5.8-0.8-8.6c-1-2.8-2.6-5.2-4.8-7.2C842.5,993.9,838.2,992.3,833.8,992.3L833.8,992.3z"/>
		<path class="st7" d="M887.4,1038.4c14.6,0,26.5-11.9,26.5-26.5c0-14.7-11.9-26.5-26.5-26.5c-14.6,0-26.5,11.9-26.5,26.5
			C860.9,1026.5,872.7,1038.4,887.4,1038.4z"/>
		<path class="st6" d="M887.4,1039.9c-7.4-0.2-14.4-3.3-19.5-8.6c-5.1-5.3-7.9-12.4-7.8-19.8c0.1-7.4,3.1-14.4,8.3-19.6
			c5.2-5.2,12.3-8.1,19.7-8.1c7.4,0,14.5,2.9,19.7,8.1c5.2,5.2,8.2,12.2,8.3,19.6c0.1,7.4-2.7,14.5-7.8,19.8
			c-5.1,5.3-12.1,8.4-19.5,8.6H887.4z M887.4,986.8h-1.2c-6.6,0.3-12.8,3.2-17.3,8.1c-4.5,4.9-6.8,11.4-6.5,18
			c0.2,4.9,1.9,9.6,4.8,13.6c2.9,4,6.9,7,11.4,8.7c4.6,1.7,9.6,2,14.3,1c4.8-1.1,9.1-3.6,12.5-7.1c3.4-3.5,5.6-8,6.5-12.8
			c0.9-4.8,0.3-9.8-1.6-14.3c-1.9-4.5-5.1-8.3-9.2-11C897,988.3,892.2,986.8,887.4,986.8L887.4,986.8z"/>
		<path class="st6" d="M891.5,1026.6c10.7,0,19.3-8.6,19.3-19.3c0-10.7-8.6-19.3-19.3-19.3c-10.6,0-19.3,8.6-19.3,19.3
			C872.2,1017.9,880.8,1026.6,891.5,1026.6z"/>
		<path class="st6" d="M891.5,1028.1c-5.5,0.1-10.9-1.9-14.9-5.8c-4-3.8-6.3-9.1-6.4-14.6c-0.1-5.5,1.9-10.9,5.8-14.9
			c3.8-4,9.1-6.3,14.6-6.4c5.5-0.3,10.9,1.7,15,5.4c4.1,3.7,6.5,8.9,6.8,14.4c0.3,5.5-1.7,10.9-5.4,15c-3.7,4.1-8.9,6.5-14.4,6.8
			L891.5,1028.1z M891.5,989.5h-0.9c-4.7,0.2-9.1,2.3-12.3,5.8c-3.2,3.5-4.8,8.1-4.6,12.8c0.2,4.7,2.3,9.1,5.8,12.3
			c3.5,3.2,8.1,4.8,12.8,4.6c4.7-0.2,9.1-2.3,12.2-5.7c3.2-3.4,4.8-8,4.7-12.7c-0.2-4.6-2.2-8.9-5.5-12c-3.3-3.2-7.7-4.9-12.2-4.9
			V989.5z"/>
		<path class="st6" d="M813,994.1c-0.3,0-0.5-0.1-0.8-0.2c-0.2-0.1-0.4-0.3-0.6-0.6l-2.2-3.7c-0.1-0.2-0.2-0.4-0.2-0.6
			c0-0.2,0-0.4,0-0.6c0-0.2,0.1-0.4,0.3-0.5c0.1-0.2,0.3-0.3,0.5-0.4c0.3-0.2,0.8-0.3,1.1-0.2c0.4,0.1,0.7,0.3,0.9,0.7l2.2,3.7
			c0.1,0.2,0.2,0.4,0.2,0.6c0,0.2,0,0.4,0,0.6c-0.1,0.2-0.1,0.4-0.3,0.5c-0.1,0.2-0.3,0.3-0.5,0.4
			C813.5,994.1,813.3,994.1,813,994.1L813,994.1z"/>
		<path class="st6" d="M818.3,990.9c-0.3,0-0.6-0.1-0.9-0.3c-0.3-0.2-0.5-0.4-0.6-0.7l-1.4-3.9c-0.1-0.4-0.1-0.8,0-1.2
			c0.2-0.4,0.5-0.7,0.8-0.8c0.2-0.1,0.4-0.1,0.6-0.1c0.2,0,0.4,0,0.6,0.1c0.2,0.1,0.4,0.2,0.5,0.4c0.1,0.1,0.2,0.3,0.3,0.5l1.5,4.1
			c0.1,0.2,0.1,0.4,0.1,0.6c0,0.2,0,0.4-0.1,0.6s-0.2,0.4-0.4,0.5c-0.1,0.1-0.3,0.2-0.5,0.3L818.3,990.9z"/>
		<path class="st6" d="M873.3,990.3c-0.3,0-0.5-0.1-0.8-0.2c-0.2-0.1-0.4-0.3-0.6-0.6l-2.2-3.6c-0.2-0.4-0.3-0.8-0.2-1.2
			c0.1-0.4,0.4-0.7,0.7-0.9c0.2-0.1,0.4-0.2,0.6-0.2c0.2,0,0.4,0,0.6,0c0.2,0,0.4,0.1,0.5,0.3c0.2,0.1,0.3,0.3,0.4,0.5l2.2,3.7
			c0.2,0.4,0.3,0.8,0.2,1.2c-0.1,0.4-0.4,0.7-0.7,0.9C873.8,990.3,873.6,990.4,873.3,990.3L873.3,990.3z"/>
		<path class="st6" d="M878.7,987.6c-0.3,0-0.7-0.1-0.9-0.3c-0.3-0.2-0.5-0.5-0.5-0.8l-1.1-4.2c-0.1-0.2-0.1-0.4,0-0.6
			s0.1-0.4,0.2-0.6c0.1-0.2,0.2-0.3,0.4-0.4c0.2-0.1,0.3-0.2,0.5-0.3c0.2-0.1,0.4-0.1,0.6,0c0.2,0,0.4,0.1,0.6,0.2
			c0.2,0.1,0.3,0.2,0.4,0.4c0.1,0.2,0.2,0.3,0.3,0.5l1.1,4.2c0.1,0.4,0,0.8-0.2,1.2c-0.2,0.4-0.6,0.6-0.9,0.7L878.7,987.6z"/>
		<path class="st2" d="M1853.1,1226c0,3.9-43.4,6.8-96.9,6.8c-53.5,0-91.8-2.5-91.8-6.1c0-3.7,49.6-6.4,103.1-6.4
			C1820.9,1220.2,1853.1,1222.2,1853.1,1226z"/>
		<path class="st8" d="M1736.6,647.9c0,0,0.2,529.3-2.3,564.6c0,0.2-0.2,0.4-0.4,0.4c-2.8,0-13.1,2.4-15.7,11.3c0,0.2-0.1,0.3,0,0.5
			c0,0.2,0.1,0.3,0.2,0.5c0.1,0.1,0.2,0.2,0.4,0.3c0.1,0.1,0.3,0.1,0.5,0.1h25.3c0.3,0,0.5-0.1,0.7-0.3c0.2-0.2,0.3-0.5,0.3-0.7
			c0-10.4,0-559-0.4-576.6H1736.6z"/>
		<path class="st9" d="M1744.6,1227.1h-25.3c-0.4,0-0.8-0.1-1.2-0.3c-0.4-0.2-0.7-0.4-0.9-0.8c-0.2-0.3-0.4-0.7-0.5-1.1
			c-0.1-0.4-0.1-0.8,0-1.2c2.6-8.8,11.8-11.9,16.1-12.3c2.4-42.8,2.2-558.3,2.2-563.5v-1.5h11.7v1.5c0.5,17.7,0.4,571.9,0.4,576.6
			c0,0.7-0.3,1.3-0.8,1.8C1745.9,1226.8,1745.2,1227.1,1744.6,1227.1L1744.6,1227.1z M1720,1224.1h24.2c0-18.4,0-538.9-0.4-574.6
			h-5.6c0,31.6,0,529.1-2.3,563.2c0,0.2-0.1,0.5-0.2,0.7c-0.1,0.2-0.3,0.4-0.4,0.6c-0.2,0.2-0.4,0.3-0.6,0.4
			c-0.2,0.1-0.5,0.1-0.7,0.1c-2.4-0.1-11.5,2.1-14.1,9.6H1720z"/>
		<path class="st8" d="M1760.3,651.9c0,0,5,544,7.4,572.7c0,0.3,0.2,0.5,0.4,0.7c0.2,0.2,0.5,0.3,0.7,0.3h22.5
			c0.9,0,1.1-0.9,0.8-1.7c-1.7-6.4-5.9-12.3-14.8-12.3c0,0-0.1,0-0.1,0c0,0-0.1,0-0.1-0.1c0,0-0.1-0.1-0.1-0.1c0,0,0-0.1,0-0.1
			c0-5.9-9.5-547.2-9.4-559.3L1760.3,651.9z"/>
		<path class="st9" d="M1768.8,1227.1c-0.7,0-1.3-0.2-1.8-0.7s-0.8-1-0.8-1.7c-2.4-28.5-7.3-567.4-7.4-572.8v-1.6h10.3v1.6
			c0,11.8,8.9,530.2,9.4,558.1c7.6,0.5,12.9,5.3,15.1,13.5c0.1,0.4,0.2,0.9,0.1,1.4c-0.1,0.5-0.2,0.9-0.5,1.3
			c-0.2,0.3-0.5,0.5-0.9,0.7c-0.3,0.2-0.7,0.2-1.1,0.2L1768.8,1227.1z M1769.2,1224.1h21.3c-1.5-5.2-4.9-10.9-13.2-11
			c-0.2,0-0.5,0-0.7-0.1c-0.2-0.1-0.4-0.2-0.6-0.4s-0.3-0.4-0.4-0.6c-0.1-0.2-0.1-0.5-0.2-0.7c0-5-9.2-523.6-9.4-557.8h-4.1
			C1762.2,685.4,1766.9,1191.7,1769.2,1224.1L1769.2,1224.1z"/>
		<path class="st8" d="M1885.3,593.8c1.2-5.9,1.7-12,1.4-18c-1.3-32.4-24.8-58-57.1-59.3c-9.4-0.4-18.8,1.3-27.4,4.9
			c-6.1-28.8-29.3-54.5-58.9-55.7c-36.4-1.5-71.6,28-74.1,64.5c-0.5,7.5,0,14.9,1.7,22.2c-0.3,0-0.7,0-1.1,0
			c-32.8-1.4-63.4,22.1-63.7,55.5c-0.2,35.6,16.1,57.1,56.5,58c40.4,0.8,178.1-1,200.4-2.9c22.4-1.9,39.4-12.3,39.9-34.9
			c0.2-6.7-1.3-13.4-4.3-19.4C1895.4,602.7,1890.9,597.6,1885.3,593.8z"/>
		<path class="st9" d="M1688.8,667.6c-10.9,0-20,0-26.4-0.2c-38.7-0.8-58.3-20.8-58-59.5c0.1-7.4,1.6-14.7,4.6-21.4
			c3-6.8,7.3-12.8,12.6-17.9c12.8-11.9,29.7-18.3,47.2-17.7c-1.3-6.8-1.8-13.8-1.3-20.7c2.5-36.6,37.9-67.6,75.7-65.8
			c31.3,1.3,53.6,28.4,59.9,55.1c8.4-3.2,17.4-4.7,26.4-4.4c32.5,1.3,57.2,26.9,58.6,60.7c0.3,5.8-0.1,11.6-1.2,17.4
			c5.6,3.9,10.1,9.2,13.1,15.3c3,6.1,4.5,12.8,4.3,19.7c-0.5,21.3-15.4,34.2-41.4,36.4C1843.6,666,1743.8,667.6,1688.8,667.6z
			 M1667,553.9c-16-0.1-31.5,6-43.2,16.9c-5.1,4.8-9.2,10.5-12,16.9c-2.8,6.4-4.3,13.2-4.4,20.2c-0.2,37.2,17.7,55.7,55,56.4
			c42.2,0.9,178.9-1.1,200.3-2.9c14.1-1.2,37.9-7.1,38.6-33.4c0.2-6.5-1.3-12.9-4.2-18.6c-3-5.7-7.3-10.6-12.7-14.2l-0.9-0.6l0.2-1
			c1.2-5.8,1.7-11.7,1.4-17.6c-1.4-32.2-24.7-56.5-55.7-57.8c-9.2-0.4-18.3,1.3-26.8,4.8l-1.7,0.7l-0.4-1.8
			c-5.5-26.1-27-53.2-57.4-54.4c-36.2-1.5-70.1,27.9-72.5,63c-0.5,7.3,0,14.6,1.6,21.8l0.5,2l-3.1-0.2
			C1668.9,553.9,1667.8,553.9,1667,553.9L1667,553.9z"/>
		<path class="st9" d="M1693.6,541.8c-0.3,0-0.7-0.1-0.9-0.3c-0.3-0.2-0.5-0.5-0.6-0.8c-0.1-0.3-0.1-0.7,0.1-1
			c0.1-0.3,0.4-0.6,0.6-0.7c5.4-3.3,11.7-4.8,18.1-4.1c0.4,0.1,0.8,0.3,1,0.6c0.2,0.3,0.3,0.7,0.3,1.1c-0.1,0.4-0.3,0.8-0.6,1
			c-0.3,0.2-0.7,0.4-1.1,0.3c-5.6-0.5-11.2,0.8-16,3.7C1694.2,541.7,1693.9,541.8,1693.6,541.8z"/>
		<path class="st9" d="M1815.7,557.7c-0.3,0-0.6-0.1-0.8-0.2c-4.8-2.9-10.4-4.2-16-3.7c-0.4,0.1-0.8,0-1.2-0.3
			c-0.3-0.2-0.6-0.6-0.6-1c-0.1-0.4,0-0.8,0.3-1.2c0.2-0.3,0.6-0.6,1-0.6c6.3-0.6,12.7,0.8,18.1,4.1c0.2,0.1,0.3,0.2,0.4,0.4
			c0.1,0.2,0.2,0.4,0.3,0.5c0,0.2,0.1,0.4,0,0.6c0,0.2-0.1,0.4-0.2,0.6c-0.1,0.2-0.3,0.4-0.5,0.5
			C1816.2,557.6,1815.9,557.7,1815.7,557.7L1815.7,557.7z"/>
		<path class="st7" d="M1658.6,573.1v19.5c0,24,8.3,43.6,43.5,43.6s43.5-19.5,43.5-43.6v-19.5"/>
		<path class="st10" d="M1702.1,640.9c-48.1,0-48.1-36.3-48.1-48.2v-19.5h9.2v19.5c0,27.3,11.6,39,38.9,39s39-11.7,39-39v-19.5h9.2
			v19.5C1750.3,625.1,1734.6,640.9,1702.1,640.9z"/>
		<path class="st7" d="M1761.2,573.1v19.5c0,24,8.3,43.6,43.6,43.6c35.3,0,43.5-19.5,43.5-43.6v-19.5"/>
		<path class="st10" d="M1804.7,640.9c-32.4,0-48.2-15.8-48.2-48.2v-19.5h9.2v19.5c0,27.3,11.7,39,39,39s38.9-11.7,38.9-39v-19.5
			h9.2v19.5C1852.9,604.6,1852.9,640.9,1804.7,640.9z"/>
		<path class="st9" d="M1768.3,679.7l-0.6-14.3l-7.3,0.1l0.1,14.2H1768.3z"/>
		<path class="st9" d="M1735.9,665.8l0.6,13.9h8.8l-0.1-14L1735.9,665.8z"/>
		<path class="st10" d="M1858.2,577.8h-209.6c-1.2,0-2.4-0.5-3.3-1.3c-0.9-0.9-1.3-2-1.3-3.3c0-1.2,0.5-2.4,1.3-3.3s2-1.3,3.3-1.3
			h209.6c1.2,0,2.4,0.5,3.3,1.3s1.3,2,1.3,3.3c0,1.2-0.5,2.4-1.3,3.3C1860.6,577.3,1859.5,577.8,1858.2,577.8L1858.2,577.8z"/>
		<path class="st11" d="M1702.2,607.1c1.4,0,2.5-1.1,2.5-2.5c0-1.4-1.1-2.5-2.5-2.5c-1.4,0-2.5,1.1-2.5,2.5
			C1699.7,606,1700.8,607.1,1702.2,607.1z"/>
		<path class="st11" d="M1807.1,607.1c1.4,0,2.5-1.1,2.5-2.5c0-1.4-1.1-2.5-2.5-2.5c-1.4,0-2.5,1.1-2.5,2.5
			C1804.7,606,1805.8,607.1,1807.1,607.1z"/>
	</g>
</g>
</svg>
