<?xml version="1.0" encoding="utf-8"?>
<!-- Generator: Adobe Illustrator 27.2.0, SVG Export Plug-In . SVG Version: 6.00 Build 0)  -->
<svg version="1.1" id="Layer_1" xmlns="http://www.w3.org/2000/svg" xmlns:xlink="http://www.w3.org/1999/xlink" x="0px" y="0px"
	 viewBox="0 0 1606 1006" style="enable-background:new 0 0 1606 1006;" xml:space="preserve">
<style type="text/css">
	.st0{fill:#001C26;}
	.st1{enable-background:new    ;}
	.st2{fill:#FFFFFF;}
</style>
<rect x="-4.4" y="-5.8" class="st0" width="1614.7" height="1017.5"/>
<g>
	<g class="st1">
		<path class="st2" d="M402,341.4c0-36.1,21.9-60.5,59.6-60.5c15,0,30.3,4.8,39.8,12.2l-9.7,16.9c-10.1-7.3-21.2-9.8-30.1-9.8
			c-24.7,0-38.6,16.9-38.6,41.2c0,24.2,13.9,41.2,38.6,41.2c11.1,0,23.4-5.1,32.2-14.1l12,16.2c-10,10.3-26.1,17.3-44.2,17.3
			C423.8,401.9,402,377.3,402,341.4z"/>
		<path class="st2" d="M512.8,341.4c0-35.6,22.5-60.5,59.6-60.5c37.2,0,59.7,24.9,59.7,60.5c0,35.5-22.5,60.5-59.7,60.5
			C535.3,401.9,512.8,376.9,512.8,341.4z M611.2,341.4c0-24.7-13.6-41.2-38.8-41.2s-38.6,16.5-38.6,41.2c0,24.7,13.5,41.2,38.6,41.2
			S611.2,366.1,611.2,341.4z"/>
		<path class="st2" d="M650.8,282.8h14.1l66.2,45.5v-45.5h20V400h-20v-48.3l-60.3-41.3V400h-20V282.8z"/>
		<path class="st2" d="M777,282.8h14.1l66.2,45.5v-45.5h20V400h-20v-48.3L797,310.3V400h-20V282.8z"/>
		<path class="st2" d="M903.3,282.8h81.4v19.3h-61.5v28.2h57.2v19.3h-57.2v31h63.7V400h-83.6V282.8z"/>
		<path class="st2" d="M998.8,341.4c0-36.1,21.9-60.5,59.6-60.5c15,0,30.3,4.8,39.8,12.2l-9.7,16.9c-10.1-7.3-21.2-9.8-30.1-9.8
			c-24.7,0-38.6,16.9-38.6,41.2c0,24.2,13.9,41.2,38.6,41.2c11.1,0,23.4-5.1,32.2-14.1l12,16.2c-10,10.3-26.1,17.3-44.2,17.3
			C1020.6,401.9,998.8,377.3,998.8,341.4z"/>
		<path class="st2" d="M1150.7,302.1H1115v-19.3h91.5v19.3h-35.6V400h-20.3V302.1z"/>
	</g>
	<g class="st1">
		<path class="st2" d="M431.7,450.3h51.2c23.1,0,42,13.9,42,42.3c0,28-18.8,42.1-42,42.1h-31.2v32.8h-20V450.3z M481.2,515.4
			c13.6,0,22.8-7.8,22.8-22.8c0-15.4-9.2-23-22.8-23h-29.5v45.8H481.2z"/>
		<path class="st2" d="M613.1,535.2c5.2,9.2,11.2,14.3,21.9,16.2v17.3c-18.7-0.8-27.6-6.5-37.9-23l-8.2-13.3h-28.5v35.2h-20V450.3
			h51.2c23.3,0,42.6,14.1,42.6,41c0,18.5-12.5,31-25.5,36.1L613.1,535.2z M560.4,469.3V514h30.7c13.6,0,22.2-7.9,22.2-22.6
			c0-14.3-9.8-22-21.7-22H560.4z"/>
		<path class="st2" d="M647.3,508.9c0-35.6,22.5-60.5,59.6-60.5c37.2,0,59.7,24.9,59.7,60.5c0,35.5-22.5,60.5-59.7,60.5
			C669.8,569.4,647.3,544.4,647.3,508.9z M745.7,508.9c0-24.7-13.6-41.2-38.8-41.2s-38.6,16.5-38.6,41.2c0,24.7,13.5,41.2,38.6,41.2
			S745.7,533.6,745.7,508.9z"/>
		<path class="st2" d="M809.5,469.6h-35.6v-19.3h91.5v19.3h-35.6v97.9h-20.3V469.6z"/>
		<path class="st2" d="M880.8,450.3h81.4v19.3h-61.5v28.2h57.2v19.3h-57.2v31h63.7v19.3h-83.6V450.3z"/>
		<path class="st2" d="M976.3,508.9c0-36.1,21.9-60.5,59.6-60.5c15,0,30.3,4.8,39.8,12.2l-9.7,16.9c-10.1-7.3-21.2-9.8-30.1-9.8
			c-24.7,0-38.6,16.9-38.6,41.2c0,24.2,13.9,41.2,38.6,41.2c11.1,0,23.4-5.1,32.2-14.1l12,16.2c-10,10.3-26.1,17.3-44.2,17.3
			C998.1,569.4,976.3,544.9,976.3,508.9z"/>
		<path class="st2" d="M1128.2,469.6h-35.6v-19.3h91.5v19.3h-35.6v97.9h-20.3V469.6z"/>
	</g>
	<g class="st1">
		<path class="st2" d="M465.4,617.8h20V735h-20V617.8z"/>
		<path class="st2" d="M511.3,617.8h14.1l66.2,45.5v-45.5h20V735h-20v-48.3l-60.3-41.3V735h-20V617.8z"/>
		<path class="st2" d="M630.4,723.8l9.3-16.9c10.5,9,23.3,10.8,34.5,10.8c15.8,0,24.1-6.5,24.1-16.2c0-9.5-14.1-13.5-26-16.6
			c-19.6-5.2-40.7-11.7-40.7-35.6c0-20.3,15.7-33.3,42.6-33.3c11.6,0,26.1,2.2,39.3,10l-9,17.1c-10-6.5-21.7-7.8-30.3-7.8
			c-13.8,0-22.2,5.4-22.2,13.9c0,9.3,12.2,13.3,24.9,16.5c20,5.1,41.8,11.1,41.8,35.8c0,21.2-15.5,35.5-44.5,35.5
			C659.3,736.9,644.2,733.9,630.4,723.8z"/>
		<path class="st2" d="M738.5,617.8h51.2c23.1,0,42,13.9,42,42.3c0,28-18.8,42.1-42,42.1h-31.2V735h-20V617.8z M787.9,682.9
			c13.6,0,22.8-7.8,22.8-22.8c0-15.4-9.2-23-22.8-23h-29.5v45.8H787.9z"/>
		<path class="st2" d="M847.1,617.8h81.4v19.3h-61.5v28.2h57.2v19.3h-57.2v31h63.7V735h-83.6V617.8z"/>
		<path class="st2" d="M942.6,676.4c0-36.1,21.9-60.5,59.6-60.5c15,0,30.3,4.8,39.8,12.2l-9.7,16.9c-10.1-7.3-21.2-9.8-30.1-9.8
			c-24.7,0-38.6,16.9-38.6,41.2c0,24.2,13.9,41.2,38.6,41.2c11.1,0,23.4-5.1,32.2-14.1l12,16.2c-10,10.3-26.1,17.3-44.2,17.3
			C964.5,736.9,942.6,712.4,942.6,676.4z"/>
		<path class="st2" d="M1094.5,637.1h-35.6v-19.3h91.5v19.3h-35.6V735h-20.3V637.1z"/>
	</g>
</g>
</svg>
