<svg width="1600" height="1000" viewBox="0 0 1600 1000" fill="none" xmlns="http://www.w3.org/2000/svg">
<rect width="1600" height="1000" fill="#1B1B1B"/>
<rect width="1600" height="1000" fill="#1B1B1B"/>
<path d="M872.359 328H805L944.645 671H1012L872.359 328Z" fill="white"/>
<path d="M756 438.36C756 377.441 706.836 328 646.259 328H614.655H587V387.153H638.358H646.259C673.914 387.153 696.741 410.108 696.741 438.36C696.741 455.576 687.96 471.027 674.792 480.297C666.452 486.036 656.795 489.568 645.821 489.568H612.899H587V548.721H636.602L685.327 671H751.171L697.179 535.919C732.297 517.378 756 480.739 756 438.36Z" fill="white"/>
</svg>
