<svg width="1600" height="1000" viewBox="0 0 1600 1000" fill="none" xmlns="http://www.w3.org/2000/svg">
<rect width="1600" height="1000" fill="#E73A2B"/>
<path d="M842.101 484.205C822.781 502.285 777.116 502.285 757.795 484.205C739.715 464.884 739.715 419.219 757.795 399.899C777.116 381.819 822.781 381.819 842.101 399.899C860.181 419.219 860.181 464.781 842.101 484.205ZM912.046 329.954C860.595 282.015 739.405 282.015 687.954 329.954C640.015 381.405 640.015 502.595 687.954 554.046C739.405 601.985 860.595 601.985 912.046 554.046C959.985 502.595 959.985 381.405 912.046 329.954Z" fill="white"/>
<path d="M934.468 693.316C915.147 711.396 869.482 711.396 850.162 693.316C832.081 673.996 832.081 628.33 850.162 609.01C869.482 590.93 915.147 590.93 934.468 609.01C952.445 628.434 952.445 673.996 934.468 693.316Z" fill="white"/>
</svg>
