<?xml version="1.0" encoding="utf-8"?>
<!-- Generator: Adobe Illustrator 27.2.0, SVG Export Plug-In . SVG Version: 6.00 Build 0)  -->
<svg version="1.1" id="Layer_1" xmlns="http://www.w3.org/2000/svg" xmlns:xlink="http://www.w3.org/1999/xlink" x="0px" y="0px"
	 viewBox="0 0 1600 1000" style="enable-background:new 0 0 1600 1000;" xml:space="preserve">
<style type="text/css">
	.st0{fill:#1D1D1B;}
	.st1{fill-rule:evenodd;clip-rule:evenodd;fill:#FFFFFF;filter:url(#Adobe_OpacityMaskFilter);}
	.st2{mask:url(#mask0_907_9971_00000116205504349933438430000005135106994606301114_);}
	.st3{fill-rule:evenodd;clip-rule:evenodd;fill:#FFFFFF;}
	
		.st4{fill-rule:evenodd;clip-rule:evenodd;fill:#FFFFFF;filter:url(#Adobe_OpacityMaskFilter_00000037658048680382028470000017134839463798434487_);}
	.st5{mask:url(#mask1_907_9971_00000151539961553523702260000011612386511595106696_);}
</style>
<rect x="-3" y="-2.2" class="st0" width="1606" height="1005.2"/>
<g>
	<defs>
		<filter id="Adobe_OpacityMaskFilter" filterUnits="userSpaceOnUse" x="660.4" y="358.6" width="279.2" height="362">
			<feColorMatrix  type="matrix" values="1 0 0 0 0  0 1 0 0 0  0 0 1 0 0  0 0 0 1 0"/>
		</filter>
	</defs>
	
		<mask maskUnits="userSpaceOnUse" x="660.4" y="358.6" width="279.2" height="362" id="mask0_907_9971_00000116205504349933438430000005135106994606301114_">
		<path class="st1" d="M660.4,358.6h279.2v362H660.4V358.6z"/>
	</mask>
	<g class="st2">
		<path class="st3" d="M925.4,517.7l-119.5,65.7v-69.3l119.5-67.4V517.7z M728.2,660.1l-13.5-11.2l79.4-44.8v98.2l-3.1-1.6
			C777.7,694,751.9,679.9,728.2,660.1L728.2,660.1z M699.1,630.6c-8.6-11-15-22.4-19.1-34l-3.4-9.6l117.5-66.3v69.2l-88.7,48.8
			L699.1,630.6z M674.6,504.8l119.5-67.4v69.1l-119.5,65.7V504.8z M674.6,417.9l4.7-3.6c15.3-11.8,57-39.3,114.8-41.1v50.1
			l-119.5,65.7V417.9z M937.4,409.6c-1.5-1.4-26-24.3-67.4-38.9c-19.7-7-43.3-12.1-70-12.1c-82.7,0-135.2,48.9-137.4,51l-2.2,2.1
			v155c0,93.7,131.3,150.4,136.8,152.7l2.8,1.2l2.8-1.2c2.7-1.1,34.8-15,67.3-39.6c34.6-26.2,69.6-64.7,69.6-113.2v-155L937.4,409.6
			z"/>
	</g>
	<defs>
		
			<filter id="Adobe_OpacityMaskFilter_00000000183777419187745370000011451430088256344727_" filterUnits="userSpaceOnUse" x="750.2" y="279.4" width="99.2" height="71.6">
			<feColorMatrix  type="matrix" values="1 0 0 0 0  0 1 0 0 0  0 0 1 0 0  0 0 0 1 0"/>
		</filter>
	</defs>
	
		<mask maskUnits="userSpaceOnUse" x="750.2" y="279.4" width="99.2" height="71.6" id="mask1_907_9971_00000151539961553523702260000011612386511595106696_">
		
			<path style="fill-rule:evenodd;clip-rule:evenodd;fill:#FFFFFF;filter:url(#Adobe_OpacityMaskFilter_00000000183777419187745370000011451430088256344727_);" d="
			M750.2,279.4h99.2V351h-99.2V279.4z"/>
	</mask>
	<g class="st5">
		<path class="st3" d="M829.2,311.7c3.5,2.2,5.9,6,5.9,10.5c0,6.8-5.5,12.3-12.2,12.3c-6.8,0-12.2-5.5-12.2-12.3
			c0-5.5,3.6-10.1,8.6-11.7l-19.5-31.1l-19.5,31.1c4.9,1.6,8.5,6.2,8.5,11.7c0,6.8-5.5,12.3-12.3,12.3c-6.8,0-12.3-5.5-12.3-12.3
			c0-4.5,2.4-8.4,6-10.5l-20.1-19.6l6.2,58.9c0,0,0,0,0,0c13.4-2.7,28-4.4,43.6-4.4c14.5,0,28.9,1.5,43.1,4.3l6.2-58.8L829.2,311.7z
			"/>
	</g>
</g>
</svg>
