<?xml version="1.0" encoding="utf-8"?>
<!-- Generator: Adobe Illustrator 25.4.1, SVG Export Plug-In . SVG Version: 6.00 Build 0)  -->
<svg version="1.1" id="Layer_1" xmlns="http://www.w3.org/2000/svg" xmlns:xlink="http://www.w3.org/1999/xlink" x="0px" y="0px"
	 viewBox="0 0 1920 1080" style="enable-background:new 0 0 1920 1080;" xml:space="preserve">
<style type="text/css">
	.st0{fill:#636362;}
	.st1{fill:#00AFDB;}
	.st2{fill:#FCC200;}
	.st3{fill:#4DAE51;}
	.st4{fill:#E7413A;}
</style>
<g>
	<path class="st0" d="M1030.7,804.8v-75.7c0-4.1,2.5-6.4,6.5-6.4h5.3c4.1,0,6.4,2.3,6.4,6.4V740c3.9-12.4,15.2-19.2,29.5-19.2
		c19.6,0,33.9,12.7,33.9,40.4v43.6c0,4.1-2.5,6.4-6.5,6.4h-5.3c-4.1,0-6.4-2.3-6.4-6.4v-43.4c0-18.2-8.3-24.7-17.6-24.7
		c-9.2,0-27.5,6.2-27.5,33v35.1c0,4.1-2.3,6.4-6.4,6.4h-5.3C1033.1,811.1,1030.7,808.8,1030.7,804.8z"/>
	<path class="st0" d="M1134.4,772.7v-43.6c0-4.1,2.3-6.4,6.4-6.4h5.3c4.1,0,6.5,2.3,6.5,6.4v43.4c0,18,8.1,24.7,17.5,24.7
		c9.2,0,27.5-6.4,27.5-33v-35.1c0-4.1,2.3-6.4,6.4-6.4h5.3c4.1,0,6.5,2.3,6.5,6.4v75.7c0,4.1-2.5,6.4-6.5,6.4h-5.3
		c-4.1,0-6.4-2.3-6.4-6.4v-10.9c-3.9,12.4-15.2,19.2-29.5,19.2C1148.5,813.1,1134.4,800.4,1134.4,772.7z"/>
	<path class="st0" d="M1237.9,804.8v-75.7c0-4.1,2.5-6.4,6.5-6.4h5.3c4.1,0,6.4,2.3,6.4,6.4v13.4c3-14.1,13.1-21.7,23.6-21.7
		l3.9,0.2c3.7,0.5,4.2,3.5,4.2,7.1v5.1c0,4.4-1.8,6.2-4.8,5.5c-1.6-0.4-3.2-0.5-4.8-0.5c-6.4,0-22.2,3.2-22.2,39.3v27.3
		c0,4.1-2.3,6.4-6.4,6.4h-5.3C1240.4,811.1,1237.9,808.8,1237.9,804.8z"/>
	<path class="st0" d="M1298.8,796c-2.1-4.1,0-6.9,4.2-7.9l3.7-1.1c3.5-0.9,5.6,0.7,7.9,3.7c3.5,4.4,9.5,7.2,16.4,7.2
		c8.5,0,14.8-4.9,14.8-11.6c0-5.6-4.8-8.6-10.9-10.8l-11.8-4.1c-13.6-4.1-22.1-11.6-22.1-24.2c0-15.2,12-26.5,29.6-26.5
		c10.8,0,21.2,3.7,27,14.5c2.3,4.1,0.2,7.2-4.1,8.1l-3.4,0.7c-3.7,1.1-5.8-0.5-8.3-3.7c-3-3.5-6.9-4.6-10.8-4.6
		c-7.8,0-12.7,4.8-12.7,10.9c0,5.6,5.1,8.6,10.2,10.2l12.7,4.2c16.9,5.3,21.5,15.7,21.5,25.2c0,16.9-14.8,26.6-32.1,26.6
		C1317.3,813.1,1304.8,807.2,1298.8,796z"/>
	<path class="st0" d="M1374.7,767.2c0-25.8,20.1-46.4,47.6-46.4c22.2,0,42.5,13.2,45,41.5c0.5,4.2-1.9,6.5-6.2,6.5h-68.5
		c-0.5,16.4,13.1,28.4,32.3,28.4c8.6,0,16.4-2.3,24-7.4c3.4-2.1,6.2-1.9,9,0.9l1.2,1.4c2.8,3,2.8,6.7-1.2,10.1
		c-10.2,8.3-22.1,10.9-33.2,10.9C1393.7,813.1,1374.7,792.4,1374.7,767.2z M1449.3,755.4c-4.6-15.7-16.9-19.1-26.6-19.1
		c-10.2,0-22.9,4.1-28.4,19.1H1449.3z"/>
	<path class="st0" d="M1484.8,804.8v-75.7c0-4.1,2.5-6.4,6.5-6.4h5.3c4.1,0,6.4,2.3,6.4,6.4v13.4c3-14.1,13.1-21.7,23.6-21.7
		l3.9,0.2c3.7,0.5,4.2,3.5,4.2,7.1v5.1c0,4.4-1.8,6.2-4.8,5.5c-1.6-0.4-3.2-0.5-4.8-0.5c-6.4,0-22.2,3.2-22.2,39.3v27.3
		c0,4.1-2.3,6.4-6.4,6.4h-5.3C1487.3,811.1,1484.8,808.8,1484.8,804.8z"/>
	<path class="st0" d="M1566.2,843.2l13.6-35.5l-33.9-77.6c-1.9-4.4,0.2-7.4,4.9-7.4h7.1c3.7,0,6,1.6,7.2,4.9l24.5,59.8l22.6-59.6
		c1.2-3.5,3.9-5.1,7.6-5.1h7.2c4.8,0,6.9,2.8,4.9,7.4l-49.2,115.6c-1.4,3.5-3.7,4.9-7.4,4.9h-4.2
		C1566.4,850.7,1564.4,847.7,1566.2,843.2z"/>
	<path class="st1" d="M416,268.2c39.5-2.9,84.8,7,104,45.7c0.8,1.6,1.4,3.2,2,4.9c1.8,5.1,4.9,13.2,5.1,15.6
		c1.1,15.1-21.9,16.2-35,16.2c-4.9,0-9.5-2.2-12.8-5.9c-15.3-17-33.4-26.8-59-24.9c-73.3,5.3-80.8,115.6-76.8,169.6
		c3.2,44.3,12.2,136.3,74.1,131.8c45.5-3.3,45.5-89,43.2-122l-1.6-21.5c-0.1-2-1.8-3.6-3.8-3.6c-12.3-0.3-27.3-1-36.3-3
		c-4.5-1-7.8-4.7-8.3-9.3c-0.3-2.4-0.6-5.4-0.8-8.7c-0.5-6.9-0.7-15.3,0.4-22.3c1.2-8.2,8.1-14.3,16.3-14.9l26.8-1.9
		c38.1-2.8,50.9,0.7,58.6,43c0.2,2.8,2.6,28.6,2.8,31.5c4.9,67.6-0.8,185.8-94.6,192.6c-94.4,6.8-126.2-109.7-131.6-183
		C281.7,402.5,298.3,276.8,416,268.2z"/>
	<path class="st2" d="M552.4,481.3c0-27.8,2.6-42.7,21.6-42.7c7.2,0,34.5,2.1,34.5,13.4v194.7c-5.7,16.5-16,16.5-21.1,16.5
		c-12.4,0-23.2-2.6-29.9-23.2c-4.1-45.8-4.6-79.3-4.6-123.6C552.9,502.9,552.4,491.1,552.4,481.3z M578.6,353c9.3,0,35,2.6,35,14.9
		c0,12.9-6.7,41.2-23.2,41.2c-11.8,0-37.1,0-37.1-16.5C553.4,370,554.9,353,578.6,353z"/>
	<path class="st3" d="M653.1,682.1c-0.7-4.1-1.5-11.3-1.5-18.5c0-31.4,26.8-15.5,65.4-24.7c28.3-6.7,33.5-41.7,33.5-68.5
		c0-8.1,0-19.4-0.8-26.3c-0.1-1-0.2-2-0.2-3.1v-2.3c0-1.1-1.1-1.9-2.2-1.6c-10.7,3.4-18.6,3.9-28.7,3.9c-39.7,0-75.2-17.5-75.2-63.9
		c0-56.1,40.2-97.9,112.8-97.9c2.1,0,30.4,0,38.6,31.4c5.2,15.5,2.1,42.2,7.2,125.7c0.5,7.2,0.5,14.4,0.5,21.6
		c0,58.7-13.4,114.9-66.4,130.3c-13.4,4.1-36.1,4.6-51.5,4.6h-3.1c-11.3,0-21.7-1.1-25.4-4.2C654.4,687.3,653.6,685.1,653.1,682.1z
		 M723.7,494.1c12.4,0,24.2-5.2,24.7-10.8l-1.9-49c-0.1-1.7-1.5-3-3.1-3c-27.4,0.8-48.5,12.2-48.5,37.6c0,2.1,0.7,4.6,1.2,7.4
		c0.4,1.9,0.9,3.8,1.8,5.5C702.6,490.9,713.1,494.1,723.7,494.1z"/>
	<path class="st4" d="M839.5,710.7c-0.7-4.1-1.5-11.3-1.5-18.5c0-31.4,26.8-15.5,65.4-24.7c28.3-6.7,33.5-41.7,33.5-68.5
		c0-8.1,0-19.4-0.8-26.3c-0.1-1-0.2-2-0.2-3.1v-2.3c0-1.1-1.1-1.9-2.2-1.6c-10.7,3.4-18.6,3.9-28.7,3.9c-39.7,0-75.2-17.5-75.2-63.9
		c0-56.1,40.2-97.9,112.8-97.9c2.1,0,30.4,0,38.6,31.4c5.2,15.5,2.1,42.2,7.2,125.7c0.5,7.2,0.5,14.4,0.5,21.6
		c0,58.7-13.4,114.9-66.4,130.3c-13.4,4.1-36.1,4.6-51.5,4.6h-3.1c-11.3,0-21.7-1.1-25.4-4.2C840.9,716,840,713.8,839.5,710.7z
		 M910.1,522.7c12.4,0,24.2-5.2,24.7-10.8l-1.9-49c-0.1-1.7-1.5-3-3.1-3c-27.4,0.8-48.5,12.2-48.5,37.6c0,2.1,0.7,4.6,1.2,7.4
		c0.4,1.9,0.9,3.8,1.8,5.5C889,519.5,899.6,522.7,910.1,522.7z"/>
	<path class="st2" d="M1004.3,246.9c0.2-22.1,45.3-22.9,46.9-4.6c0.7,8.5,15.7,265.8,21.1,359c1.4,24.1-46.1,22.5-46.9,4.6
		L1004.3,246.9z"/>
	<path class="st3" d="M1201.3,414c38.5-3.4,57.2,41.6,59.9,71.8l0.3,3.7c0.4,4.1,0.7,7.8,0.8,11.1c0.3,13-8.9,24.3-21.7,26.7
		c-27.7,5.3-58.2,9.9-84.5,13.4c-1.3,0.2-2.5,0.8-3.3,1.9c-0.5,0.7-0.9,1.5-1.2,2.7c-0.8,3.5,0.2,18.4,0.6,22.6l0.1,0.9
		c2.7,31.1,12.6,38.6,26.8,37.3c14.2-1.3,32.1-13,51.8-14.7c12.4-1.1,18.5,15.9,19.5,27.8c1.9,21.5-50.2,33-64.8,34.3
		c-49.9,4.4-78.1-37.4-82.1-83.2C1097.4,503,1123.9,420.8,1201.3,414z M1157.9,496c0,1.1,0.9,1.9,2,1.8l55.4-8.4
		c1.8-0.3,1.5-3.8,1.1-8.9c-0.8-8.7-5.1-20.8-18.4-20.1C1161.4,463.6,1158.1,488.6,1157.9,496z"/>
	<path class="st4" d="M1337.6,624.9c-37.4,0-60.7-15.6-60.7-33.2c0-18.5,14.7-24.2,23.7-24.2c14.7,0,33.2,9.5,47.4,9.5
		c13.7,0,20.8-11.8,20.8-18c0-24.6-79.1-40.7-82.9-84.8c-0.5-3.8-0.5-7.6-0.5-11.4c0-36,30.8-64.9,65.4-66.8
		c13.7-0.9,74.4,6.6,74.4,39.3c0,12.8-8.1,26.1-18.5,26.1c-1.9,0-4.3-0.9-6.2-1.9c-15.2-7.6-33.2-14.2-46.4-14.2
		c-10,0-19.4,4.3-19.4,16.6c0,22.3,82,33.6,82,98.1c0,35.1-29.4,59.7-62.5,64C1348.5,624.9,1342.9,624.9,1337.6,624.9z"/>
</g>
</svg>
