<?xml version="1.0" encoding="utf-8"?>
<!-- Generator: Adobe Illustrator 27.2.0, SVG Export Plug-In . SVG Version: 6.00 Build 0)  -->
<svg version="1.1" id="Layer_1" xmlns="http://www.w3.org/2000/svg" xmlns:xlink="http://www.w3.org/1999/xlink" x="0px" y="0px"
	 viewBox="0 0 2560 1600" style="enable-background:new 0 0 2560 1600;" xml:space="preserve">
<style type="text/css">
	.st0{clip-path:url(#SVGID_00000171706408343144811270000008724234880640529036_);fill:#4DAE51;}
	.st1{clip-path:url(#SVGID_00000171706408343144811270000008724234880640529036_);fill:none;}
	.st2{clip-path:url(#SVGID_00000171706408343144811270000008724234880640529036_);}
	.st3{clip-path:url(#SVGID_00000095324820615066964490000006241099287323317176_);}
	.st4{opacity:5.000000e-02;fill:#1D1D1B;enable-background:new    ;}
	.st5{fill:#FDECE4;}
	.st6{fill:#F4E3D4;}
	.st7{fill:#CBE3CD;}
	.st8{fill:#9083BD;}
	.st9{fill:#4DAE51;}
	.st10{fill:#BAD043;}
	.st11{fill:#DB6B2E;}
	.st12{fill:#E8C9BC;}
	.st13{fill:#3C3C3B;}
	.st14{fill:#B65B25;}
	.st15{fill:#D99FA8;}
	.st16{fill:#F2D5C8;}
	.st17{opacity:0.4;}
	.st18{fill:#FFFFFF;}
	.st19{fill:#53422E;}
</style>
<g>
	<defs>
		<rect id="SVGID_1_" x="-3.1" y="-3.1" width="2566.1" height="1606.2"/>
	</defs>
	<clipPath id="SVGID_00000045605923543905890170000000935511680384082865_">
		<use xlink:href="#SVGID_1_"  style="overflow:visible;"/>
	</clipPath>
	
		<rect x="-3" y="-3.3" style="clip-path:url(#SVGID_00000045605923543905890170000000935511680384082865_);fill:#4DAE51;" width="2566.1" height="1606.2"/>
	
		<rect x="-7.4" y="-7.2" style="clip-path:url(#SVGID_00000045605923543905890170000000935511680384082865_);fill:none;" width="2570.5" height="1610.1"/>
	<g style="clip-path:url(#SVGID_00000045605923543905890170000000935511680384082865_);">
		<g>
			<defs>
				<rect id="SVGID_00000151544217407475625610000015136078799271771015_" x="2042.5" y="45.9" width="523.1" height="1557.7"/>
			</defs>
			<clipPath id="SVGID_00000036955536710906320280000011514390280253833147_">
				<use xlink:href="#SVGID_00000151544217407475625610000015136078799271771015_"  style="overflow:visible;"/>
			</clipPath>
			<g style="clip-path:url(#SVGID_00000036955536710906320280000011514390280253833147_);">
				
					<ellipse transform="matrix(3.572042e-02 -0.9994 0.9994 3.572042e-02 925.0969 4007.7493)" class="st4" cx="2539.3" cy="1524.5" rx="65.9" ry="327.1"/>
				<path class="st5" d="M2446.3,823.4c54.8-15.3,66.6-23.1,97.2-34.8c15.4-5.9,32.1-6.1,47.5-7.6l11.4,65.5l-40.6,52.8l-86.4-0.5
					L2446.3,823.4z"/>
				<path class="st6" d="M2572.8,774.4c-42.9,22.3-67.1,33.1-123,43.8c-132,25.5-247.6-41.5-286.3-57.8c-11.3-4.8-29.8-15-29.8-15
					l-18.2,20.4c1.2,0,3.2,0.7,5.6,1.5c4.6,1.7,9.8,4.4,9.8,4.4c3.4,2,50.6,29.2,112.4,54c90.4,36.3,139.4,37.6,201,35.6
					c19-0.6,88.1-13.5,150.6-49.3C2657.5,776.2,2615.7,752.2,2572.8,774.4z"/>
				<g>
					<path class="st6" d="M2106,743.4c-5.3,9.1-5.9,27.8,8.8,30.9c13.7,2.9,19.1-5.5,22.2-13.7c4.5-11.6,2-19.9-6.4-26.6
						C2120.8,726.4,2111.2,734.3,2106,743.4z"/>
					<path class="st6" d="M2088.7,759.2c-0.9,3.4,3,6.6,9.1,7.8c6.1,1.3,12.1,1.9,13.7,2l0.5-9.8c0,0-13.4-2.6-16.8-3.3
						C2092.2,755.2,2089.3,756.7,2088.7,759.2z"/>
					<path class="st6" d="M2084.3,729c-1.9,2.7-1.1,6.9,2.6,9.4c3.8,2.5,11.3,7,20.5,10.6c0.1-0.5,6-10.8,6-10.8
						s-12.3-8.1-19.9-10.6C2089.4,726.5,2086.2,726.2,2084.3,729z"/>
					<path class="st6" d="M2085.1,741c-2,3.1-1.4,6.9,2.9,9.7c3.9,2.5,10,5.5,16.4,7.3c0.4-0.2,1.6-10.7,1.6-10.7s-8.5-5.7-13.7-7.6
						C2088.8,738.4,2086.4,739,2085.1,741z"/>
					<path class="st6" d="M2125.8,734.1c-4.8-4.6-14.1-14.5-16.5-17.2c-2.4-2.8-6.5-4.2-8.7-1.2c-2,2.7,0,7.3,1.2,9.1
						c1.5,2.5,7.2,10.7,11.8,15.7L2125.8,734.1z"/>
					<path class="st6" d="M2127.5,717.9c3,1.1,1.9,6.3,5.9,10.8c3,3.4,7.6,7.2,8.6,11c1,3.8,2.6,10.6-4.4,15.6l-13.4-13.9
						c0,0-4.5-12.2-2.7-17.6C2122.9,718.5,2125.5,717.2,2127.5,717.9z"/>
				</g>
				<path class="st6" d="M2490.4,1466c-0.7-7.1-13-186.3-7.5-332.7l41.6-16.6c0,0-8.9,100-8.9,157.9c0.1,57.5-1.5,137.8,0.6,190.1
					L2490.4,1466z"/>
				<path class="st7" d="M2516.6,1442.1c0.1,7.9,0.3,15.3,0.6,22.3l-27.5,1.5c-0.2-1.4-0.8-10-1.6-24.1c0-0.2,0.2-0.4,0.4-0.4
					l27.9,0.3C2516.4,1441.8,2516.6,1441.9,2516.6,1442.1z"/>
				<path class="st8" d="M2518.4,1456.1c-0.2-0.2-0.4-0.3-0.7-0.3l-29.5,1.7c0,0-21.3,1.2-44,9.8c-9.1,3.4-17.9,8.1-24.4,14.3
					c-4.9,4.6-5.4,8.6-5.2,10.9c0.3,4.2,10,4.3,16.5,4c13.4-0.7,29.6-3.2,39.7-5.1c19.7-3.7,49.5-9.4,56.7-12.7
					c0.8-0.4,1.3-1.3,1.1-2.2c-0.5-2.5-1.5-6.5-4.2-11.5C2522.2,1460.6,2519.2,1457.1,2518.4,1456.1z"/>
				<path class="st9" d="M2533.3,1225.6c0,0,50.3,7,113.2-9.6l-18.9-140.8l-120.5,12L2533.3,1225.6z"/>
				<path class="st9" d="M2449.7,1112.4c0,0-11.6,122.8-8,194.2c0,0,32.3,18.7,72.3,17.9c32.8-0.7,65.1-16.5,65.1-16.5l-6.2-200.2
					L2449.7,1112.4z"/>
				<path class="st10" d="M2562.4,787c30.1-0.9,72.4-0.9,94.4,65c30.3,90.8,31.4,118.4,69,282.3c0.3,1.3-0.5,2.7-1.8,3
					c-12.7,3-64.1,13.7-143.8,21.9c-86.9,8.9-137.2,0.5-148.3-2c-1.2-0.3-1.9-1.2-1.9-2.4c0.3-24.8,7.4-182.8,27.9-307.6
					C2466.9,791.3,2520.8,788.2,2562.4,787z"/>
				<path class="st10" d="M2558.8,866.5c-110.2,47-233.8,10.7-254.3,4.1c-1.7-0.5-2.7-2.2-2.3-4l11.5-60.7c0.4-1.9,2.1-3.1,4.1-2.8
					c18.9,3.9,112.5,20.4,200.3-16.2C2621.5,743.8,2670.1,819,2558.8,866.5z"/>
				<path class="st6" d="M2495.8,730.6L2522,815c0.2,0.7,0.7,1.2,1.4,1.3c2.6,0.7,9.5,2.2,16.9,0.1c5.7-1.7,12.2-5.1,14.3-9.6
					c0.2-0.4,0.2-0.8,0.2-1.3l-12.8-85.9L2495.8,730.6z"/>
				<path class="st11" d="M2168.6,678.1c0,0-159.7-119.5-104.5-238.6c42.2-91.2,57.6-72.2,53.1-165.4
					c-3.8-76.9,66.6-128.6,204.2-160.2c132.6-30.5,184.6-36.6,239.5-59.3c3.1-1.3,6.7,0.4,7.6,3.7c3,11.3,11.9,34,34.3,35.6
					c6.6,0.4,12.4,4.5,15.7,10.2c25.5,43.3,138.5,239.8,112.9,356.1c-29.6,135-305.4,183.2-305.4,183.2L2168.6,678.1"/>
				<path class="st6" d="M2195.9,628.6c7.8,24-4.8,39.6-27.3,49.5c-26.3,11.6-49.4,3.2-58.2-20.5c-8.8-23.8,8.2-49,31.6-56.5
					C2165.2,593.6,2188.1,604.5,2195.9,628.6z"/>
				<path class="st12" d="M2133.3,629.3c-2.1,1.6-11.1,9.5-7.8,22.1c2.8,11.3,14.6,16.2,25,12.8c4.2-1.4,5-3.8,4.5-5.5
					c-0.7-3-4.1-4-7.4-3.2c-3.1,0.6-10.7,0.1-12.8-6.5c-2-6.3,1.5-10.6,4-12.9c2.4-2.3,4.7-5.3,2.4-7.8
					C2139.1,625.7,2136,627,2133.3,629.3z"/>
				<path class="st6" d="M2712.3,427.3c44.8,141.4-45.9,297.2-204.7,348.6c-158.8,51.4-317.4-8.3-370.3-162.3
					c-48.2-140.3,45.9-297.2,204.7-348.6S2663.7,273.9,2712.3,427.3z"/>
				<g>
					<path class="st13" d="M2297,491.2c3.2,7.9-1.1,16.4-9.5,19.6c-9.2,3.6-18.2,0-20.9-8.4c-2.7-8.5,2.4-19.5,11-22.2
						C2286.1,477.3,2293.6,483,2297,491.2z"/>
				</g>
				<g>
					<path class="st13" d="M2534.8,413.1c2.9,7-2.3,16.3-9.7,19.2c-8.2,3.1-17-2.2-19.5-9.8c-2.4-7.6,1.9-17.2,9.5-19.7
						C2522.6,400.2,2531.7,405.6,2534.8,413.1z"/>
				</g>
				<path class="st11" d="M2100.8,352.9c8.5,1.4,27.1,5.3,25.2,12.3c-1.4,5.4-15.3,2-27.8-0.7c-9.4-2-26.2-3.8-23.3-10.2
					C2077.8,347.8,2094.7,351.9,2100.8,352.9z"/>
				<path class="st11" d="M2113.7,344.3c7.9,3.6,24.9,12,21.2,18.3c-2.7,4.9-15.3-1.9-26.7-7.7c-8.6-4.4-24.4-10.3-20-15.8
					C2092.7,333.5,2108.1,341.7,2113.7,344.3z"/>
				<path class="st14" d="M2526.1,316.7c7.5,2.6,23.6,9.1,20.1,15.4c-2.6,4.9-14.6-0.5-25.4-4.9c-8.2-3.3-23.2-7.5-19-13.3
					C2506.2,308.3,2520.9,314.8,2526.1,316.7z"/>
				<path class="st15" d="M2453.6,660.2c-59.4,13.6-92.9-17-105.5-32.2c-2.3-2.8-2.4-7.5,0.8-9.4l0,0c2.7-1.6,6.1-0.9,8.3,1.3
					c12.7,12.9,43.8,42,101.3,25.8c58.5-16.6,68.2-64.3,72-82.2c0.6-3,3.4-6.4,6.7-6.3l0,0c3.8,0.1,6.3,4,5.8,7.5
					c-2.9,21.6-17.6,75.3-82.2,93.7C2458.4,659.1,2455.9,659.7,2453.6,660.2z"/>
				<path class="st16" d="M2240.1,650.7c1.8,4.5-0.4,9.4-5.9,12c-4.2,1.9-9.3,0.4-11.4-4.7c-1.8-4.5,0.3-9,5.8-11.6
					C2232.9,644.5,2238.3,646.2,2240.1,650.7z"/>
				<path class="st16" d="M2278.3,649.1c2,5.2,0,10.7-5.7,13.4c-4.3,2-9.7,0.1-12.1-5.8c-2-5.2,0-10.2,5.6-12.9
					C2270.3,641.8,2276.1,644,2278.3,649.1z"/>
				<path class="st16" d="M2256.3,681.2c2,5.1,0.1,10.6-5.2,13.1c-4.1,1.9-9.3-0.1-11.7-5.9c-2-5.1-0.2-10.1,5.2-12.7
					C2248.6,673.9,2254.2,676.2,2256.3,681.2z"/>
				<path class="st11" d="M2098,522.3c0,0,287.7-52,418.3-308.8L2371.1,182c0,0-156.7,69-161.6,75.9c-5,7-98.9,149.3-100.6,154.9
					C2107.3,418.5,2098,522.3,2098,522.3z"/>
				<path class="st14" d="M2216.4,430.6c5.1-7,16.7-21.9,22.2-17.1c4.2,3.7-5,14.6-12.9,24.6c-6.1,7.6-15,21.8-19.6,16.3
					C2201.6,449.1,2212.7,435.6,2216.4,430.6z"/>
				<g class="st17">
					<path class="st18" d="M2363.1,472.3c24.9,56.6-6.5,118.9-66.9,143.2c-66.8,26.9-132.1,3.1-153.1-57.7
						c-21-60.9,15.4-141.4,76.9-162.8C2281.4,373.8,2337.1,413.4,2363.1,472.3z"/>
				</g>
				<g class="st17">
					<path class="st18" d="M2653,388.3c12.4,57.8-43.4,121.2-106.5,132.3c-69.8,12.3-131.3-41.3-139.1-102.5s41.7-128.9,105.3-137
						C2576.3,273.1,2640.1,328,2653,388.3z"/>
				</g>
				<g>
					<path class="st19" d="M2242.2,632.5c-17.4,0-33.9-3.4-48.9-10.2c-26.7-12.2-46-33.8-56-62.6c-22.6-65.4,16.5-148.2,80.7-170.5
						c59-20.4,120.8,12.8,150.7,80.7l0,0c11.7,26.6,12.1,56,1.1,82.8c-12.4,30.2-38.4,55.2-71.2,68.5
						C2279.6,628.8,2260.5,632.5,2242.2,632.5z M2253.1,395.5c-10.9,0-21.3,1.8-31.2,5.3c-57.1,19.8-93.3,96.5-73.2,154.9
						c8.8,25.6,26,44.7,49.5,55.5c27.9,12.7,61.8,12.3,95.6-1.3c29.8-12,53.4-34.5,64.5-61.8c9.7-23.7,9.3-49.8-1-73.4l0,0
						C2332.6,418.2,2291.3,395.5,2253.1,395.5z"/>
				</g>
				<g>
					<path class="st19" d="M2526.3,528.5c-26.1,0-51.6-8.4-73.6-24.7c-28.4-20.9-47.2-51.8-51.3-84.9
						c-8.3-65.5,45.4-135.5,110.6-143.8c68.7-8.7,134.2,51.8,147,111.8l0,0c5.4,25.1-1,52.7-18,77.7c-21.4,31.8-57.2,55.4-93.5,61.8
						C2540.5,527.9,2533.3,528.5,2526.3,528.5z M2525.5,286.5c-4,0-8,0.2-12.1,0.8c-59.1,7.5-107.7,70.8-100,130.2
						c3.8,29.3,21.1,57.9,46.6,76.7c25.2,18.6,55.5,25.8,85.5,20.6c33.2-5.9,65.9-27.5,85.5-56.6c15-22.3,20.8-46.7,16.1-68.4l0,0
						C2636.1,338.3,2583.3,286.5,2525.5,286.5z"/>
				</g>
				
					<rect x="2360.6" y="454.8" transform="matrix(0.918 -0.3965 0.3965 0.918 13.1422 985.2669)" class="st19" width="57.9" height="12.2"/>
				<path class="st19" d="M2115.5,599.9c-1.8,0-3.7-0.8-4.9-2.4c-2-2.6-1.4-6.5,1.2-8.5l32.1-23.9c2.6-2,6.5-1.4,8.5,1.2
					c2,2.6,1.4,6.5-1.2,8.5l-32.1,23.9C2118,599.4,2116.7,599.9,2115.5,599.9z"/>
			</g>
		</g>
	</g>
</g>
</svg>
