<?xml version="1.0" encoding="utf-8"?>
<!-- Generator: Adobe Illustrator 27.2.0, SVG Export Plug-In . SVG Version: 6.00 Build 0)  -->
<svg version="1.1" id="Layer_1" xmlns="http://www.w3.org/2000/svg" xmlns:xlink="http://www.w3.org/1999/xlink" x="0px" y="0px"
	 viewBox="0 0 1600 1000" style="enable-background:new 0 0 1600 1000;" xml:space="preserve">
<style type="text/css">
	.st0{fill:#FF6100;}
</style>
<rect x="-3" y="-3" width="1606" height="1006"/>
<g>
	<g>
		<path class="st0" d="M746.3,210l290.9,114.8l-20.6,52.1L725.8,262.1L746.3,210 M741.8,199.6l-26.5,67.1l305.9,120.7l26.5-67.1
			L741.8,199.6L741.8,199.6z"/>
	</g>
	<g>
		<path class="st0" d="M687.8,358.3l290.9,114.8l-20.6,52.2L726.9,434l-7.5-3l-3,7.5l-78,197.6l-3,7.5l7.5,3l231.3,91.3L853.7,790
			L562.7,675.2L687.8,358.3 M683.3,347.8l-131,331.9l305.9,120.7l26.5-67.1l-238.8-94.2l78-197.6l238.8,94.2l26.5-67.2L683.3,347.8
			L683.3,347.8z"/>
	</g>
</g>
</svg>
