<svg width="89" height="45" viewBox="0 0 89 45" fill="none" xmlns="http://www.w3.org/2000/svg">
<path d="M27.8057 40.8208V30.039C30.1797 27.9652 35.6542 23.1814 38.5593 20.6366C42.1908 17.4555 44.9215 15.7946 47.5114 18.2156C49.5833 20.1524 48.3747 22.7573 47.5114 23.8176L27.8057 40.8208Z" fill="#D9D9D9"/>
<path d="M27.7496 43.8611V40.849L43.7394 27.2802C45.4378 25.6568 49.3358 22.0666 51.3402 20.6929C53.3445 19.3191 55.4221 20.1205 56.2103 20.6929C57.4865 21.9221 59.2731 25.0337 56.2103 27.6461C53.1475 30.2586 43.0544 39.5446 38.3907 43.8611H27.7496Z" fill="#D9D9D9"/>
<path d="M38.5315 44.0019H54.8872C55.4878 43.3451 57.2744 41.3389 59.6166 38.5688C62.5443 35.1062 61.2212 30.6302 59.6166 28.9693C58.3329 27.6406 55.9288 28.4157 54.8872 28.9693L38.5315 44.0019Z" fill="#D9D9D9"/>
<path d="M46.9484 21.7344C49.3131 19.7076 51.6215 15.7101 50.1858 14.0211C48.204 12.6698 43.3357 16.8362 41.1493 19.0882C39.8825 19.9703 37.8163 22.1736 39.6855 23.9302C42.022 26.126 44.5838 23.7613 46.9484 21.7344Z" fill="#404040"/>
<path d="M53.9582 26.1823C53.0292 27.0175 50.6701 28.2599 48.6658 26.5483C47.8212 25.6475 47.7086 24.6903 48.1309 23.705C48.5532 22.7197 52.1283 19.9891 53.9582 18.4971C55.788 17.0051 58.5468 15.4849 59.4476 16.4702C60.3484 17.4555 59.4758 18.8912 58.5468 21.0025C57.8036 22.6916 55.178 25.1595 53.9582 26.1823Z" fill="#404040"/>
<path d="M58.7157 33.6423C57.5897 34.7684 54.4649 36.8234 52.4381 34.9936C51.2276 33.6423 51.8469 32.2066 53.0292 30.7991C54.2116 29.3915 60.2922 23.3954 62.6006 25.5067C64.9089 27.618 59.8418 32.5163 58.7157 33.6423Z" fill="#404040"/>
<path d="M63.0789 5.20983C62.8312 4.17387 63.4637 1.30622 63.8109 0.00189209H71.7494V8.30643C66.626 8.8976 63.3886 6.50477 63.0789 5.20983Z" fill="#D9D9D9"/>
<path d="M63.3042 19.4543L66.0911 7.26489L68.8218 7.91237L65.3311 20.1299C64.3627 20.4227 63.5763 19.8015 63.3042 19.4543Z" fill="#D9D9D9"/>
<path d="M60.7987 24.8029C61.0802 23.5643 61.3335 21.7344 63.473 19.7076H63.6982C64.036 18.3751 64.8186 16.5659 65.2465 19.9891C65.7814 24.268 64.2894 25.4222 62.7692 26.9987C61.5531 28.2598 59.1847 28.4813 58.1525 28.4344C59.926 28.0403 60.5171 26.0415 60.7987 24.8029Z" fill="#D9D9D9"/>
<path fill-rule="evenodd" clip-rule="evenodd" d="M18.5721 18.7524L2.54909 28.7115L18.5721 38.8476L16.9344 40.8837L0.247435 30.4377V26.941L17.1115 16.495M88.7525 26.5426V29.9951L72.0656 40.441L70.4278 38.2722L86.4066 28.2688L70.4278 18.2212L71.8443 16.0524" fill="#999999"/>
</svg>
